<?xml version="1.0" encoding="utf-8"?>
<!-- Generator: Adobe Illustrator 27.2.0, SVG Export Plug-In . SVG Version: 6.00 Build 0)  -->
<svg version="1.1" xmlns="http://www.w3.org/2000/svg" xmlns:xlink="http://www.w3.org/1999/xlink" x="0px" y="0px"
	 viewBox="0 0 115.8 115.8" style="enable-background:new 0 0 115.8 115.8;" xml:space="preserve">
<style type="text/css">
	.st0{fill:url(#SVGID_1_);}
	.st1{fill:#179DEF;}
	.st2{fill:#0F7FE2;}
	.st3{fill:#1585E5;}
	.st4{fill:#1CB1EB;}
	.st5{fill:#179EEF;}
	.st6{fill:#1180E2;}
	.st7{fill:#22C6F0;}
	.st8{fill:#0D7DE1;}
	.st9{fill:#1BD0F5;}
	.st10{fill:#23D9F6;}
	.st11{fill:#2BF2F6;}
	.st12{fill:#D1F1F3;}
	.st13{fill:#2AEEF6;}
	.st14{fill:#DAF5F3;}
	.st15{fill:#30EFF6;}
	.st16{fill:#29E2F6;}
	.st17{fill:#D9F5F3;}
	.st18{fill:#D5F3F3;}
	.st19{clip-path:url(#SVGID_00000114772788518174418160000013721493838503167400_);}
	.st20{fill:url(#SVGID_00000044896981542822736590000013275251864855600305_);}
	.st21{fill:#F28E39;}
	.st22{fill:#EF8044;}
	.st23{fill:#EE8044;}
	.st24{fill:#F39D31;}
	.st25{fill:#F7F1D2;}
	.st26{fill:#F4B32A;}
	.st27{fill:#EF8142;}
	.st28{fill:#F5C52A;}
	.st29{fill:#F5C525;}
	.st30{fill:#F4A725;}
	.st31{fill:#F18023;}
	.st32{fill:#F6E6C4;}
	.st33{fill:#F6D020;}
	.st34{fill:#F6C222;}
	.st35{fill:#F6BA39;}
	.st36{fill:#F5BF26;}
	.st37{fill:#F7ECC0;}
	.st38{fill:#F7EDC7;}
</style>
<g id="レイヤー_1">
</g>
<g id="category">
	<g>
		<g>
			<linearGradient id="SVGID_1_" gradientUnits="userSpaceOnUse" x1="58.204" y1="110.3984" x2="58.204" y2="7.3126">
				<stop  offset="8.790836e-02" style="stop-color:#FFC546"/>
				<stop  offset="0.9071" style="stop-color:#FBF499"/>
			</linearGradient>
			<path class="st0" d="M105.1,0.6H11.3c-6.1,0-11,4.9-11,11v93.8c0,6.1,4.9,11,11,11h93.8c6.1,0,11-4.9,11-11V11.6
				C116.1,5.5,111.2,0.6,105.1,0.6z"/>
			<g>
				<path class="st1" d="M109.1,12c0,29.4,0.1,58.8,0.1,88.2c0,1.6,0.4,3.3-0.8,4.8c-2.3-2.1-1.6-4.9-1.7-7.5c-0.1-2,0.3-4-0.3-5.9
					c-1-3.7,0.1-7.8-1.6-11.4c-2.1-3.2-4.8-5.6-7.8-7.9c-0.7-0.7-1.2-1.6-1.2-2.6c0-1,0.4-2,0.8-2.9c0.8-4.4,0.7-8.9,0-13.3
					c-2.3-13.5-9.9-23-21.9-29.2c-3.4,0.6-4.4-3.9-7.6-3.8c-1.5,0.4-2.9,0.2-4.4,0.1c-14.9-1.1-27.1,3.8-36,16.2
					c-5.5,7.6-8.9,7.5-14.1-0.4c-0.5-0.7-0.9-1.4-1.1-2.2c-0.1-0.8,0-1.5,0.3-2.2c5.1-4.4,8.5-10.4,14-14.5
					c6.8-5,14.6-7.4,22.1-10.6c18.1-0.1,36.3-1.3,54.4,0c-1,1.4-2.6,1.4-4,1.4c-6.9,0.1-13.8-0.1-20.9,1.3
					c6.8,2.4,12.4,6.6,17.5,11.4c5.1,4.8,8.7,10.8,12.1,18.1c0-7.8-0.1-14.6,0-21.4c0-2.1-0.5-4.4,1.5-6
					C108.6,11.9,108.9,11.9,109.1,12z"/>
				<path class="st2" d="M108.4,11.8c0,10.1,0,20.1,0,30.2c-0.5,0.2-0.9,0.4-1.4,0.6c-6.6-16.2-17.5-27.7-35.2-33.8
					c11.2-2.4,20.8-1.7,30.4-2C105.5,7,107.5,8.8,108.4,11.8z"/>
				<path class="st3" d="M47.9,6.9c-1.3,2.4-3.8,3.1-6.1,3.9c-10.3,3.3-18.8,9-25.1,18c-1.1,1.5-2,3.6-4.5,3.1
					c-2.6-4-1.4-8,0.3-11.8c1-2.5,0.9-3.8-2-3.9c-3.4-0.1-4-2.2-3.7-5c1.7-2.8,4.1-4.6,7.4-4.6C25.4,6.7,36.6,6.8,47.9,6.9z"/>
				<path class="st4" d="M6.7,11.2c0.3,3,1.9,4,4.9,3.8c3.4-0.2,5.9,0.3,2.6,4.6c-2.8,3.6-2,8.1-2,12.3c0,0.7,0,1.4,0,2.1
					c-1.2,1.2-2.5,2.3-3.3,3.9c-0.6,0.8-1.3,1.3-2.3,1c-0.1-9-0.2-17.9-0.3-26.9C6.4,11.7,6.5,11.4,6.7,11.2z"/>
				<path class="st5" d="M6.6,38.8c0.5-0.3,1.1-0.6,1.6-0.9c4.5,1.9,8.3,4.8,12.2,7.6c0.3,0.4,0.4,0.9,0.5,1.4
					c-0.6,6.6-2,12.9-0.8,19.7c4.6,26.5,35.2,40.5,57.8,26.2c5.1-3.2,9.2-7.4,12.7-12.4c1.2-1.7,2.2-3.8,4.6-4.3
					c0.6,0,1.1,0.1,1.6,0.4c2.9,2.8,3.1,6.3,2.5,10c-1.5,8-7,12.4-13.9,15.5c-8.7,3.9-17.9,6.3-27.4,7.2c-0.8,0.1-1.6-0.1-2.2,0.6
					c-4.9,0-9.8,0-14.8,0c-14.6-6-25.7-15.7-32.5-31.3c0.1,2.9,0.1,5.1,0,7.2c0,2.3,0.1,4.7-0.1,7c-0.1,1.8,0.7,4.1-2,4.9
					C6.5,78.1,6.6,58.4,6.6,38.8z"/>
				<path class="st6" d="M6.5,97.7c1.5-5.4,0.3-10.8,0.7-16.2c0.1-1.9,0-3.8,0.5-5.8c3.5,4.1,4.8,9.3,8,13.5
					c5.8,7.7,13.1,13.4,21.4,17.8c1.4,0.8,3.1,1.2,3.8,3c-7.7,0.1-15.4,0.2-23.1,0.3C7.9,110.2,5.8,107.8,6.5,97.7z"/>
				<path class="st7" d="M55.7,110c6.8-3.3,14.5-3.4,21.5-6.1c3.5-1.4,6.9-2.7,10.4-4.3c5.6-2.6,8.7-7.1,10.8-12.6
					c2.1-1,2.5-3.3,3.7-5c0.8-1.2,1-3.3,3.2-3c3.5,3.5,1.4,8,2,12c-0.4,7.5-5.9,14.3-14,18.2c2.3-0.5,5.7-1.8,8.9,1
					c-6.8,1.4-13.6-0.2-20.5,0C73,110.2,64.4,110,55.7,110z"/>
				<path class="st8" d="M102.2,110.1c-3.3,0-6.5,0-9.8,0c6.4-5.6,12.5-10.9,14.9-19.2c2.1,4.6,0.3,9.5,1.2,14.1
					C106.7,107.2,105.7,110.2,102.2,110.1z"/>
				<path class="st9" d="M20.1,45.9c-4.3-2.1-8.7-4.2-11.9-8c-0.2-2.8,1.1-4.2,3.9-4c1.9,2.2,3.3,4.8,5.9,6.6
					c2.6,1.8,3.9,1.3,5.4-1.3c8.2-14.3,21-20.2,36.9-20.4c2.4,0,4.7,2,7.1,0.1c1.7,2.8-1.1,3.5-2.3,5.1c1.3,1.4,3.6,2.3,3.6,4.9
					c0.5-3.4,3.8-4,5.7-6c9.9,3.9,16.3,11.4,20.7,20.9c1.3,2.8,2.5,5.7,2.2,9c0.4,0.4,0.4,0.9,0,1.3c-2.6,0.6-3.6,2.3-3.6,5
					c0,2.9,0.5,6-0.9,8.8c-6.2,2.8-12.2-1.3-12.6-8.9c-0.3-5.5-1.6-10.4-5.5-14.5c-6.6-7-14.4-9.6-23.8-7.5
					c-1.6,0.4-3.2,0.9-4.9,0.7c-4.4-2.6-5.6-5.1-4.9-11.6c-1.4,4.4-1.9,8.3-4.6,11.1c-2.9,2.9-6.7,3.9-11.4,3.8
					c4.9,0.6,9.1,0.8,11.3,5.5c-1.2,3.5-3.7,1.4-5.7,1.2C27.1,47.6,24.1,44.3,20.1,45.9z"/>
				<path class="st10" d="M20.1,45.9c-0.2-2.7,0.9-2.8,3.2-2c4.1,1.5,8,4,12.7,2.8c2.7,0.3,2.9,2.6,3.7,4.5c0.7,1.6,0.6,3.5,1.4,5.1
					c1.3,0.1,1.1-1.1,1.2-1.7c1-6.7,4.8-10.2,11.5-10.8c1-0.1-0.5-0.6-0.3-1.1c0.2-0.8,0.2-1.5,0-1.6c-2.9-0.7-6.6,0-7.6-4.2
					c11.4-3.8,21.6-2.4,30.1,6.9c3.6,4,5.8,8.5,5.4,13.9c-0.4,6.8,3.4,10.2,11,10.2c2-0.7,2.9,0.8,3.9,2c0.4,0.7,0.7,1.3,1.1,2
					c3.1,3,2.9,3.9-1,5.1c-0.3,0-0.6,0-1-0.1c-3.4-2.9-7.3-4.9-11.5-6.4c-0.6-0.3-1.1-0.8-1.8-0.9c-7.8-1.3-11.1-6.5-12.1-13.8
					c-2.7-4.8-6.2-7.8-12.2-7.6c-9.7,0.3-12.3,7-11.4,14.9c0.6,5.6,4.7,7.4,11.5,5.6c9.2,0.7,11.2,2.7,14,14.1
					c-0.1,0.9-0.7,1.7-1.5,1.5c-4.4-1.3-7.9,0.4-11.3,2.9c-1.2,0.9-2.7,1-4.1,0.2c1-1.5,0.7-2.2-1.1-2.8c-2.3-0.9-3.2-3.1-3.2-5.3
					c-0.6,2.6-0.8,5.9-5.1,5c-4.5-5.2-10.2-9.4-12.3-16.6c-1-3.6-2-7.1-1.4-10.8c0.7-4.4-1.4-6.5-5.2-7.6
					C24.2,48.6,21.8,48,20.1,45.9L20.1,45.9z"/>
				<path class="st11" d="M96.3,69.9c-1.7,0.1-2.5-1.4-3.9-2c0-3.6,0-7.3,0-10.9c0-3.7,1.5-4.9,4.9-3c0.9,4.6,0.8,9.3,0,13.9
					C97,68.6,96.6,69.2,96.3,69.9z"/>
				<path class="st9" d="M96.3,76.9c2.7-1.2,2.8-2.9,1-5.1c3.7,1.1,5.6,4.3,7.9,7c-1.9,1.9-2.4,4.5-3.8,6.7
					c-0.7,1.1-1.2,3.1-3.1,1.3C98.6,83.4,97.9,80.1,96.3,76.9z"/>
				<path class="st12" d="M74.4,23c-0.1,0.6,2.5,1.2,0.2,1.7c-3.5,0.8-4.8,3.1-5.6,6.8c-1.5-3.6-2.8-6.8-7.6-6.9
					c2.5-2.2,6.1-2.1,5.9-5.7c1.1-1.4,1.8-0.9,2.4,0.4C70.7,21.6,72,23.1,74.4,23z"/>
				<path class="st7" d="M97.3,67.9c0-4.6,0-9.3,0-13.9c0-0.4,0-0.7,0-1.1C98.9,57.9,98.9,62.9,97.3,67.9z"/>
				<path class="st9" d="M54.8,86.9c2,0.1,3.5-0.4,5.2-1.9c3.3-2.9,7.5-3,11.6-2.1c-1.8-9.1,4.5-15.5,12.9-13
					c4.4,1.2,9.1,1.8,10.9,7c-5.1,5.5-8.9,12-15.3,16.4c-23.2,16-57,1.5-61.2-26.8c-1.1-7.2,0.2-13.7,1.3-20.6
					c2.7,0.7,5.4,1.2,8,2.2c3.6,1.4,6,3.1,5.2,8.4c-1.5,8.9,2.5,16.4,9.1,22.3c1.6,1.4,3.4,2.6,3.5,5.1c0.1,2.9,4.1,2.6,4.1,5.5
					C51.8,88.6,52.4,86,54.8,86.9z"/>
				<path class="st13" d="M25.1,89.6c0,1.8,0.1,4-2.4,4c-2.5,0.1-2.6-2-2.6-3.9c0-1.8-0.4-3.8,2.4-3.9
					C25.2,85.8,25.1,87.7,25.1,89.6z"/>
				<path class="st14" d="M40.9,57.9c-3.1-3-1.3-8.3-4.9-11.1c-2.8-3.9-7.5-3.6-11.8-5.7c9.5-1,15-6,15.6-16.8
					c2.8,4.8,1.8,10,6.1,12.6c2.7,3.1,6.9,2.4,10.1,4.1c-0.3,1.5-2,0.8-2.6,1.7c-0.6,1.2-1.8,1.4-2.9,1.6c-4.6,1-6.8,4.3-7.7,8.6
					C42.5,54.8,42.2,56.5,40.9,57.9z"/>
				<path class="st15" d="M80.5,38.5c0-2.1,0.8-3.7,3.1-3.4c2.6,0.3,2,2.8,2.1,4.3c0.1,1.4-0.1,3.6-2.5,3.4
					C80.5,42.7,80.5,40.6,80.5,38.5z"/>
				<path class="st16" d="M57.7,69.9c-7.3,3.1-13.3-1.1-12.8-9.3c0.3-4.9,0.7-10.3,6.4-12.3c5.9-2,11.9-3,16.8,2.7
					c1.2,1.4,2.9,2.3,3.4,4.2c-0.6,1.2-0.5,2.6-0.7,3.9c-0.7,5.7-3.7,8.9-9.4,9.8C60.1,69.1,58.8,69,57.7,69.9z"/>
				<path class="st17" d="M57.7,69.9c0.1-0.3,0.2-0.8,0.4-0.8c8-1.2,11.5-6.7,13.4-13.9c0.6,8.2,2.6,10.6,10.4,12.8
					c1.1,0.3,2.3,0.5,2.6,1.9c-9.4,1.1-11.2,3-12.9,13c-1.3-0.5-1.3-1.8-1.6-2.9C67.7,72.1,66.2,70.8,57.7,69.9z"/>
				<path class="st18" d="M54.8,86.9c-2.5,1-3.6,3.1-4.6,5.5c-0.9-2.7-1.5-5.7-5.1-5.8c-0.8,0-1.8-0.5-1.3-1.5
					c0.3-0.6,1.3-0.8,2-1.2c3.6-0.4,3.4-3.7,4.7-6.6c1,4,2.7,6.8,6.8,7.7C56.3,85.8,55.5,86.3,54.8,86.9z"/>
				<path class="st9" d="M40.9,57.9c2.1-11.6,4.2-14.1,12.6-15.1c1.1,0.1,2.2,0.3,3.4,0.4c-0.3,2.1-1.9,1.6-3,1.8
					c-5.7,0.9-9.7,3.4-10.2,9.9c-0.1,1.5-0.8,3.6-1.9,4.3C40,60.4,40.8,58.6,40.9,57.9z"/>
			</g>
		</g>
		<g>
			<defs>
				<polygon id="SVGID_00000125602792993923494310000014375335763549441945_" points="116.1,0.6 -0.1,0.6 -0.1,81 116.1,40.3 				
					"/>
			</defs>
			<clipPath id="SVGID_00000024696699075592866150000001684976523493982606_">
				<use xlink:href="#SVGID_00000125602792993923494310000014375335763549441945_"  style="overflow:visible;"/>
			</clipPath>
			<g style="clip-path:url(#SVGID_00000024696699075592866150000001684976523493982606_);">
				
					<linearGradient id="SVGID_00000155848918604021459270000015663384613348996999_" gradientUnits="userSpaceOnUse" x1="58.204" y1="110.3984" x2="58.204" y2="7.3126">
					<stop  offset="8.790836e-02" style="stop-color:#FFC546"/>
					<stop  offset="0.9071" style="stop-color:#FBF499"/>
				</linearGradient>
				<path style="fill:url(#SVGID_00000155848918604021459270000015663384613348996999_);" d="M105.1,0.6H11.3c-6.1,0-11,4.9-11,11
					v93.8c0,6.1,4.9,11,11,11h93.8c6.1,0,11-4.9,11-11V11.6C116.1,5.5,111.2,0.6,105.1,0.6z"/>
				<g>
					<path class="st21" d="M109.5,52.6c0.4,2.4,0.5,4.8,0,7.2c-0.4,0.2-0.8,0.3-1.2,0.3c-4.1,1.2-5.9,5.1-8.9,7.5
						c-3,2.3-4.2,2.2-6.4-1c4.9-4,10.3-7.4,12.1-14.1c1.9-6.7-1.4-12.2-4.3-17.8c-0.8-1.6-2.1-1.2-3.3-0.1c-1.6,1.5-2.9,3.1-3.3,5.4
						c-0.2,1.3,0,3.2-2.4,2.8c-1.9-4.4-1.3-8.3,1.8-12c1.2-1.4,3.7-3,0.8-5.2C86.1,17.5,75.9,12.7,65,9.8C59.7,8.4,54.2,9,48.6,10.6
						C36.1,14.2,26.8,22.6,17,30.3c-2,1.5-2.3,3.7-2.4,5.7c-0.5,6.8-4.3,12.5-6,18.8c-0.1,0.5-0.7,0.6-1.2,0.7
						c-0.5-3.3-0.4-6.6,0-10c0.6-3.8-1.2-7.4-0.7-11.3c0.3-2.2,0.6-4.1,1.9-6C13.7,21,20.1,15,26.9,9.2c2.7-2.3,5.9-1.3,8.7-2.4
						c14.5-0.4,29-0.4,43.6,0c2.7,1,5.6,0.2,8.3,0.5c7.6,4.8,14,10.9,19.5,18c1.1,1.4,2.4,2.8,2.4,4.8
						C109.5,37.6,109.2,45.1,109.5,52.6z"/>
					<path class="st22" d="M35.6,6.8c-9.8,2.7-15.8,10.5-22.4,17.4c-4.4,4.6-6.3,10.1-5.4,16.6c0.2,1.6,0.5,3.3-0.6,4.8
						C7.1,44.3,7,43,6.8,41.8c0-8.4-0.1-15-0.3-20.9c-0.1-3.1-0.3-7.2,2.5-10.3c1.7-2,4-2.8,4.8-3.1c3.1-1.1,5.8-0.8,7.4-0.6
						C24.4,7.1,29.2,7.4,35.6,6.8z"/>
					<path class="st23" d="M109.5,52.6c-1.4-7.9-0.2-15.9-0.7-23.8c-0.2-0.3-0.5-0.6-0.5-0.9c0.1-8.3-6.2-12-11.3-16.8
						c-2.7-2.6-6.5-0.8-9-3.2c-3-0.4-6.1,1-8.9-1c6.2-0.1,12.5-0.2,18.7-0.2c10,0,11.3,1.3,12,11.2C109.8,29.4,109.7,41,109.5,52.6z
						"/>
					<path class="st24" d="M7.3,55.6c1.8-7.9,5.9-15.2,6.7-23.4c0.1-0.9,0.8-1.8,1.5-2.4C26.1,20.5,37.2,12,50.8,8.3
						C56,6.8,61.9,7,67.7,9.2c8.5,3.2,16.9,6.3,23.9,12.3c1.3,1.1,2.2,2.4,3.5,3.4c-3,4.6-5.6,5.7-10,3.8c-3.4-1.4-7.8-1.4-8.9-6.6
						c-0.6-2.6-2.1-0.7-2.9,0.5c-1,3.2-2.9,4.3-6.3,3.7c-3.2-0.6-6.1-1.6-8.3-4c-2-2.2-3.7-2.9-5.8,0.1c-2.1,3-5.2,2.8-8.4,1.5
						c-8.1-3.2-7.8-3-12.7,3.9c-3.7,5.2-6,10.6-6.5,16.9c-0.3,3.9-2.2,6.1-6.1,6.6c-1.3,0.2-2.6,0.5-3.9,0.8
						c-1.7,0.5-3.3,1.4-3.2,3.3c0.1,2.5,2.2,1.2,3.5,1.3c3.4,0.3,4.9,2.3,3.9,5.4c-1.5,4.8-1.2,9.5-0.7,14.3
						c-0.8,3.4-3.5,5.5-5.3,8.3c-0.8,1.3-1.3,2.7-0.3,4.1c1,1.4,2.8,1.9,3.9,1c5.4-4,9.8-1.1,14.4,1.7c1.4,0.8,3.1,1.2,4.4,2.2
						c2.7,3.8,6.5,3,10.2,2.5c1.9,0.7,3.8,0.7,5.7,0c3.5-1.2,7-1.1,10.5,0.1c3.4,1.5,6.2,0.5,9.2-1.7c2.9-2.1,5.1-5.2,8.7-6.3
						c2.2,2.9,2.8,6.7,5.2,9.6c0,0.6-0.7,1.6,0.8,1.4c1.2-0.2,2.5-0.7,3.3,0.8c0.2,3-2,4.3-4,5.6c-3.2,1.9-6.6,3.4-10.2,4.4
						c-8.4,0-16.9-0.7-25.2,0.2c-10.9,1.1-19.5-3.3-27.6-9.6c-3.2-2.5-6.4-4.6-10.2-5.9c-3.5-1.2-5.1-3.6-5-7.5
						C7.5,81.1,7.7,75,7.2,68.9C6.9,64.4,6.8,60,7.3,55.6z"/>
					<path class="st23" d="M7.2,68.9c1.5,5.9,0.5,11.8,0.6,17.8c0.1,3,0.7,5.6,3.7,6.2c6.9,1.5,11.6,6.6,17.1,10.3
						c6.8,4.4,13.5,7.4,22,6.7c8.5-0.7,17.1-0.2,25.6-0.2c3.4-1.6,7-1.4,10.6-1.4c3.2,0.1,6.2-0.4,8.9-2.2c5-3.3,10.3-6.2,11.7-12.8
						c-0.1-4.6,0-9.3,0-13.9c-0.3-4.7-0.1-9.4-0.1-14.2c0-1.9,0-4,1.6-5.4c0.2,0,0.4,0,0.5,0c0.1,14.3,0.3,28.6,0.2,42.9
						c0,4.1-2.6,6.7-6.8,7.4c-1.9,0.3-3.9,0.4-5.9,0.4c-25.7,0-51.4,0-77.1,0c-10.9,0-13-2.1-13-13.1C7,87.8,7.2,78.3,7.2,68.9z"/>
					<path class="st25" d="M72.2,21.8c1.2-1.2,1.1-4.1,3.4-3.6c1.6,0.3,2,2.6,2.1,4.2c0.2,3,2.6,2.6,4.2,3.7c4.9,3.2,9,2.2,13.1-1.2
						c1.8,0,3.5,0.1,2.4,2.7c-0.4,0.9-0.6,2.1-1.3,2.6c-4.8,3.2-4.2,8-4.1,12.7c0.6,5.2-3.6,7.3-6.8,10.3c1.5,2.3,4,2.6,6.2,3.2
						c2.4,0.6,2.5-1.5,2.9-3c0.7-3,2.8-4.4,5.7-4.5c3-0.1,5.1,1.1,5.7,4.3c-1,5.3-8.1,13-12.7,13.8c-3.2,0.7-5.6-1.4-8.3-2.4
						c-1.2-0.4-2.3-1.3-3.7-1.2c-0.9,0.1-1.5,0.7-1.8,1.5c-0.2,0.7-0.1,1.5,0.6,1.6c6.5,1.4,6.5,7.2,7.7,12c0.6,2.2,1.1,3.5,4,2.4
						c5.7-2.2,7.9-0.5,8.6,6c-1.8,5.7-9.1,11.5-14.8,11.8c-4.2-1.8-4-6.3-5.5-9.7c-2.6-2-2.3-5.4-3.7-8c-4.3-3.2-9.8-2-11.3,2.8
						c-1.1,3.7-2.7,6.8-6.9,6.3c-5.8-0.6-10,1-12.6,6.4c-3.9,3.2-7.1,2.3-9.8-1.7c-1.9-4.3,1.2-8.1,1.1-12.2c0-0.7-0.4-1.2-0.9-1.6
						c-6-4.8-6.6-7.3-3.5-14.5c2.3-1.1,3.3-5.4,7-2.6c0.1,6.7,1.1,7.4,7.2,4.6c1.3-0.6,2.7-1.6,4.1-1.6c4.3,0,5.9-2.9,7.1-6.3
						c0.3-1,1.7-2.2,0.1-3c-1.4-0.7-2.9-0.1-3.8,1.3c-0.3,0.4-0.4,0.9-0.4,1.4c0,3.4-1.1,6-4.7,6.5c-3.7,0.6-6.4-0.9-7.9-4.5
						c0.9-5.9,4.5-10.5,8.7-14.1c4.8-4.1,10.8,0.5,16.3-1c-2.8-6-2.9-12,1.4-17.6C69.4,27.3,72.6,25.7,72.2,21.8z"/>
					<path class="st24" d="M99.2,86.7c-1-6.2-3.5-7.6-8.4-4c-2.4,1.7-3.2,1.6-3.8-1.3c-0.4-2.3-1.3-4.5-1.6-6.7
						c-0.5-5.2-2.8-8-8.4-7c1.3-7.3,1.6-7.4,7.9-4.5c2.7,1.2,5.4,2.4,8.1,3.7c2.4,2.2,4.3,1.4,6.2-0.8c2.1-2.4,4.4-4.5,6.6-6.7
						c1.2-1.1,2.4-2.3,3,0.5c0,6.7-0.1,13.3-0.1,20c-2.5,2.3-2.7,6.7-6.7,7.6C101.2,87.1,100.1,87.2,99.2,86.7z"/>
					<path class="st24" d="M105.8,53c-5.4-5.4-8-4.6-10.2,2.9C95.2,57.5,94,59,92,58.1c-3.2-1.4-6.8-2.3-10.2-5.1
						c5.3-2,8.6-5.4,10.4-10.3c1-3.9,1.8-7.6,5.3-10.3c1.5-1.1,2.3-1.7,3.5-0.1c3.8,5.1,5,11.3,6.6,17.3
						C107.7,50.5,106.4,51.9,105.8,53z"/>
					<path class="st22" d="M88.1,7.8c3.1,0.7,6.5-1.4,9.3,1.6c5.2,5.6,14,9,11.5,19.3c-4.4-4.6-8.9-9.1-13.1-13.8
						C93.4,12.3,89,11.9,88.1,7.8z"/>
					<path class="st26" d="M32.6,66.7c-1.7,8.5-1.7,8.5,5.9,13.6c0.2,0.2,0.1,0.9,0.1,1.4c-6.5,4.5-8.1,4.5-13-1.6
						c-2.2-2.7-5-2.7-7.8-3.4c-1.5-4.9-1.5-9.8,0.3-14.6c1.3-3.5-0.3-4.6-3.6-4.2c-1.5,0.2-3.6,2.8-4.4-0.3
						c-0.7-2.6,0.2-5.3,3.1-6.6c0.4-0.2,0.9-0.2,1.4-0.4c8.4-1.8,8.8-1.8,9.8-10.1c0.6-4.9,2.7-8.7,5.4-12.5c0.4-0.5,1-0.9,1.3-1.5
						c1.3-2.6,1.4-6.9,4.4-7.2c2.9-0.3,6.3,1.6,9.1,3.2c3.7,2.1,6.1,1.3,8.1-2.2c1.5-2.7,3.2-2.9,5.3-0.5c2.4,2.8,5.2,4.5,9.1,5.2
						c3.5,0.6,4.1-1.1,5-3.2c0.2,3.4-0.5,6.4-3.9,8c-3.7-0.4-6.8-2.2-9.8-4.1c-2.4-1.5-3.9-2-5.4,0.9c-1.1,2.2-3.1,3.3-5.5,3.7
						c-4.1,0.3-5.3-4.1-8.5-5.3c-2.9,0.3-4.5,2.1-5.4,4.6c-0.1,0.4-0.3,0.8-0.5,1.3c-0.2,3.9-1.1,7.5-4.8,9.8
						c-1.8,1.1-1.6,3.1-0.8,4.9c0.7,1.7,2,3.1,2,5c-0.2,3.5-3,5.8-4.3,8.7c-1,2.2-3.1,4.4-1.1,6.8c1.7,2.1,4.2,1.2,6.4,0.6
						C31.3,66.5,32,66.4,32.6,66.7z"/>
					<path class="st27" d="M101,86.7c2.3-0.2,3.3-1.8,4.2-3.6c0.8-1.6,1.4-3.4,3.6-3.4c0,5,0,10,0,15c-4,3.9-7.3,8.6-11.8,12
						c-3.4,3.9-8,2.9-12.4,3c-2.8,0-5.6-0.1-8.4-0.1c1.9-2.7,5.4-2.6,7.9-4.3c2.1-1.5,4.5-2.6,5-5.5c0.4-2.2,2.3-3.2,3.9-4.2
						C96.5,93.3,99.3,90.6,101,86.7z"/>
					<path class="st28" d="M17.8,76.7c2.5-1.3,5.4-2,7,0.8c3.5,5.7,7.7,7.8,13.8,4.2c-1,4.3-2,8.6-3.1,12.9
						c-3.2-1.3-6.4-2.4-9.2-4.5c-2.1-1.6-4.3-2.1-6.7,0.1c-2.3,2.2-5.2,2.4-7.5,0.1c-2.5-2.5-1.4-5,0.8-7.3
						C14.8,81,16.2,78.8,17.8,76.7z"/>
					<path class="st29" d="M77.5,80.7c0.8,2.7,1.6,5.5,2.3,8.2c-2.6,4.4-7.2,6.4-11,9.3c-1.8,1.4-4.4,0.7-6.4-0.5
						c-2.9-2.9-3.5-5.9-0.1-8.9c0.5-0.4,0.9-1,1-1.6c1.1-7.7,8-5.4,12.4-7.3C76.3,79.6,76.9,80.3,77.5,80.7z"/>
					<path class="st30" d="M77.5,80.7c-3.9-1.2-6.6,4.7-10.9,1.8c-0.4-0.3-1,1.1-1.2,1.9c-0.7,2.4-1.5,4.6-3.4,6.5
						c-2.4,2.3,0.6,4.6,0.5,6.9c-3.8-1.4-7.6-1.3-11.3,0.3c-2.4,1-4.4,1.1-5.7-1.6c0.5-5.7,3.1-8.6,9.2-7.7c5.3,0.8,8.5-1.1,9.5-7
						c1-5.7,6.3-3.1,9.7-4.1C76.2,77,77.6,78,77.5,80.7z"/>
					<path class="st31" d="M101,86.7c0.1,4.9-3.5,7-6.8,9.4c-1.7,1.2-3.4,2.4-5.1,3.7c-1.5,0.7-3,1.6-4.5,0.5
						c-1.6-1.2,0-1.3,0.8-1.7c5.3-3.2,11.4-5.4,13.9-11.9C99.8,86.5,100.4,85.6,101,86.7z"/>
					<path class="st32" d="M17.6,32.1c1.3,0.6,2.1,1.5,1.8,2.7c-0.2,0.9-1,1.9-2,1.5c-0.8-0.3-1.8-1.2-1.9-2
						C15.5,33.2,16.7,32.6,17.6,32.1z"/>
					<path class="st22" d="M97,106.7c4-3.9,6.4-9.5,11.8-12C106.4,100.1,102,103.8,97,106.7z"/>
					<path class="st33" d="M32.6,66.7c-1.8,1.6-3.9,2.3-6.4,2c-3.7-0.4-5.3-2.8-3.8-6.2c1.9-4,4.1-7.9,6.2-11.8
						c1.8-3.1,4.9-2.6,7.5-2.1c10,1.9,8.4-1.8,6.4-8.9c-0.3-1-1-1.7-1.4-2.6c-1.2-5.4,3.3-5.9,6.3-7.7c2.4-0.8,4.3-1.8,5.2-4.7
						c0.8-2.7,2.7-3.7,5.1-1c2.8,3.2,7.6,3,10.5,6.1c-4.1,6-4.2,12.3-0.3,18.8c-4.6,0.3-8.7,0.1-12.7-0.5c-3-0.5-5.4,0.3-7,3.1
						c-2.2,3.8-5.9,6.8-6.6,11.4c-0.5,1.2-1.2,1.9-2.5,1C36.2,62.8,35,66.1,32.6,66.7z"/>
					<path class="st34" d="M39.2,63.7c0.8-0.3,1.7-0.7,2.5-1c1,0.9,1.9,1.9,3,2.5c3.8,2.1,7.3-0.1,7.3-4.4c0-4.4,4.3-7.1,8.1-5.2
						c1.3,0.7,1,1.5,0.4,2.3c-1.8,2.4-2.9,5.2-3.7,8c-0.2,0.8-0.6,1.8-1.6,1.6c-4.6-0.7-8.2,1.9-12.1,3.6c-1.8,0.8-3.7,0.5-4.9-1.3
						C36.8,67.7,37.4,65.5,39.2,63.7z"/>
					<path class="st35" d="M43.6,79.7c2.5-2.3,4.6-4.2,6.6-6.1c1.5-1.4,3-2.6,5.2-1.9c1.3,0.4,1.1,1.6,0.7,2.5
						c-1.1,2.1,0.5,6-3.4,6.3C49.9,80.7,46.9,81.2,43.6,79.7z"/>
					<path class="st36" d="M41.6,36.8c4.7,2.4,3.6,7.5,4.2,11.3c0.3,2.3-3.8,3.1-6.5,2.4c-3.6-0.9-7.1-1.3-10.6,0.3
						c0.1-1.8-1.5-2.8-2.1-4.3c-0.9-1.9-1.7-4.5-0.1-5.5c4.5-2.6,5.1-6.9,6.3-11.2C38,29.1,39.4,33.5,41.6,36.8z"/>
					<path class="st37" d="M41.6,36.8c-0.5,0.5-1.5,0.9-1.6,0.3c-0.8-4.1-4.2-5.5-7.3-7.3c0,0-0.1,0-0.1,0c1.7-2.6,4.9-3.6,6.7-6.1
						c1.4-1.4,1.8-0.4,2.3,0.9c1.1,2.6,3,4.2,5.8,4.7C46.3,32.4,41,32.2,41.6,36.8z"/>
					<path class="st36" d="M39.4,23.8c-0.2,4.3-3.8,4.8-6.7,6.1C33.2,25.8,35.5,23.9,39.4,23.8z"/>
					<path class="st38" d="M33.3,44.1c-2-0.1-1.6,5.1-4.8,1.8c-1.3-1.4-1.5-2-0.1-3.5C31.6,39.2,31.5,44,33.3,44.1z"/>
				</g>
			</g>
		</g>
	</g>
</g>
</svg>
