<?xml version="1.0" encoding="utf-8"?>
<!-- Generator: Adobe Illustrator 26.5.1, SVG Export Plug-In . SVG Version: 6.00 Build 0)  -->
<svg version="1.1" xmlns="http://www.w3.org/2000/svg" xmlns:xlink="http://www.w3.org/1999/xlink" x="0px" y="0px"
	 viewBox="0 0 115.8 115.8" style="enable-background:new 0 0 115.8 115.8;" xml:space="preserve">
<style type="text/css">
	.st0{fill:url(#SVGID_1_);}
	.st1{fill:#EE4F4F;}
	.st2{fill:#E8787A;}
	.st3{fill:#E68080;}
	.st4{fill:#F17172;}
	.st5{fill:#F16E6E;}
	.st6{fill:#F06363;}
	.st7{fill:#EF5E5E;}
	.st8{fill:#EE5151;}
	.st9{fill:#EF5C5D;}
	.st10{fill:#EF5959;}
	.st11{fill:#F06161;}
	.st12{fill:#F06464;}
	.st13{fill:#EF5A5A;}
	.st14{fill:#F16D6D;}
	.st15{fill:#F27A7A;}
	.st16{fill:#F6E3EF;}
	.st17{fill:#F49797;}
	.st18{fill:#F5A1A1;}
	.st19{fill:#F38080;}
	.st20{fill:#F49595;}
	.st21{fill:#F6E8F5;}
	.st22{fill:#F38181;}
	.st23{fill:#F28A8C;}
	.st24{fill:#F6E1ED;}
	.st25{fill:#E96464;}
	.st26{fill:#EF8788;}
	.st27{fill:#F5A0A0;}
	.st28{fill:#F6E9F5;}
	.st29{fill:#ED8080;}
	.st30{fill:#EE8385;}
	.st31{fill:#EB7778;}
	.st32{fill:#F6ADAC;}
</style>
<g id="レイヤー_1">
</g>
<g id="レイヤー_15">
	<g>
		<linearGradient id="SVGID_1_" gradientUnits="userSpaceOnUse" x1="57.925" y1="109.8234" x2="57.925" y2="6.7375">
			<stop  offset="8.790836e-02" style="stop-color:#FFC546"/>
			<stop  offset="0.9071" style="stop-color:#FBF499"/>
		</linearGradient>
		<path class="st0" d="M104.8,0H11C4.9,0,0,4.9,0,11v93.8c0,6.1,4.9,11,11,11h93.8c6.1,0,11-4.9,11-11V11C115.8,4.9,110.9,0,104.8,0
			z"/>
		<g>
			<path class="st1" d="M7.7,8.8c0.9-2.1,2.5-3.2,4.8-3.2c5.9-0.9,11.8-0.2,17.7-0.4c2.9,0.2,1.6,1.9,0.9,3
				c-1.5,2.2-3.4,4.1-5.5,5.7c-5.3,4.1-9.3,9.4-13.4,14.5c-1.5,1.9-3,4.7-5.6,1.1C5.9,22.6,5.8,15.6,7.7,8.8z"/>
			<path class="st1" d="M104.6,5.6c2.4,0.4,3.8,2,4.9,4c1.8,5.9,0.7,12,1,18c-1.6,2.8-3.2,1.4-4.7,0c-1.8-1.7-3.2-3.8-4.7-5.8
				c-2.9-3.8-5.9-7.4-10.3-9.8c-3.5-2-3.7-4.1-1.4-6.7C94.5,5.4,99.6,4.7,104.6,5.6z"/>
			<path class="st2" d="M7.7,8.8c0,7.3,0,14.5,0,21.8c0.9,1,1.3,2.2,1.4,3.5C8.9,43.5,9.6,53,9.2,62.4c0.3,4,0.3,8.1-0.1,12.1
				c-0.1,2.5,0.4,5,0,7.5C9.4,87.5,9.4,93,9.3,98.6c0,2.1,0.1,4.3-1.7,5.9c-0.4-0.7-0.8-1.3-1.2-2c-0.1-0.3-0.3-0.6-0.3-0.9
				c0-17.9-2.3-35.9-0.8-53.7c1-12.4-0.2-24.8,1.2-37.2C6.8,10,6.8,9.1,7.7,8.8z"/>
			<path class="st3" d="M109.4,28.6c0-6.3,0.1-12.7,0.1-19c0.3,0.4,0.6,0.7,0.9,1.1c0.7,1,0.5,2.2,0.5,3.4c0,28.7,0,57.4,0,86.1
				c0,1.1,0.2,2.3-0.5,3.4c-0.3,0.3-0.7,0.7-1,1c-2.5-2.8-1.6-6.3-1.7-9.5c-0.1-3.5-0.2-7,0.2-10.4c-0.4-8.9-0.4-17.8,0.1-26.7
				c0.1-5.6-0.1-11.2-0.2-16.8c0.3-1.2,0.2-2.4,0.2-3.7C108.1,34.5,107.1,31.3,109.4,28.6z"/>
			<path class="st4" d="M104.6,5.6c-5.3,0.1-10.7,0.2-16,0.3c-5.7,2.8-11.6,1.2-17.5,1.3c-1.5,0-3-0.1-4.6,0.1c-3,0.1-6,0.1-9,0
				c-2.1-0.4-4.3,0.4-6.4-0.1C46.5,7,42,7.7,37.4,7.4c-2.1-0.1-4.3,0.1-6-1.5c-6.3-0.1-12.6-0.2-18.9-0.3c1.3-1,2.8-0.7,4.3-0.7
				c27.8,0,55.7,0,83.5,0C101.7,4.9,103.3,4.6,104.6,5.6z"/>
			<path class="st5" d="M7.6,74.7c0-4,0-8,0-12c3.3-4.6,4.1-9.2,1.7-14.8c-2.7-6.4-0.5-11.9,5-16c2.3-1.1,4.6-2.7,7.4-1.3
				c0,4.1-3.5,6.6-4.7,10.2c-1.1,3.2-2.3,6.3-1.9,9.7c0.7,6.1-1.7,12.1,0.1,18.3c9.1,30.5,43.5,43,69.1,24.5
				c1.9-1.4,3.7-2.9,5.5-4.3c1.4-1.1,2.9-2.5,4.8-0.6c0.7,3.2-1.4,5.4-3.1,7.5c-4.4,5.4-10.1,8.6-17.1,9.2c-3.4,0.3-6.7,0.6-8.9,3.7
				c-6.7,0-13.3,0-20,0c-2.3-4.5-5.9-6.1-11-5.9C26,102.9,20.4,98,19.4,89.5c-0.5-4.6-2.5-7.7-6.5-9.8C10.6,78.6,8.9,76.8,7.6,74.7z
				"/>
			<path class="st6" d="M65.5,108.6c-0.9-4.8,3.4-4.8,5.6-4.8c11.3,0,18.4-5.8,23.4-15.3c0.2-2.2,2-3.4,3.2-4.8
				c4.3-5.2,6.6-11,6.2-17.8c-0.2-2.5-0.2-5,1.5-7.1c1.1-1,2.1-2.5,4-1.2c0,9,0,18,0,27c-3.5,2.5-7.5,4.2-10.2,7.8
				c-1.2,1.6-2.6,3-3.6,4.7c-4.2,7.1-3.3,8.9,4.8,9c2.1,0,4.4-0.4,6.1,1.4c-1.1,1.3-2.7,1.2-4.1,1.2
				C90.1,108.8,77.8,108.7,65.5,108.6z"/>
			<path class="st7" d="M7.6,74.7c3,1.9,6.2,3.7,9.1,5.8c2.5,1.8,3.9,4.3,3.9,7.6c0.1,8.2,5.5,14.1,15.9,13.1
				c5.3-0.5,9.2,2.7,9.1,7.5c-10.3,0.1-20.5,0.1-30.8,0.2c-1.5,0-3,0.1-4.1-1.2c3.1-2.5,6.7-1.1,10.1-1.4c2-0.2,4,0.1,6-0.3
				c-5.3-0.5-8.1-3.8-9.7-8.5c-2-5.9-6.3-10.5-9.5-15.7C7.6,79.3,7.6,77,7.6,74.7z"/>
			<path class="st1" d="M106.5,107.6c-4.3,0-8.6,0-12.9,0c-1.4,0-2.4,0-2.3-2.1c0.2-8.6,9.5-19.5,18.1-20.9c0,6.6,0,13.3,0,19.9
				C108.8,105.9,107.9,107,106.5,107.6z"/>
			<path class="st8" d="M7.6,81.6c5.4,3.6,8.7,9,10.7,14.9c1.7,5.1,4.5,7.8,9.7,8.1c1.3,0.1,3.1,0.1,2.9,1.9
				c-0.2,1.8-2.1,1.1-3.3,1.1c-5.6,0.1-11.3,0-16.9,0c-1.4-0.6-2.4-1.7-3-3.1C7.6,96.9,7.6,89.3,7.6,81.6z"/>
			<path class="st9" d="M21.6,30.7c-2.3,0.7-4.7,1.3-7,2c-2.2,1-4.3,3-7,1c0-1,0-2,0-3c4.1-0.6,4.4-4.7,6.3-7.2
				c5.2-6.5,12.4-11,17.5-17.6c6.7,0,13.4,0,20.1,0c-1.3,4.8-5.5,4.5-9.1,5.1c-2.7,0.5-5.6,0.2-8.4,0.1c-3.8-0.1-6,1.4-5.9,5.5
				c0.2,2.7-0.6,5.2-1.2,7.8C25.9,27.1,24.9,29.8,21.6,30.7z"/>
			<path class="st10" d="M70.6,5.9c6,0,12,0,18,0c-0.3,2.1,0.7,3.8,2.3,4.5c6.9,3.2,10.4,9.7,15,15.1c1,1.2,1.5,3.1,3.5,3.1
				c0,3,0,6,0,9c-2.8,1.4-3.8-0.9-4.9-2.6c-2.8-4.2-5.1-8.7-7-13.4c-1-4.3-3.8-5.8-8-5.6c-5.9,0.4-11.4-0.9-16.4-4.2
				c-0.4-0.3-0.8-0.6-1.2-0.9C71.1,9.5,69.1,8.1,70.6,5.9z"/>
			<path class="st11" d="M7.6,33.7c2.3-0.3,4.6-0.7,7-1c-5,5.2-6.8,10.6-3.1,17.7c2.8,5.3,1.3,8.1-3.8,12.3
				C7.6,53,7.6,43.3,7.6,33.7z"/>
			<path class="st12" d="M72.5,10.7c6.4,3,12.9,4.6,20.1,4.1c4.3-0.3,6,2.7,5.9,6.9c1.5,6.6,2.6,13.4,9.4,17.1
				c0.8,0.4,1.1,1.2,1.6,1.9c0,5.7,0,11.4,0,17c-1.5-0.1-2,1.4-3,2c-1.5-1.6-0.7-3.5-0.6-5.2c0.2-6.3-1.4-11.9-6-16.4
				c-1.7-1.7-2.8-3.6-3.5-5.9c-2.5-8.5-7.6-13.9-17-14.1c-1.5,0-2.9-0.5-4.2-1.4C73.6,14.9,71.1,13.7,72.5,10.7z"/>
			<path class="st13" d="M109.4,40.6c-8.8-3.4-12-9.9-10.9-18.9c2.4,4.2,4.7,8.5,7.1,12.6c0.9,1.5,1.5,3.4,3.8,3.4
				C109.4,38.6,109.4,39.6,109.4,40.6z"/>
			<path class="st14" d="M72.5,10.7c-0.1,2.3,2.3,3.2,3,5c-0.5,1.7,0.4,2.7,1.7,3.6c1.3,0.9,3.3,1.7,2.5,3.6c-0.9,2.3-3,0.9-4.7,0.8
				c-3.5-1.1-5.3-3.6-5.9-7c-0.1-0.9-0.4-1.8-1.1-2.4c-3.5-1.7-7.1-2.2-10.9-1.4c-1.7,0.3-3.5,0.9-5.3,0.3c-0.9-4.5,2.7-5.6,5.5-7.3
				c3.1,0,6.2,0,9.3,0C69,6.9,70.9,8.7,72.5,10.7L72.5,10.7z"/>
			<path class="st7" d="M57.4,5.9c-1.9,2.3-3.9,4.5-5.8,6.8c-1.7,3.2-4.6,2.3-7.3,2.1c-1.6-0.5-3.2-1-4.7-1.6
				c-3.4-1.3-6.5-0.9-9.2,1.6c-1,0.9-1.9,2.4-3.8,1.8c0.4-5.4,2-6.9,7.3-7c6.1-0.1,12.5,1.1,17.6-3.8C53.4,5.9,55.4,5.9,57.4,5.9z"
				/>
			<path class="st12" d="M72.5,10.7c-2.4-1.1-4.6-2.4-5.9-4.8c1.3,0,2.6,0,4,0C71.3,7.5,71.9,9.1,72.5,10.7z"/>
			<path class="st4" d="M43.6,13.7c2.7-0.1,5.5,0.5,8-1c6.1-1.5,12.2-3.3,18,1c-1,3.4-3.7,3.2-6.5,3.1C46.7,15.8,33,21.3,24.3,35.3
				c-9.1,14.5-9.1,30,0.2,44.7c8.6,13.6,28,21.5,43.1,17.2c8.5-2.4,16.2-6.7,21.7-14c5.1-9.5,8.7-19.5,7.7-30.4
				c-0.9-10.3-6.4-18.3-13.7-25.2c-2.3-2.1-5.1-2.2-7.6,0.2c-0.8,0.9-1.6,1.8-2.3,2.8c-0.9,0.8-1.8,1.9-3.2,0.9
				c-0.7-0.9-0.8-1.9-0.8-2.9c0.5-3.5,2-5.9,6-5.9c1.2,0,2.5,0,3.8,0c-0.3-2.3-2.5-1.8-3.7-2.7c-2.2-1.5-3.1-3,0.1-4.4
				c1.5,0.9,3.1,1.1,4.8,1c8.3-0.3,13.2,4.8,16.3,11.6c1.7,3.9,3.4,7.4,6.2,10.8c4.8,5.8,5.9,13.1,3.7,20.6c-1.4,1.4-1.4,3.1-1.2,5
				c0.9,10-2.8,17.9-10.8,24c-2.4-1.3-3.2,0.9-4.5,2c-20.4,17.1-42.7,17.2-62.8,0.7c-7.7-6.4-13.9-15.8-14.1-26.1
				c-0.3-11.9-1.5-24.8,8.5-34.5c1.3-2,2.7-4,4-6c0.6-0.7,0.9-1.6,1.6-2.2c4.6-4,8.8-8.8,15.7-8.8C43.1,13.7,43.3,13.7,43.6,13.7z"
				/>
			<path class="st14" d="M27.6,23.7c-0.7,0.3-1.3,0.7-2,1c0.1-2.7,1.5-5.2,1-8c7.9-8.6,10.2-6.2,17-3c0,0,0,0,0,0
				C36.8,14.8,31.4,18,27.6,23.7z"/>
			<path class="st15" d="M90.5,83.6C89.3,88,85.1,90,82,92.2c-23.5,16.1-52.1,4.9-62.1-17.3c-8-17.8-3.6-41.6,15.5-52.9
				c8.5-5,17.9-9.5,28.7-6.5c2.2,0.6,3.8-0.9,5.4-1.9c0.9,0.6,1,1.5,0.8,2.4c-0.7,3.6-2.5,6.1-6.3,6.9c-2.9,0.9-5.7,1.6-8.7,0.2
				c-2.6-1.2-4.4,0.6-6.1,2.2c-1.9,1-2,3.4-3.7,4.6c-1.7-0.1-1.9-1.4-2-2.7c-0.1-1.2-0.8-0.4-1.2-0.3c-0.7,0.1-1.4-1-1.4-0.8
				c-0.2,8.4-5.5,12.1-12.8,14c-1,0.3-1.1,1.1-1.2,1.9c-1.3,6.7-3.3,13.2-3,20.1c-1.2,3.9,0.5,6.5,3.7,8.3c5,2.8,7.9,6.7,8.9,12.5
				c1.3,7.4,2,7.7,9.7,6.8c1.2-0.1,2.3-0.4,3.4,0c1.2,1.8,1.8-1,2.8-0.4c1,0.5,2,0.8,3.1,0.9c2.5,0.6,4.2,2.5,6.3,3.8
				c3.8,2.4,5.7,2,8.4-1.6c0.2-0.3,0.4-0.5,0.6-0.8c3.6-8.3,10.7-9.3,18.6-8.9C89.8,83,90.2,83.3,90.5,83.6z"/>
			<path class="st16" d="M63.8,21.8c3.8,0,4.3-3.9,6.5-5.7c0.1,3.4,2,5.5,5,6.6c-2.3,1.3-4.6,2.7-4.9,5.8c-1,0.6-1.7,0-2.4-0.6
				C67,25.6,63.3,25.1,63.8,21.8z"/>
			<path class="st17" d="M89.4,83.6c-3.4,0.4-6.9,0.5-10.2,1.2c-3,0.6-4.5,3-6,5.5c-5.2,8.9-6.5,9.2-14.6,3.1
				c-1.3-1-2.7-1.8-4.1-2.8c-1.6-2-0.5-3.4,1-4.7c2.1-1.4,4.7-1.6,6.9-2.7c3.2,0,6.4-0.6,9.4-1.8c3.1-3.1,3.5-7.6,5.4-11.2
				c1-2.2,3.2-2.5,5.1-3.2c1.1-0.3,2.2,0,3.2-0.4c-1.6,0.1-3.4,0.5-3.2-2.1c5.2-8,1.5-21.4-7.4-28c-1.7-1.2-4.6-1.6-4.4-4.7
				c0.7-0.6,1.3-1.3,2-1.9c3.8-2.3,6.7-0.7,9,2.3c1.4,1.8,2.5,3.9,3.6,5.9c1.3,4.2,4.6,6.5,8.3,8.3c5.4,4.2,6.4,8.6,2.3,14
				c-3,4-4.3,8-3.3,12.9C93.4,77,92.4,80.7,89.4,83.6z"/>
			<path class="st18" d="M70.6,31.6c8,4.3,13.2,10.8,15.3,19.7c0.8,3.3,0.9,6.6,0.2,9.8c-0.4,1.8-1.4,3.5-3.6,3.5
				c-4.6,2-6-1.7-7.5-4.5c-1.2-2.2-1.4-5-3-7.1c-2.8-8-4.2-9-12.5-9c-1.3,0-2.7,0-3.8-0.9c-1.4-1.9,1.7-2.1,1.4-3.7
				c-3.8-1.7-8.7-1.3-11.3-5.6c-0.2-0.5-0.4-0.9-0.5-1.4c-0.1-1.9,0.8-3.5,1.5-5.1c5-4.7,9.2-5.2,15.2-1.9c2,1.1,4,2.4,6.5,2.1
				c0.6,0.3,1.2,0.6,1.8,1C70.4,29.5,70.5,30.6,70.6,31.6z"/>
			<path class="st19" d="M89.4,83.6c2.2-3.9,2.5-7.9,1.3-12.4c-1-3.6,0-7,2.6-10.1c6.1-7.4,5.9-8-0.9-14.4
				c-4.2-3.7-5.6-9.2-9.2-13.4c-1.4-4.2-5.7-4-8.8-5.7c3-3.9,7.5-4.2,11.2-0.2c12,12.9,16.7,27.4,9.9,44.5c-1.6,4-2.2,8.3-5.1,11.7
				C90.2,83.6,89.8,83.6,89.4,83.6z"/>
			<path class="st20" d="M74.5,27.7c4.3-0.4,8.4-0.1,10,5c0.7,2,1.8,4,0,6c-1-1.3-2.3-2.5-2.9-3.9c-1.7-4.3-4.9-5.4-9.1-5.1
				C72.9,28.7,73.6,28.1,74.5,27.7z"/>
			<path class="st5" d="M27.6,23.7c3-7.1,8.9-9.5,16-10C37.3,15.6,32.3,19.3,27.6,23.7z"/>
			<path class="st21" d="M25.6,40.7C24.8,40,24.7,39,25.9,39C35,38.3,39.6,33.3,40,24.3c2.1,0.4,1.4,2.1,2.3,2.7
				c1.9,2.2,2.3,5.1,3.9,7.4c1.9,2.3,4.9,2.6,7.4,3.8c2,0.9,3.2,3,0.3,3.7c-7.2,1.6-9.7,7.2-12.2,13c-2.3,0.6-3.1-1.1-3.4-2.6
				c-1.4-5.9-5.4-8.8-11-10.1C26.7,41.7,26.1,41.2,25.6,40.7z"/>
			<path class="st20" d="M50.5,90.7c-3,0.3-5.9,0.6-8.9,1c-3.8,0.4-5.7-1.5-6-5c-0.6-7.1-3.2-12.6-10.1-15.8c-2.9-1.4-5.5-4.2-3-8.2
				c1.8-3.5,2.5-7.9,7.3-9c1.3,1.6,1.2,3.4,0.9,5.2c-0.8,5.5,1,10.1,4.5,14.2c3,3.5,5.6,7.4,9.5,10C50.6,85.1,51.5,86.3,50.5,90.7z"
				/>
			<path class="st22" d="M29.6,53.6c-2.3,3-4.7,6-7,9c-1.1-7.6,1.9-14.6,3-21.9c0.7,0,1.3,0.1,2,0.1C30.1,44.8,32.1,48.8,29.6,53.6z
				"/>
			<path class="st23" d="M68.6,27.5c-1.9,4.5-4.1,0.9-5.7-0.1c-6.5-4-9.1-4-15.4,0.2c-1.1-1.5,0-2.2,1-3c2-3.2,4.6-4.9,8.2-2.3
				c2.6,1.9,4.7-0.9,7-0.5C64.8,24.2,68.5,24.3,68.6,27.5z"/>
			<path class="st24" d="M50.5,90.7c-0.2-4.3-2.5-6.2-6.7-6.1c1.4-3.4,5-5.1,6.7-8.5c0.8-1.7,2.1,1,2.9,2c0.7,1.8,1.9,2.9,3.5,3.9
				c3.2,2,1.5,3.1-0.9,4c-1.9,0.4-2.2,2.5-3.6,3.5C51.6,89.5,52.1,91.7,50.5,90.7z"/>
			<path class="st25" d="M45.5,34.7c-2-2.2-2.9-4.9-3.1-7.8c0.1-1.1,0.3-2.2,0.5-3.8c2.9,1.7,0.6,5,2.6,6.5c1.1,0.8,0.1,2.2,1,3
				c0,0.3,0.1,0.6,0.1,0.9C46.8,34.6,46.5,35,45.5,34.7z"/>
			<path class="st4" d="M52.4,89.4c0.1-2,1-3.4,3-3.9c1.1-0.4,1.3,0.1,1.1,1.1c-1.7,0.8-2,2.3-1.9,4c-0.2,0.7-0.2,1.9-1.3,1.4
				C52.2,91.5,52.6,90.3,52.4,89.4z"/>
			<path class="st26" d="M46.5,32.7c-1.1-0.8-0.9-1.9-1-3c0.3-2.2,0.2-4.5,3.1-5.1c-0.3,1-0.7,2-1,3C46.6,29.2,46.5,31,46.5,32.7z"
				/>
			<path class="st27" d="M52.4,78.8c-0.4-0.7-0.8-1.4-1.7-2.9c0.1,5.4-3.6,6.9-6.9,8.6C35.2,76,26.2,67.7,29.6,53.6
				c0.5-4.5-2-8.5-2-12.9c6.6,0.9,11,4.1,12,11.1c0.2,1.3,0.7,2.2,1.9,2.6c1.5,1,1.5,2.6,1.8,4.1c-0.6,8.6,7.4,15.2,17.5,14.1
				c4.3-0.5,8.4-0.8,10.6,4.1c0.8,1.4,1.6,2.9,1.8,4.6c0,0.5-0.2,0.9-0.4,1.3c-3.4,0.3-6.4,3.4-10.1,1c-4.3,0.4-7.2-1.3-8.9-5.3
				c-0.2-0.6-0.3-0.6-0.3-0.6C53.1,78.2,52.8,78.6,52.4,78.8z"/>
			<path class="st28" d="M72.4,81.5c-0.6-1.3-1.3-2.6-1.9-3.9c-0.8-4.1-3.9-5.8-7.3-7.3c-1.3-0.6-3.1-0.9-3-2.8
				c0.1-1.6,1.5-2.3,2.7-2.6c4.7-1.1,5.3-6,8.2-8.7c0.3,0,0.8-0.1,1,0.1c2.8,4.4,6.4,8,10.4,11.4c-1.7,1-3.3,1.9-5,2.9
				C74.9,73.8,75.2,78.4,72.4,81.5z"/>
			<path class="st29" d="M82.4,67.7c-5-2.4-9-5.7-10.8-11.3c-1.3-1.6-0.4-2.7,0.9-3.7c2.8,0.6,2.4,3.1,2.9,5c1.1,3.6,2.5,6.8,7,6.9
				c1.3,2,4.8-0.2,5.8,3.4C86.2,67.3,84.3,67.5,82.4,67.7z"/>
			<path class="st19" d="M84.5,38.7c0-2,0-4,0-6c3.3,4.3,5.9,9,8,14C88.4,45.5,85,43.5,84.5,38.7z"/>
			<path class="st30" d="M52.4,78.8c0.1-1.1,0.3-2.2,0.4-3.3c1.4,5.1,5.4,6.8,9.8,8.1c-1.1,2.7-4.2,1.6-6,3
				c-0.4-0.4-0.7-0.7-1.1-1.1c0.8-0.5,1.6-1,2.4-1.6C55.7,82.5,52.8,82,52.4,78.8z"/>
			<path class="st31" d="M72.4,81.5c1-3.9,0.8-8.5,5.1-10.9c0.3,0.1,0.6,0.2,0.9,0.3c-2.6,3.6-1.9,8.8-5.8,11.8
				C72.5,82.2,72.5,81.9,72.4,81.5z"/>
			<path class="st32" d="M72.6,52.7c-0.3,1.2-0.6,2.5-0.9,3.7c-1.8,5.3-4.2,10-11,10.8c4.9,2.2,9.7,4.2,9.9,10.4
				c-1.8-3.6-4.7-4.6-8.6-3.9c-8.8,1.5-15.9-2.1-20.3-9.8c-1.3-2.3,0-3.7,0.9-5.4c0.4-3.6,0.9-7.1,2.4-10.4
				c2.1-4.4,5.9-6.4,10.6-5.4c4.2,0.9,8.6-2.4,12.7,1.3C70.9,46.4,73.2,48.7,72.6,52.7z"/>
			<path class="st26" d="M55.5,42.7c-7,1.1-9.6,3.5-10.8,10.6c-0.3,2-0.9,3.8-2.2,5.3c-1.4-1.1-0.7-2.7-1.1-4.1
				c0.9-8,5.1-12.9,13.6-13.8c-2.7-3.4-7.5-2.3-9.6-5.9c0.4-0.4,0.8-0.7,1.1-1.1c2.8,2.6,6.4,3.3,10,4c1.4,0.3,3.4,0,3.4,2
				c0.1,2.1-2,1.8-3.3,2.2C56.3,41.9,55.9,42.4,55.5,42.7z"/>
		</g>
	</g>
</g>
</svg>
