<?xml version="1.0" encoding="utf-8"?>
<!-- Generator: Adobe Illustrator 27.2.0, SVG Export Plug-In . SVG Version: 6.00 Build 0)  -->
<svg version="1.1" xmlns="http://www.w3.org/2000/svg" xmlns:xlink="http://www.w3.org/1999/xlink" x="0px" y="0px"
	 viewBox="0 0 115.8 115.8" style="enable-background:new 0 0 115.8 115.8;" xml:space="preserve">
<style type="text/css">
	.st0{fill:url(#SVGID_1_);}
	.st1{fill:#F18D39;}
	.st2{fill:#EE8044;}
	.st3{fill:#ED8044;}
	.st4{fill:#F29C31;}
	.st5{fill:#F6F0D1;}
	.st6{fill:#F3B22A;}
	.st7{fill:#EE8042;}
	.st8{fill:#F4C42A;}
	.st9{fill:#F4C425;}
	.st10{fill:#F3A625;}
	.st11{fill:#F08023;}
	.st12{fill:#F5E5C3;}
	.st13{fill:#F5CF20;}
	.st14{fill:#F5C122;}
	.st15{fill:#F5B939;}
	.st16{fill:#F4BE26;}
	.st17{fill:#F6EBBF;}
	.st18{fill:#F6ECC6;}
	.st19{clip-path:url(#SVGID_00000035513489751226704190000000716579117446786706_);}
</style>
<g id="レイヤー_1">
</g>
<g id="category">
	<g>
		<linearGradient id="SVGID_1_" gradientUnits="userSpaceOnUse" x1="57.9231" y1="109.8214" x2="57.9231" y2="6.7356">
			<stop  offset="8.790836e-02" style="stop-color:#FFC446"/>
			<stop  offset="0.9071" style="stop-color:#FAF398"/>
		</linearGradient>
		<path class="st0" d="M104.8,0H11C4.9,0,0,4.9,0,11v93.8c0,6.1,4.9,11,11,11h93.8c6.1,0,11-4.9,11-11V11C115.8,4.9,110.9,0,104.8,0
			z"/>
		<g>
			<path class="st1" d="M109.3,52c0.4,2.4,0.5,4.8,0,7.2c-0.4,0.2-0.8,0.3-1.2,0.3c-4.1,1.2-5.9,5.1-8.9,7.5c-3,2.3-4.2,2.2-6.4-1
				c4.9-4,10.3-7.4,12.1-14.1c1.9-6.7-1.4-12.2-4.3-17.8c-0.8-1.6-2.1-1.2-3.3-0.1c-1.6,1.5-2.9,3.1-3.3,5.4c-0.2,1.3,0,3.2-2.4,2.8
				c-1.9-4.4-1.3-8.3,1.8-12c1.2-1.4,3.7-3,0.8-5.2c-8.3-8.1-18.4-12.8-29.3-15.7c-5.3-1.4-10.8-0.8-16.4,0.8
				C35.8,13.7,26.5,22,16.7,29.8c-2,1.5-2.3,3.7-2.4,5.7c-0.5,6.8-4.3,12.5-6,18.8C8.1,54.8,7.5,55,7,55c-0.5-3.3-0.4-6.6,0-10
				c0.6-3.8-1.2-7.4-0.7-11.3c0.3-2.2,0.6-4.1,1.9-6c5.2-7.3,11.6-13.3,18.4-19.1c2.7-2.3,5.9-1.3,8.7-2.4c14.5-0.4,29-0.4,43.6,0
				c2.7,1,5.6,0.2,8.3,0.5c7.6,4.8,14,10.9,19.5,18c1.1,1.4,2.4,2.8,2.4,4.8C109.2,37,108.9,44.5,109.3,52z"/>
			<path class="st2" d="M35.4,6.2c-9.8,2.7-15.8,10.5-22.4,17.4c-4.4,4.6-6.3,10.1-5.4,16.6C7.8,41.7,8.1,43.5,7,45
				c-0.1-1.3-0.3-2.6-0.4-3.8c0-8.4-0.1-15-0.3-20.9C6.1,17.2,6,13,8.7,9.9c1.7-2,4-2.8,4.8-3.1c3.1-1.1,5.8-0.8,7.4-0.6
				C24.2,6.6,28.9,6.8,35.4,6.2z"/>
			<path class="st3" d="M109.3,52c-1.4-7.9-0.2-15.9-0.7-23.8c-0.2-0.3-0.5-0.6-0.5-0.9c0.1-8.3-6.2-12-11.3-16.8
				c-2.7-2.6-6.5-0.8-9-3.2c-3-0.4-6.1,1-8.9-1C85.2,6.1,91.4,6,97.6,6c10,0,11.3,1.3,12,11.2C109.5,28.8,109.4,40.4,109.3,52z"/>
			<path class="st4" d="M7,55c1.8-7.9,5.9-15.2,6.7-23.4c0.1-0.9,0.8-1.8,1.5-2.4C25.8,20,36.9,11.4,50.5,7.7
				c5.2-1.4,11.1-1.3,16.9,0.9c8.5,3.2,16.9,6.3,23.9,12.3c1.3,1.1,2.2,2.4,3.5,3.4c-3,4.6-5.6,5.7-10,3.8c-3.4-1.4-7.8-1.4-8.9-6.6
				c-0.6-2.6-2.1-0.7-2.9,0.5c-1,3.2-2.9,4.3-6.3,3.7c-3.2-0.6-6.1-1.6-8.3-4c-2-2.2-3.7-2.9-5.8,0.1c-2.1,3-5.2,2.8-8.4,1.5
				c-8.1-3.2-7.8-3-12.7,3.9c-3.7,5.2-6,10.6-6.5,16.9c-0.3,3.9-2.2,6.1-6.1,6.6c-1.3,0.2-2.6,0.5-3.9,0.8c-1.7,0.5-3.3,1.4-3.2,3.3
				c0.1,2.5,2.2,1.2,3.5,1.3c3.4,0.3,4.9,2.3,3.9,5.4c-1.5,4.8-1.2,9.5-0.7,14.3c-0.8,3.4-3.5,5.5-5.3,8.3c-0.8,1.3-1.3,2.7-0.3,4.1
				c1,1.4,2.8,1.9,3.9,1c5.4-4,9.8-1.1,14.4,1.7c1.4,0.8,3.1,1.2,4.4,2.2c2.7,3.8,6.5,3,10.2,2.5c1.9,0.7,3.8,0.7,5.7,0
				c3.5-1.2,7-1.1,10.5,0.1c3.4,1.5,6.2,0.5,9.2-1.7c2.9-2.1,5.1-5.2,8.7-6.3c2.2,2.9,2.8,6.7,5.2,9.6c0,0.6-0.7,1.6,0.8,1.4
				c1.2-0.2,2.5-0.7,3.3,0.8c0.2,3-2,4.3-4,5.6c-3.2,1.9-6.6,3.4-10.2,4.4c-8.4,0-16.9-0.7-25.2,0.2c-10.9,1.1-19.5-3.3-27.6-9.6
				c-3.2-2.5-6.4-4.6-10.2-5.9c-3.5-1.2-5.1-3.6-5-7.5C7.2,80.6,7.4,74.4,7,68.3C6.6,63.9,6.6,59.4,7,55z"/>
			<path class="st3" d="M7,68.3c1.5,5.9,0.5,11.8,0.6,17.8c0.1,3,0.7,5.6,3.7,6.2c6.9,1.5,11.6,6.6,17.1,10.3
				c6.8,4.4,13.5,7.4,22,6.7c8.5-0.7,17.1-0.2,25.6-0.2c3.4-1.6,7-1.4,10.6-1.4c3.2,0.1,6.2-0.4,8.9-2.2c5-3.3,10.3-6.2,11.7-12.8
				c-0.1-4.6,0-9.3,0-13.9c-0.3-4.7-0.1-9.4-0.1-14.2c0-1.9,0-4,1.6-5.4c0.2,0,0.4,0,0.5,0c0.1,14.3,0.3,28.6,0.2,42.9
				c0,4.1-2.6,6.7-6.8,7.4c-1.9,0.3-3.9,0.4-5.9,0.4c-25.7,0-51.4,0-77.1,0c-10.9,0-13-2.1-13-13.1C6.7,87.2,6.9,77.8,7,68.3z"/>
			<path class="st5" d="M72,21.2c1.2-1.2,1.1-4.1,3.4-3.6c1.6,0.3,2,2.6,2.1,4.2c0.2,3,2.6,2.6,4.2,3.7c4.9,3.2,9,2.2,13.1-1.2
				c1.8,0,3.5,0.1,2.4,2.7c-0.4,0.9-0.6,2.1-1.3,2.6c-4.8,3.2-4.2,8-4.1,12.7c0.6,5.2-3.6,7.3-6.8,10.3c1.5,2.3,4,2.6,6.2,3.2
				c2.4,0.6,2.5-1.5,2.9-3c0.7-3,2.8-4.4,5.7-4.5c3-0.1,5.1,1.1,5.7,4.3c-1,5.3-8.1,13-12.7,13.8c-3.2,0.7-5.6-1.4-8.3-2.4
				c-1.2-0.4-2.3-1.3-3.7-1.2c-0.9,0.1-1.5,0.7-1.8,1.5c-0.2,0.7-0.1,1.5,0.6,1.6c6.5,1.4,6.5,7.2,7.7,12c0.6,2.2,1.1,3.5,4,2.4
				c5.7-2.2,7.9-0.5,8.6,6C98.1,91.9,90.8,97.7,85,98c-4.2-1.8-4-6.3-5.5-9.7c-2.6-2-2.3-5.4-3.7-8c-4.3-3.2-9.8-2-11.3,2.8
				c-1.1,3.7-2.7,6.8-6.9,6.3c-5.8-0.6-10,1-12.6,6.4c-3.9,3.2-7.1,2.3-9.8-1.7c-1.9-4.3,1.2-8.1,1.1-12.2c0-0.7-0.4-1.2-0.9-1.6
				c-6-4.8-6.6-7.3-3.5-14.5c2.3-1.1,3.3-5.4,7-2.6c0.1,6.7,1.1,7.4,7.2,4.6c1.3-0.6,2.7-1.6,4.1-1.6c4.3,0,5.9-2.9,7.1-6.3
				c0.3-1,1.7-2.2,0.1-3c-1.4-0.7-2.9-0.1-3.8,1.3c-0.3,0.4-0.4,0.9-0.4,1.4c0,3.4-1.1,6-4.7,6.5c-3.7,0.6-6.4-0.9-7.9-4.5
				c0.9-5.9,4.5-10.5,8.7-14.1c4.8-4.1,10.8,0.5,16.3-1c-2.8-6-2.9-12,1.4-17.6C69.1,26.7,72.3,25.1,72,21.2z"/>
			<path class="st4" d="M99,86.1c-1-6.2-3.5-7.6-8.4-4c-2.4,1.7-3.2,1.6-3.8-1.3c-0.4-2.3-1.3-4.5-1.6-6.7c-0.5-5.2-2.8-8-8.4-7
				c1.3-7.3,1.6-7.4,7.9-4.5c2.7,1.2,5.4,2.4,8.1,3.7c2.4,2.2,4.3,1.4,6.2-0.8c2.1-2.4,4.4-4.5,6.6-6.7c1.2-1.1,2.4-2.3,3,0.5
				c0,6.7-0.1,13.3-0.1,20c-2.5,2.3-2.7,6.7-6.7,7.6C100.9,86.5,99.9,86.6,99,86.1z"/>
			<path class="st4" d="M105.5,52.4c-5.4-5.4-8-4.6-10.2,2.9c-0.5,1.7-1.7,3.1-3.6,2.3c-3.2-1.4-6.8-2.3-10.2-5.1
				c5.3-2,8.6-5.4,10.4-10.3c1-3.9,1.8-7.6,5.3-10.3c1.5-1.1,2.3-1.7,3.5-0.1c3.8,5.1,5,11.3,6.6,17.3
				C107.4,50,106.1,51.3,105.5,52.4z"/>
			<path class="st2" d="M87.8,7.2c3.1,0.7,6.5-1.4,9.3,1.6c5.2,5.6,14,9,11.5,19.3c-4.4-4.6-8.9-9.1-13.1-13.8
				C93.1,11.7,88.8,11.3,87.8,7.2z"/>
			<path class="st6" d="M32.3,66.1c-1.7,8.5-1.7,8.5,5.9,13.6c0.2,0.2,0.1,0.9,0.1,1.4c-6.5,4.5-8.1,4.5-13-1.6
				c-2.2-2.7-5-2.7-7.8-3.4c-1.5-4.9-1.5-9.8,0.3-14.6c1.3-3.5-0.3-4.6-3.6-4.2c-1.5,0.2-3.6,2.8-4.4-0.3c-0.7-2.6,0.2-5.3,3.1-6.6
				c0.4-0.2,0.9-0.2,1.4-0.4c8.4-1.8,8.8-1.8,9.8-10.1c0.6-4.9,2.7-8.7,5.4-12.5c0.4-0.5,1-0.9,1.3-1.5c1.3-2.6,1.4-6.9,4.4-7.2
				c2.9-0.3,6.3,1.6,9.1,3.2c3.7,2.1,6.1,1.3,8.1-2.2c1.5-2.7,3.2-2.9,5.3-0.5c2.4,2.8,5.2,4.5,9.1,5.2c3.5,0.6,4.1-1.1,5-3.2
				c0.2,3.4-0.5,6.4-3.9,8c-3.7-0.4-6.8-2.2-9.8-4.1c-2.4-1.5-3.9-2-5.4,0.9c-1.1,2.2-3.1,3.3-5.5,3.7c-4.1,0.3-5.3-4.1-8.5-5.3
				c-2.9,0.3-4.5,2.1-5.4,4.6c-0.1,0.4-0.3,0.8-0.5,1.3c-0.2,3.9-1.1,7.5-4.8,9.8c-1.8,1.1-1.6,3.1-0.8,4.9c0.7,1.7,2,3.1,2,5
				c-0.2,3.5-3,5.8-4.3,8.7c-1,2.2-3.1,4.4-1.1,6.8c1.7,2.1,4.2,1.2,6.4,0.6C31,65.9,31.7,65.9,32.3,66.1z"/>
			<path class="st7" d="M100.7,86.1c2.3-0.2,3.3-1.8,4.2-3.6c0.8-1.6,1.4-3.4,3.6-3.4c0,5,0,10,0,15c-4,3.9-7.3,8.6-11.8,12
				c-3.4,3.9-8,2.9-12.4,3c-2.8,0-5.6-0.1-8.4-0.1c1.9-2.7,5.4-2.6,7.9-4.3c2.1-1.5,4.5-2.6,5-5.5c0.4-2.2,2.3-3.2,3.9-4.2
				C96.2,92.7,99,90,100.7,86.1z"/>
			<path class="st8" d="M17.5,76.1c2.5-1.3,5.4-2,7,0.8c3.5,5.7,7.7,7.8,13.8,4.2c-1,4.3-2,8.6-3.1,12.9c-3.2-1.3-6.4-2.4-9.2-4.5
				c-2.1-1.6-4.3-2.1-6.7,0.1c-2.3,2.2-5.2,2.4-7.5,0.1c-2.5-2.5-1.4-5,0.8-7.3C14.5,80.5,16,78.2,17.5,76.1z"/>
			<path class="st9" d="M77.2,80.1c0.8,2.7,1.6,5.5,2.3,8.2c-2.6,4.4-7.2,6.4-11,9.3c-1.8,1.4-4.4,0.7-6.4-0.5
				c-2.9-2.9-3.5-5.9-0.1-8.9c0.5-0.4,0.9-1,1-1.6c1.1-7.7,8-5.4,12.4-7.3C76,79,76.6,79.7,77.2,80.1z"/>
			<path class="st10" d="M77.2,80.1c-3.9-1.2-6.6,4.7-10.9,1.8c-0.4-0.3-1,1.1-1.2,1.9c-0.7,2.4-1.5,4.6-3.4,6.5
				c-2.4,2.3,0.6,4.6,0.5,6.9c-3.8-1.4-7.6-1.3-11.3,0.3c-2.4,1-4.4,1.1-5.7-1.6c0.5-5.7,3.1-8.6,9.2-7.7c5.3,0.8,8.5-1.1,9.5-7
				c1-5.7,6.3-3.1,9.7-4.1C75.9,76.4,77.3,77.4,77.2,80.1z"/>
			<path class="st11" d="M100.7,86.1c0.1,4.9-3.5,7-6.8,9.4c-1.7,1.2-3.4,2.4-5.1,3.7c-1.5,0.7-3,1.6-4.5,0.5
				c-1.6-1.2,0-1.3,0.8-1.7c5.3-3.2,11.4-5.4,13.9-11.9C99.5,86,100.1,85,100.7,86.1z"/>
			<path class="st12" d="M17.4,31.5c1.3,0.6,2.1,1.5,1.8,2.7c-0.2,0.9-1,1.9-2,1.5c-0.8-0.3-1.8-1.2-1.9-2
				C15.2,32.6,16.4,32,17.4,31.5z"/>
			<path class="st2" d="M96.7,106.1c4-3.9,6.4-9.5,11.8-12C106.1,99.6,101.8,103.2,96.7,106.1z"/>
			<path class="st13" d="M32.3,66.1c-1.8,1.6-3.9,2.3-6.4,2c-3.7-0.4-5.3-2.8-3.8-6.2c1.9-4,4.1-7.9,6.2-11.8
				c1.8-3.1,4.9-2.6,7.5-2.1c10,1.9,8.4-1.8,6.4-8.9c-0.3-1-1-1.7-1.4-2.6c-1.2-5.4,3.3-5.9,6.3-7.7c2.4-0.8,4.3-1.8,5.2-4.7
				c0.8-2.7,2.7-3.7,5.1-1c2.8,3.2,7.6,3,10.5,6.1c-4.1,6-4.2,12.3-0.3,18.8c-4.6,0.3-8.7,0.1-12.7-0.5c-3-0.5-5.4,0.3-7,3.1
				c-2.2,3.8-5.9,6.8-6.6,11.4c-0.5,1.2-1.2,1.9-2.5,1C35.9,62.3,34.7,65.5,32.3,66.1z"/>
			<path class="st14" d="M38.9,63.1c0.8-0.3,1.7-0.7,2.5-1c1,0.9,1.9,1.9,3,2.5c3.8,2.1,7.3-0.1,7.3-4.4c0-4.4,4.3-7.1,8.1-5.2
				c1.3,0.7,1,1.5,0.4,2.3c-1.8,2.4-2.9,5.2-3.7,8c-0.2,0.8-0.6,1.8-1.6,1.6c-4.6-0.7-8.2,1.9-12.1,3.6c-1.8,0.8-3.7,0.5-4.9-1.3
				C36.5,67.1,37.1,65,38.9,63.1z"/>
			<path class="st15" d="M43.3,79.1c2.5-2.3,4.6-4.2,6.6-6.1c1.5-1.4,3-2.6,5.2-1.9c1.3,0.4,1.1,1.6,0.7,2.5c-1.1,2.1,0.5,6-3.4,6.3
				C49.6,80.1,46.6,80.6,43.3,79.1z"/>
			<path class="st16" d="M41.3,36.2c4.7,2.4,3.6,7.5,4.2,11.3c0.3,2.3-3.8,3.1-6.5,2.4c-3.6-0.9-7.1-1.3-10.6,0.3
				c0.1-1.8-1.5-2.8-2.1-4.3c-0.9-1.9-1.7-4.5-0.1-5.5c4.5-2.6,5.1-6.9,6.3-11.2C37.7,28.6,39.1,32.9,41.3,36.2z"/>
			<path class="st17" d="M41.3,36.2c-0.5,0.5-1.5,0.9-1.6,0.3c-0.8-4.1-4.2-5.5-7.3-7.3c0,0-0.1,0-0.1,0c1.7-2.6,4.9-3.6,6.7-6.1
				c1.4-1.4,1.8-0.4,2.3,0.9c1.1,2.6,3,4.2,5.8,4.7C46,31.8,40.7,31.6,41.3,36.2z"/>
			<path class="st16" d="M39.1,23.2c-0.2,4.3-3.8,4.8-6.7,6.1C32.9,25.3,35.2,23.3,39.1,23.2z"/>
			<path class="st18" d="M33,43.5c-2-0.1-1.6,5.1-4.8,1.8c-1.3-1.4-1.5-2-0.1-3.5C31.3,38.6,31.2,43.4,33,43.5z"/>
		</g>
	</g>
	<g>
		<defs>
			<path id="SVGID_00000091707075688355066060000012428930625399068345_" d="M65.6,21.4C52.7,18.7,40,22.9,31.3,31.5L22.9,23
				l-2.8,25.5l25.5-2.8l-8.4-8.4c6.8-6.7,16.7-10,26.8-7.9c16,3.3,26.3,19,23,35c-3.3,16-19,26.3-35,23c-14-2.9-23.6-15.3-23.6-29
				H20c0,17.6,12.3,33.3,30.1,37c20.5,4.2,40.5-8.9,44.7-29.3C99.2,45.6,86,25.6,65.6,21.4z"/>
		</defs>
		<clipPath id="SVGID_00000132050364284874373780000008439839023106769564_">
			<use xlink:href="#SVGID_00000091707075688355066060000012428930625399068345_"  style="overflow:visible;"/>
		</clipPath>
		<g style="clip-path:url(#SVGID_00000132050364284874373780000008439839023106769564_);">
			<path class="st2" d="M109.3,52c0.4,2.4,0.5,4.8,0,7.2c-0.4,0.2-0.8,0.3-1.2,0.3c-4.1,1.2-5.9,5.1-8.9,7.5c-3,2.3-4.2,2.2-6.4-1
				c4.9-4,10.3-7.4,12.1-14.1c1.9-6.7-1.4-12.2-4.3-17.8c-0.8-1.6-2.1-1.2-3.3-0.1c-1.6,1.5-2.9,3.1-3.3,5.4c-0.2,1.3,0,3.2-2.4,2.8
				c-1.9-4.4-1.3-8.3,1.8-12c1.2-1.4,3.7-3,0.8-5.2c-8.3-8.1-18.4-12.8-29.3-15.7c-5.3-1.4-10.8-0.8-16.4,0.8
				C35.8,13.7,26.5,22,16.7,29.8c-2,1.5-2.3,3.7-2.4,5.7c-0.5,6.8-4.3,12.5-6,18.8C8.1,54.8,7.5,55,7,55c-0.5-3.3-0.4-6.6,0-10
				c0.6-3.8-1.2-7.4-0.7-11.3c0.3-2.2,0.6-4.1,1.9-6c5.2-7.3,11.6-13.3,18.4-19.1c2.7-2.3,5.9-1.3,8.7-2.4c14.5-0.4,29-0.4,43.6,0
				c2.7,1,5.6,0.2,8.3,0.5c7.6,4.8,14,10.9,19.5,18c1.1,1.4,2.4,2.8,2.4,4.8C109.2,37,108.9,44.5,109.3,52z"/>
			<path class="st2" d="M35.4,6.2c-9.8,2.7-15.8,10.5-22.4,17.4c-4.4,4.6-6.3,10.1-5.4,16.6C7.8,41.7,8.1,43.5,7,45
				c-0.1-1.3-0.3-2.6-0.4-3.8c0-8.4-0.1-15-0.3-20.9C6.1,17.2,6,13,8.7,9.9c1.7-2,4-2.8,4.8-3.1c3.1-1.1,5.8-0.8,7.4-0.6
				C24.2,6.6,28.9,6.8,35.4,6.2z"/>
			<path class="st2" d="M109.3,52c-1.4-7.9-0.2-15.9-0.7-23.8c-0.2-0.3-0.5-0.6-0.5-0.9c0.1-8.3-6.2-12-11.3-16.8
				c-2.7-2.6-6.5-0.8-9-3.2c-3-0.4-6.1,1-8.9-1C85.2,6.1,91.4,6,97.6,6c10,0,11.3,1.3,12,11.2C109.5,28.8,109.4,40.4,109.3,52z"/>
			<path class="st2" d="M7,55c1.8-7.9,5.9-15.2,6.7-23.4c0.1-0.9,0.8-1.8,1.5-2.4C25.8,20,36.9,11.4,50.5,7.7
				c5.2-1.4,11.1-1.3,16.9,0.9c8.5,3.2,16.9,6.3,23.9,12.3c1.3,1.1,2.2,2.4,3.5,3.4c-3,4.6-5.6,5.7-10,3.8c-3.4-1.4-7.8-1.4-8.9-6.6
				c-0.6-2.6-2.1-0.7-2.9,0.5c-1,3.2-2.9,4.3-6.3,3.7c-3.2-0.6-6.1-1.6-8.3-4c-2-2.2-3.7-2.9-5.8,0.1c-2.1,3-5.2,2.8-8.4,1.5
				c-8.1-3.2-7.8-3-12.7,3.9c-3.7,5.2-6,10.6-6.5,16.9c-0.3,3.9-2.2,6.1-6.1,6.6c-1.3,0.2-2.6,0.5-3.9,0.8c-1.7,0.5-3.3,1.4-3.2,3.3
				c0.1,2.5,2.2,1.2,3.5,1.3c3.4,0.3,4.9,2.3,3.9,5.4c-1.5,4.8-1.2,9.5-0.7,14.3c-0.8,3.4-3.5,5.5-5.3,8.3c-0.8,1.3-1.3,2.7-0.3,4.1
				c1,1.4,2.8,1.9,3.9,1c5.4-4,9.8-1.1,14.4,1.7c1.4,0.8,3.1,1.2,4.4,2.2c2.7,3.8,6.5,3,10.2,2.5c1.9,0.7,3.8,0.7,5.7,0
				c3.5-1.2,7-1.1,10.5,0.1c3.4,1.5,6.2,0.5,9.2-1.7c2.9-2.1,5.1-5.2,8.7-6.3c2.2,2.9,2.8,6.7,5.2,9.6c0,0.6-0.7,1.6,0.8,1.4
				c1.2-0.2,2.5-0.7,3.3,0.8c0.2,3-2,4.3-4,5.6c-3.2,1.9-6.6,3.4-10.2,4.4c-8.4,0-16.9-0.7-25.2,0.2c-10.9,1.1-19.5-3.3-27.6-9.6
				c-3.2-2.5-6.4-4.6-10.2-5.9c-3.5-1.2-5.1-3.6-5-7.5C7.2,80.6,7.4,74.4,7,68.3C6.6,63.9,6.6,59.4,7,55z"/>
			<path class="st2" d="M7,68.3c1.5,5.9,0.5,11.8,0.6,17.8c0.1,3,0.7,5.6,3.7,6.2c6.9,1.5,11.6,6.6,17.1,10.3
				c6.8,4.4,13.5,7.4,22,6.7c8.5-0.7,17.1-0.2,25.6-0.2c3.4-1.6,7-1.4,10.6-1.4c3.2,0.1,6.2-0.4,8.9-2.2c5-3.3,10.3-6.2,11.7-12.8
				c-0.1-4.6,0-9.3,0-13.9c-0.3-4.7-0.1-9.4-0.1-14.2c0-1.9,0-4,1.6-5.4c0.2,0,0.4,0,0.5,0c0.1,14.3,0.3,28.6,0.2,42.9
				c0,4.1-2.6,6.7-6.8,7.4c-1.9,0.3-3.9,0.4-5.9,0.4c-25.7,0-51.4,0-77.1,0c-10.9,0-13-2.1-13-13.1C6.7,87.2,6.9,77.8,7,68.3z"/>
			<path class="st2" d="M72,21.2c1.2-1.2,1.1-4.1,3.4-3.6c1.6,0.3,2,2.6,2.1,4.2c0.2,3,2.6,2.6,4.2,3.7c4.9,3.2,9,2.2,13.1-1.2
				c1.8,0,3.5,0.1,2.4,2.7c-0.4,0.9-0.6,2.1-1.3,2.6c-4.8,3.2-4.2,8-4.1,12.7c0.6,5.2-3.6,7.3-6.8,10.3c1.5,2.3,4,2.6,6.2,3.2
				c2.4,0.6,2.5-1.5,2.9-3c0.7-3,2.8-4.4,5.7-4.5c3-0.1,5.1,1.1,5.7,4.3c-1,5.3-8.1,13-12.7,13.8c-3.2,0.7-5.6-1.4-8.3-2.4
				c-1.2-0.4-2.3-1.3-3.7-1.2c-0.9,0.1-1.5,0.7-1.8,1.5c-0.2,0.7-0.1,1.5,0.6,1.6c6.5,1.4,6.5,7.2,7.7,12c0.6,2.2,1.1,3.5,4,2.4
				c5.7-2.2,7.9-0.5,8.6,6C98.1,91.9,90.8,97.7,85,98c-4.2-1.8-4-6.3-5.5-9.7c-2.6-2-2.3-5.4-3.7-8c-4.3-3.2-9.8-2-11.3,2.8
				c-1.1,3.7-2.7,6.8-6.9,6.3c-5.8-0.6-10,1-12.6,6.4c-3.9,3.2-7.1,2.3-9.8-1.7c-1.9-4.3,1.2-8.1,1.1-12.2c0-0.7-0.4-1.2-0.9-1.6
				c-6-4.8-6.6-7.3-3.5-14.5c2.3-1.1,3.3-5.4,7-2.6c0.1,6.7,1.1,7.4,7.2,4.6c1.3-0.6,2.7-1.6,4.1-1.6c4.3,0,5.9-2.9,7.1-6.3
				c0.3-1,1.7-2.2,0.1-3c-1.4-0.7-2.9-0.1-3.8,1.3c-0.3,0.4-0.4,0.9-0.4,1.4c0,3.4-1.1,6-4.7,6.5c-3.7,0.6-6.4-0.9-7.9-4.5
				c0.9-5.9,4.5-10.5,8.7-14.1c4.8-4.1,10.8,0.5,16.3-1c-2.8-6-2.9-12,1.4-17.6C69.1,26.7,72.3,25.1,72,21.2z"/>
			<path class="st2" d="M99,86.1c-1-6.2-3.5-7.6-8.4-4c-2.4,1.7-3.2,1.6-3.8-1.3c-0.4-2.3-1.3-4.5-1.6-6.7c-0.5-5.2-2.8-8-8.4-7
				c1.3-7.3,1.6-7.4,7.9-4.5c2.7,1.2,5.4,2.4,8.1,3.7c2.4,2.2,4.3,1.4,6.2-0.8c2.1-2.4,4.4-4.5,6.6-6.7c1.2-1.1,2.4-2.3,3,0.5
				c0,6.7-0.1,13.3-0.1,20c-2.5,2.3-2.7,6.7-6.7,7.6C100.9,86.5,99.9,86.6,99,86.1z"/>
			<path class="st2" d="M105.5,52.4c-5.4-5.4-8-4.6-10.2,2.9c-0.5,1.7-1.7,3.1-3.6,2.3c-3.2-1.4-6.8-2.3-10.2-5.1
				c5.3-2,8.6-5.4,10.4-10.3c1-3.9,1.8-7.6,5.3-10.3c1.5-1.1,2.3-1.7,3.5-0.1c3.8,5.1,5,11.3,6.6,17.3
				C107.4,50,106.1,51.3,105.5,52.4z"/>
			<path class="st2" d="M87.8,7.2c3.1,0.7,6.5-1.4,9.3,1.6c5.2,5.6,14,9,11.5,19.3c-4.4-4.6-8.9-9.1-13.1-13.8
				C93.1,11.7,88.8,11.3,87.8,7.2z"/>
			<path class="st2" d="M32.3,66.1c-1.7,8.5-1.7,8.5,5.9,13.6c0.2,0.2,0.1,0.9,0.1,1.4c-6.5,4.5-8.1,4.5-13-1.6
				c-2.2-2.7-5-2.7-7.8-3.4c-1.5-4.9-1.5-9.8,0.3-14.6c1.3-3.5-0.3-4.6-3.6-4.2c-1.5,0.2-3.6,2.8-4.4-0.3c-0.7-2.6,0.2-5.3,3.1-6.6
				c0.4-0.2,0.9-0.2,1.4-0.4c8.4-1.8,8.8-1.8,9.8-10.1c0.6-4.9,2.7-8.7,5.4-12.5c0.4-0.5,1-0.9,1.3-1.5c1.3-2.6,1.4-6.9,4.4-7.2
				c2.9-0.3,6.3,1.6,9.1,3.2c3.7,2.1,6.1,1.3,8.1-2.2c1.5-2.7,3.2-2.9,5.3-0.5c2.4,2.8,5.2,4.5,9.1,5.2c3.5,0.6,4.1-1.1,5-3.2
				c0.2,3.4-0.5,6.4-3.9,8c-3.7-0.4-6.8-2.2-9.8-4.1c-2.4-1.5-3.9-2-5.4,0.9c-1.1,2.2-3.1,3.3-5.5,3.7c-4.1,0.3-5.3-4.1-8.5-5.3
				c-2.9,0.3-4.5,2.1-5.4,4.6c-0.1,0.4-0.3,0.8-0.5,1.3c-0.2,3.9-1.1,7.5-4.8,9.8c-1.8,1.1-1.6,3.1-0.8,4.9c0.7,1.7,2,3.1,2,5
				c-0.2,3.5-3,5.8-4.3,8.7c-1,2.2-3.1,4.4-1.1,6.8c1.7,2.1,4.2,1.2,6.4,0.6C31,65.9,31.7,65.9,32.3,66.1z"/>
			<path class="st2" d="M100.7,86.1c2.3-0.2,3.3-1.8,4.2-3.6c0.8-1.6,1.4-3.4,3.6-3.4c0,5,0,10,0,15c-4,3.9-7.3,8.6-11.8,12
				c-3.4,3.9-8,2.9-12.4,3c-2.8,0-5.6-0.1-8.4-0.1c1.9-2.7,5.4-2.6,7.9-4.3c2.1-1.5,4.5-2.6,5-5.5c0.4-2.2,2.3-3.2,3.9-4.2
				C96.2,92.7,99,90,100.7,86.1z"/>
			<path class="st2" d="M17.5,76.1c2.5-1.3,5.4-2,7,0.8c3.5,5.7,7.7,7.8,13.8,4.2c-1,4.3-2,8.6-3.1,12.9c-3.2-1.3-6.4-2.4-9.2-4.5
				c-2.1-1.6-4.3-2.1-6.7,0.1c-2.3,2.2-5.2,2.4-7.5,0.1c-2.5-2.5-1.4-5,0.8-7.3C14.5,80.5,16,78.2,17.5,76.1z"/>
			<path class="st2" d="M77.2,80.1c0.8,2.7,1.6,5.5,2.3,8.2c-2.6,4.4-7.2,6.4-11,9.3c-1.8,1.4-4.4,0.7-6.4-0.5
				c-2.9-2.9-3.5-5.9-0.1-8.9c0.5-0.4,0.9-1,1-1.6c1.1-7.7,8-5.4,12.4-7.3C76,79,76.6,79.7,77.2,80.1z"/>
			<path class="st2" d="M77.2,80.1c-3.9-1.2-6.6,4.7-10.9,1.8c-0.4-0.3-1,1.1-1.2,1.9c-0.7,2.4-1.5,4.6-3.4,6.5
				c-2.4,2.3,0.6,4.6,0.5,6.9c-3.8-1.4-7.6-1.3-11.3,0.3c-2.4,1-4.4,1.1-5.7-1.6c0.5-5.7,3.1-8.6,9.2-7.7c5.3,0.8,8.5-1.1,9.5-7
				c1-5.7,6.3-3.1,9.7-4.1C75.9,76.4,77.3,77.4,77.2,80.1z"/>
			<path class="st2" d="M100.7,86.1c0.1,4.9-3.5,7-6.8,9.4c-1.7,1.2-3.4,2.4-5.1,3.7c-1.5,0.7-3,1.6-4.5,0.5c-1.6-1.2,0-1.3,0.8-1.7
				c5.3-3.2,11.4-5.4,13.9-11.9C99.5,86,100.1,85,100.7,86.1z"/>
			<path class="st2" d="M17.4,31.5c1.3,0.6,2.1,1.5,1.8,2.7c-0.2,0.9-1,1.9-2,1.5c-0.8-0.3-1.8-1.2-1.9-2
				C15.2,32.6,16.4,32,17.4,31.5z"/>
			<path class="st2" d="M96.7,106.1c4-3.9,6.4-9.5,11.8-12C106.1,99.6,101.8,103.2,96.7,106.1z"/>
			<path class="st2" d="M32.3,66.1c-1.8,1.6-3.9,2.3-6.4,2c-3.7-0.4-5.3-2.8-3.8-6.2c1.9-4,4.1-7.9,6.2-11.8
				c1.8-3.1,4.9-2.6,7.5-2.1c10,1.9,8.4-1.8,6.4-8.9c-0.3-1-1-1.7-1.4-2.6c-1.2-5.4,3.3-5.9,6.3-7.7c2.4-0.8,4.3-1.8,5.2-4.7
				c0.8-2.7,2.7-3.7,5.1-1c2.8,3.2,7.6,3,10.5,6.1c-4.1,6-4.2,12.3-0.3,18.8c-4.6,0.3-8.7,0.1-12.7-0.5c-3-0.5-5.4,0.3-7,3.1
				c-2.2,3.8-5.9,6.8-6.6,11.4c-0.5,1.2-1.2,1.9-2.5,1C35.9,62.3,34.7,65.5,32.3,66.1z"/>
			<path class="st2" d="M38.9,63.1c0.8-0.3,1.7-0.7,2.5-1c1,0.9,1.9,1.9,3,2.5c3.8,2.1,7.3-0.1,7.3-4.4c0-4.4,4.3-7.1,8.1-5.2
				c1.3,0.7,1,1.5,0.4,2.3c-1.8,2.4-2.9,5.2-3.7,8c-0.2,0.8-0.6,1.8-1.6,1.6c-4.6-0.7-8.2,1.9-12.1,3.6c-1.8,0.8-3.7,0.5-4.9-1.3
				C36.5,67.1,37.1,65,38.9,63.1z"/>
			<path class="st2" d="M43.3,79.1c2.5-2.3,4.6-4.2,6.6-6.1c1.5-1.4,3-2.6,5.2-1.9c1.3,0.4,1.1,1.6,0.7,2.5c-1.1,2.1,0.5,6-3.4,6.3
				C49.6,80.1,46.6,80.6,43.3,79.1z"/>
			<path class="st2" d="M41.3,36.2c4.7,2.4,3.6,7.5,4.2,11.3c0.3,2.3-3.8,3.1-6.5,2.4c-3.6-0.9-7.1-1.3-10.6,0.3
				c0.1-1.8-1.5-2.8-2.1-4.3c-0.9-1.9-1.7-4.5-0.1-5.5c4.5-2.6,5.1-6.9,6.3-11.2C37.7,28.6,39.1,32.9,41.3,36.2z"/>
			<path class="st2" d="M41.3,36.2c-0.5,0.5-1.5,0.9-1.6,0.3c-0.8-4.1-4.2-5.5-7.3-7.3c0,0-0.1,0-0.1,0c1.7-2.6,4.9-3.6,6.7-6.1
				c1.4-1.4,1.8-0.4,2.3,0.9c1.1,2.6,3,4.2,5.8,4.7C46,31.8,40.7,31.6,41.3,36.2z"/>
			<path class="st2" d="M39.1,23.2c-0.2,4.3-3.8,4.8-6.7,6.1C32.9,25.3,35.2,23.3,39.1,23.2z"/>
			<path class="st2" d="M33,43.5c-2-0.1-1.6,5.1-4.8,1.8c-1.3-1.4-1.5-2-0.1-3.5C31.3,38.6,31.2,43.4,33,43.5z"/>
		</g>
	</g>
</g>
</svg>
