<?xml version="1.0" encoding="utf-8"?>
<!-- Generator: Adobe Illustrator 27.0.1, SVG Export Plug-In . SVG Version: 6.00 Build 0)  -->
<svg version="1.1" xmlns="http://www.w3.org/2000/svg" xmlns:xlink="http://www.w3.org/1999/xlink" x="0px" y="0px"
	 viewBox="0 0 251 139.1" style="enable-background:new 0 0 251 139.1;" xml:space="preserve">
<style type="text/css">
	.st0{fill:url(#SVGID_1_);}
	.st1{fill:url(#SVGID_00000103961402041031858860000013290348310869912971_);}
	.st2{fill:url(#SVGID_00000083805708349871761770000000425610986739966900_);}
	.st3{fill:#FF7BA4;}
	.st4{fill:#FFFFFF;}
	.st5{fill:url(#SVGID_00000156585992987679468610000001101362738686192777_);}
</style>
<g id="レイヤー_1">
</g>
<g id="レイヤー_6">
	<linearGradient id="SVGID_1_" gradientUnits="userSpaceOnUse" x1="26.5573" y1="44.9898" x2="249.9034" y2="114.14">
		<stop  offset="0" style="stop-color:#CCB7D8"/>
		<stop  offset="0.1014" style="stop-color:#E196D9"/>
		<stop  offset="0.2355" style="stop-color:#F984C4"/>
		<stop  offset="0.3616" style="stop-color:#ED8757"/>
		<stop  offset="0.4978" style="stop-color:#FDA871"/>
		<stop  offset="0.6564" style="stop-color:#FCB851"/>
		<stop  offset="0.8209" style="stop-color:#FAC341"/>
		<stop  offset="0.988" style="stop-color:#DAD034"/>
	</linearGradient>
	<path class="st0" d="M218.6,95.7c-2.1-2-2.2-4.3-2.2-4.8c0,0.5-0.1,2.8-2.2,4.8c-1.8,1.8-3.9,2.3-4.5,2.3c0.5,0,2.6,0.5,4.5,2.3
		c2.1,2,2.2,4.3,2.2,4.8c0-0.5,0.1-2.8,2.2-4.8c1.8-1.8,3.9-2.3,4.5-2.3C222.6,97.9,220.5,97.4,218.6,95.7z M247.3,68.8
		c-1.7-1.7-1.9-3.6-1.9-4c0,0.5-0.1,2.3-1.9,4c-1.5,1.5-3.3,1.9-3.7,1.9c0.5,0,2.2,0.4,3.7,1.9c1.7,1.7,1.9,3.6,1.9,4
		c0-0.5,0.1-2.3,1.9-4c1.5-1.5,3.3-1.9,3.7-1.9C250.5,70.7,248.8,70.3,247.3,68.8z M191.9,55.5c-1.5-1.4-1.6-3-1.6-3.4
		c0,0.4-0.1,2-1.6,3.4c-1.3,1.3-2.8,1.6-3.2,1.6c0.4,0,1.9,0.4,3.2,1.6c1.5,1.4,1.6,3,1.6,3.4c0-0.4,0.1-2,1.6-3.4
		c1.3-1.3,2.8-1.6,3.2-1.6C194.7,57.1,193.2,56.7,191.9,55.5z M128.1,62.1c-1.6-1.6-1.7-3.3-1.7-3.8c0,0.4-0.1,2.2-1.7,3.8
		c-1.4,1.4-3.1,1.8-3.5,1.8c0.4,0,2.1,0.4,3.5,1.8c1.6,1.6,1.7,3.3,1.7,3.8c0-0.4,0.1-2.2,1.7-3.8c1.4-1.4,3.1-1.8,3.5-1.8
		C131.2,63.9,129.6,63.5,128.1,62.1z M81,70.3c-1.9-1.9-2-3.9-2-4.4c0,0.5-0.1,2.6-2,4.4c-1.7,1.6-3.6,2.1-4.1,2.1
		c0.5,0,2.4,0.5,4.1,2.1c1.9,1.9,2,3.9,2,4.4c0-0.5,0.1-2.6,2-4.4c1.7-1.6,3.6-2.1,4.1-2.1C84.7,72.4,82.7,71.9,81,70.3z M27.3,81.8
		c-2.4-2.3-2.5-4.8-2.5-5.4c0,0.6-0.2,3.2-2.5,5.4c-2.1,2-4.5,2.6-5.1,2.6c0.6,0,3,0.6,5.1,2.6c2.4,2.3,2.5,4.8,2.5,5.4
		c0-0.6,0.2-3.2,2.5-5.4c2.1-2,4.5-2.6,5.1-2.6C31.7,84.4,29.3,83.8,27.3,81.8z M67.9,49.2c-1.6-1.6-1.7-3.4-1.7-3.8
		c0,0.4-0.1,2.2-1.7,3.8C63,50.6,61.3,51,60.9,51c0.4,0,2.1,0.4,3.5,1.8c1.6,1.6,1.7,3.4,1.7,3.8c0-0.4,0.1-2.2,1.7-3.8
		c1.4-1.4,3.1-1.8,3.5-1.8C71,51,69.3,50.6,67.9,49.2z"/>
	
		<linearGradient id="SVGID_00000020385514685442529420000002382496121478918823_" gradientUnits="userSpaceOnUse" x1="1.0943" y1="94.3297" x2="251.7034" y2="125.3952">
		<stop  offset="0" style="stop-color:#CCB7D8"/>
		<stop  offset="0.1014" style="stop-color:#E196D9"/>
		<stop  offset="0.2355" style="stop-color:#F984C4"/>
		<stop  offset="0.3616" style="stop-color:#ED8757"/>
		<stop  offset="0.4978" style="stop-color:#FDA871"/>
		<stop  offset="0.6564" style="stop-color:#FCB851"/>
		<stop  offset="0.8209" style="stop-color:#FAC341"/>
		<stop  offset="0.988" style="stop-color:#DAD034"/>
	</linearGradient>
	<path style="fill:url(#SVGID_00000020385514685442529420000002382496121478918823_);" d="M55.4,104.7L55.4,104.7
		c-0.2-0.5-0.5-0.8-0.7-1c-0.4-0.4-0.8-0.3-1.4-0.7c-0.4-0.3-0.7-0.6-0.8-0.8c0.3-0.2,0.5-0.4,0.8-0.6c-0.4-0.6-0.8-1.3-1.3-1.9
		c-0.4,0.2-0.8,0.4-1.3,0.7c-0.3,0.2-0.6,0.4-0.8,0.6c-0.3-0.1-0.6-0.2-0.9-0.3c-0.5,0.3-0.9,0.6-1.4,0.9c0,0.4,0,0.7,0,1.1
		c-0.6,0.3-1.3,0.6-2.3,0.8c-0.9,0.2-1.2,0-3.1,0.2c-1.7,0.1-2.2,0.3-2.4,0.4c-0.7,0.3-1.2,0.7-1.6,1c-0.9,0.7-1.3,1.2-2,1.2
		c-0.2,0-0.4-0.1-0.5-0.1c-1.1-1.4-1.5-3-1.6-4.9c1.8-0.6,3-1.9,4.7-2.7c0.5,0.1,0.9,0.1,1.4,0.2c2.2,0.6,4.5,0.7,6.6,0.3
		c0.2,0,0,0,2.9-0.9c2.5-0.7,3.3-1,4.4-1c1,0,2,0,2.9,0.7c0.1,0.1,0.9,0.8,0.9,1.8c0,1-1.1,2-1.1,2.1c1.9-1.3,1.9-2.4,1.9-2.4
		c0-0.8-0.5-1.4-0.9-1.9c-0.1-0.1-0.5-0.6-1.5-1.2c-1.5-0.8-2.9-0.9-3.7-1c-0.6,0-1.5,0-2.6,0.2c-1.1,0.2-2.1,0.5-3.2,1
		c-1.2,0.6-2.5,0.9-3.7,0.6c-0.6-0.2-1-0.4-1.5-0.8c-2.8-2.1-3.4-3.7-5.3-4.9c-0.7-0.5-2-1.1-3.9-1.2c0-0.6-0.3-1-0.5-1.2
		c-0.5-0.5-1-0.4-1.6-0.9c-0.2-0.2-0.2-0.3-0.5-0.9c-0.1-0.2-1.2-2.1-1.7-2c-0.2,0-0.2,0.3-0.3,1c-0.1,0.7-0.2,1.6-0.3,2.5
		c-0.8-0.2-1.1-0.5-1.2-0.8c-0.3-0.4-0.1-0.8-0.3-1.5c-0.1-0.5-0.3-0.8-0.5-1.3c-0.3-0.6-0.8-1.6-1.3-2.9c0.7,0,1.1-0.2,1.3-0.4
		c0.1-0.1,0.3-0.2,0.5-0.3c0.3-0.1,0.4,0,0.8,0c0.3,0,0.6-0.1,0.8-0.1c0.1-0.2,0.1-0.4,0.2-0.7c1.7,0.1,3.4,0.1,5.1,0.2
		c0.7,1.4,1.5,2.2,2.1,2.7c0.3,0.3,1.1,0.8,1.6,1.9c0.1,0.3,0.2,0.5,0.3,0.7c-0.2,0.6-0.5,1.2-0.7,1.7c0,0.2,0,0.6,0.1,1
		c0.2,0.4,0.4,0.7,0.7,0.9c0.5,0.4,1,0.9,1.6,0.8c0.4,0,0.8-0.3,1.2-0.6c0.4-0.3,0.8-0.6,0.9-1.1c0.1-0.2,0-0.5,0-0.9
		c0-0.2,0-0.5,0-0.6c-0.5-0.5-1.1-1.2-1.7-2.3c-0.2-0.4-0.5-0.9-1-1.8c-0.6-1.2-1.4-2.9-1.4-2.9c-0.3-0.7-0.8-1.3-1.1-2
		c-0.1-0.2-0.3-0.6-0.7-0.8c-0.3-0.2-0.7-0.2-0.9-0.2c-1.3-0.1-2.3,0-3.1,0c-0.5,0-0.9,0-1.6,0c-0.3,0-0.6,0-0.8,0
		c0-0.2,0-0.4,0-0.6c-1.4-0.4-2.5-0.7-3.6-1c-0.3-0.1-1-0.3-1.9-0.4c-0.4-0.1-1-0.1-1.7-0.1c-0.7,0-1,0-1.4,0.2
		c-0.6,0.3-0.8,1-0.8,1.2c-0.3,0-0.6,0.1-0.8,0.1c-0.1-0.4-0.2-0.7-0.3-1.1c0.2-0.1,0.4-0.3,0.7-0.5c0.2-0.2,0.4-0.3,0.5-0.5
		c0-0.2,0-0.6,0.1-0.9c0.1-0.3,0.2-0.5,0.3-0.7c0.1,0,0.1,0.1,0.2,0.1c0.1,0.1,0.2,0.2,0.3,0.3c0-0.3,0.1-0.8,0-1.2
		c-0.1-0.7-0.3-1.3-0.4-1.8c0.2,0.1,0.5,0.3,0.7,0.5c0.3,0.3,0.5,0.7,0.7,0.9c0-0.4,0-1.2-0.5-2c-0.1-0.1-0.3-0.5-1-1
		c-0.5-0.4-1.4-0.9-2.6-1.3c0.3-0.1,0.7-0.2,1.3-0.1c0.7,0.1,1.2,0.4,1.7,0.7c0.5,0.3,1.3,0.9,2,2c-0.5-1.4-1.3-2.1-1.7-2.5
		c-1.6-1.3-3.5-1.3-5.3-1.4c-1.1,0-2,0.1-2.5,0.2c-0.4-0.2-0.9-0.5-1.4-1c-0.7-0.7-0.8-1.5-1.1-1.5c-0.2,0-0.4,0.7-0.4,1.1
		c-0.1,1,0.4,1.8,0.8,2.4c-0.2,0.1-0.3,0.2-0.5,0.3c-0.2-0.2-0.4-0.6-0.7-1c-0.2-0.4-0.4-0.6-0.5-0.6c-0.2,0-0.2,0.4-0.3,0.8
		c0,0.2-0.1,0.4-0.1,0.6c-0.3,0-0.6-0.1-0.9-0.3c-0.6-0.4-0.7-1-0.9-1c-0.2,0-0.3,1,0,1.8c0.2,0.4,0.5,0.7,0.7,0.9
		c-0.2,0.1-0.4,0.2-0.7,0.3c-0.4,0.2-0.7,0.4-0.7,0.6c0,0.1,0.1,0.1,0.8,0.3c0.4,0.1,0.7,0.1,0.9,0.2c-0.2,0.6-0.4,1.6-0.3,2.8
		C7,74.5,7.4,75.4,7.7,76C8.5,76,9.5,76,9.9,76.5c0.2,0.3,0.1,0.5,0.1,0.9c0.1,0.5,0.5,1.2,2.2,1.9c0.2-0.1,0.4-0.2,0.7-0.4
		c0.3-0.2,0.5-0.5,0.7-0.7c0.1,0.1,0.3,0.2,0.4,0.4c0.2,0.2,0.3,0.4,0.3,0.5c-0.4,0.5-0.8,0.9-1.1,1.1c-0.6,0.5-1.7,1-2.5,1.4
		c-0.2,0.1-0.4,0.2-0.5,0.4c-0.2,0.3-0.2,0.7-0.2,1.2c0,0.3,0,0.8,0.2,1.3c-0.3,0.3-0.7,0.6-1,1c-0.1,0.3-0.2,0.7-0.2,1
		c-0.5,0.2-1,0.5-1.5,0.8C7,87.5,6.6,87.7,6.2,88c-0.3-0.7-0.6-1.7-0.8-2.7c-0.3-1.5-0.3-2.9-0.2-3.9c0.1-0.2,0.4-0.8,1.1-1.1
		c0.3-0.1,0.6-0.1,0.8-0.1c0.1-0.4,0.3-0.7,0.4-1.1c-0.4-0.8-0.9-1.3-1.2-1.6c-0.4-0.3-0.9-0.7-1.4-0.6c-0.4,0.1-0.7,0.4-0.8,0.5
		c-0.3,0.8-0.7,2-1,3.4c-0.2,0.8-0.3,1.9-0.3,4.8c0,4.1,0.1,6.2,0.9,6.6c0.3,0.1,1-0.2,2.5-0.8c1.4-0.6,2.6-1.2,3.6-1.7
		c0.7-0.4,1.6-0.9,2.7-1.5c0.2,0.1,0.5,0.2,0.9,0.2c0.3,0,0.8,0,1.1-0.2c0.2-0.1,0.3-0.3,0.5-0.8c0.1-0.2,0.2-0.4,0.3-0.6
		c0.1,0.5,0.3,1.3,0.7,2c0.4,0.7,0.9,1.7,2,2c0.5,0.2,0.8,0.1,1.3,0.5c0.4,0.3,0.5,0.6,0.7,0.8c0.2,0.3,0.5,0.9,0.7,1.8
		c-0.5,1-1,1.7-1.4,2.2c-0.6,0.7-1,1-2,2c-0.5,0.6-0.9,1-1.2,1.3c0.2,0.3,0.5,0.8,1,1.2c0.4,0.3,0.8,0.6,1,0.7
		c-1.3,1.4-1.8,2.7-2,3.6c-0.2,0.7-0.1,0.8-0.4,1.6c-0.3,1.2-0.8,2-1.6,3.4c-1.1,2-1.7,3-2.3,4c-1,1.5-2.4,3.4-4.3,5.5
		c-0.3,0-0.7-0.1-1-0.1c-0.5,0.4-1.1,0.7-1.6,1.1c-0.2,0-0.6-0.1-1.1-0.3c-0.7-0.2-1-0.4-1.3-0.6c-0.5-0.2-1.3-0.4-2.5-0.1
		c0.2,0.6,0.6,1.8,1.7,2.7c0.6,0.5,1.3,1,1.9,0.9c0.2,0,0.5-0.2,1-0.1c0.2,0,0.4,0.1,0.5,0.1c-0.2,0.5-0.4,1-0.6,1.5
		c0.7,0.5,1.4,1,2.1,1.5c0.6-0.4,1.2-1.1,1.7-2c0.1-0.2,0.2-0.3,0.2-0.5c0.2,0,0.3,0,0.5,0c0.2-0.3,0.5-0.7,0.7-1
		c0-0.2-0.1-0.5-0.1-0.7c-0.1-0.3-0.2-0.6-0.2-0.8c0.3-0.3,0.8-0.7,1.3-1.3c1.8-1.9,1.8-2.2,3-3.3c1.4-1.3,1.8-1.3,3-2.6
		c0.6-0.7,1-1.2,1.2-1.9c0.2-0.6,0.1-1.1,0.5-1.9c0.1-0.2,0.2-0.5,0.5-1c0.8-1.3,1.9-2.6,3.4-4c0.5-0.5,1.2-1.1,2.1-1.9
		c0.5,0,1.1,0,1.7,0c0.5,0,1,0,1.5,0c1.3,2.1,2.4,3.7,3.3,4.8c0.1,0.1,1,1.3,2.4,2.6c0.8,0.8,1.2,1.1,1.5,1.2
		c0.3,0.1,1.2,0.3,4.5-1.8c0.8-0.5,1.4-0.9,1.8-1.2l192.1,0l1.7-4.3L55.4,104.7z"/>
	
		<linearGradient id="SVGID_00000018229512026027883980000008128757956174804912_" gradientUnits="userSpaceOnUse" x1="16.2033" y1="9.9474" x2="238.3273" y2="137.1932">
		<stop  offset="0" style="stop-color:#CCB7D8"/>
		<stop  offset="0.1014" style="stop-color:#E196D9"/>
		<stop  offset="0.2355" style="stop-color:#F984C4"/>
		<stop  offset="0.3616" style="stop-color:#ED8757"/>
		<stop  offset="0.4978" style="stop-color:#FDA871"/>
		<stop  offset="0.6564" style="stop-color:#FCB851"/>
		<stop  offset="0.8209" style="stop-color:#FAC341"/>
		<stop  offset="0.988" style="stop-color:#DAD034"/>
		<stop  offset="1" style="stop-color:#000000"/>
	</linearGradient>
	<path style="fill:url(#SVGID_00000018229512026027883980000008128757956174804912_);" d="M215.6,123.4h-6.2l-2.6,7.9h-8.3l-2.6,7.9
		h-52.4l-8.3,0l5.1-15.7h-6.2l-2.6,7.9h-8.3l-2.6,7.9H75.3l4.4-13.4l-4.4,1.6l-3.8,11.8l-10.6,0l2.4-7.3l-7,2.6l3.6-11h-2l-5.1,15.7
		H42l5.1-15.7h-1.8l-2.6,7.9H32.2l6.5-19.9h10.6l-0.7,2h16.8l-2.4,7.4l23.5-8.7l-0.4,1.3h14.3l-5.1,15.7h0.1l2.6-7.9h26.6l2.6-7.9
		l8.4,0l0.7-2h10.6l-0.7,2l54.1,0l-5.1,15.7h2l5.1-15.7l8.4,0l0.7-2h10.6l-0.7,2h8.4l-8.4,25.8l-10.6,0L215.6,123.4z M184.3,129.1
		l1.9-5.7h-10.1l-1.9,5.7H184.3z M163.7,129.1l1.9-5.7h-14.5l-1.9,5.7H163.7z M89.8,84.8h19.9l4.6,4.6l1.8-5.1H89.5l7.2-19.6h29
		l5.3,5.3l-9.6,26.5l4.2,4.3l-5.3,14.7L89.8,84.8z M158.4,94.9V16.7h16L178.7,0h19.8l-4.3,16.7h15.7l10.2,9.7l-14.5,40.6H195
		l16.1,16l3.7-3.7l14,14.2l-17.3,17.3l-30.7-30.6l13-13.2H178v15.8l1.8-1.8l13.6,14l-17.6,17.6L158.4,94.9z M190.1,52.7l7.8-21.9
		h-20v9.1h15.4l-3.4,9.2h-12v3.6H190.1z M144,80.9l-1.2,3.4h-15.5l5.4-14.8l-11.9-11.9l4.2-11.4h-21.4l7.1-19.5h21.5l3.7-10.1h9.5
		l-3.7,10.1h15.6v17.8l-9.7,26.7l9.7,9.7v13L144,80.9z M136.1,60l5-13.7h-6.6l-3.3,8.8L136.1,60z M67.3,84.3l15.7-42.9H45.7
		l9.1-24.7h17.2L67.5,0H88l4.6,16.7h10.8l7,6.8L88.1,84.3H67.3z M201.5,71.9L222,51.5l10.2,10L211.7,82L201.5,71.9z"/>
	<path class="st3" d="M221,113.4l0.7-2h-10.6l-0.7,2l-8.4,0l-5.1,15.7h-2l5.1-15.7l-54.1,0l0.7-2H136l-0.7,2l-8.4,0l-2.6,7.9H97.9
		l-2.6,7.9h-0.1l5.1-15.7H86l0.4-1.3l-23.5,8.7l2.4-7.4H48.6l0.7-2H38.7l-6.5,19.9h10.6l2.6-7.9h1.8L42,139.1h10.6l5.1-15.7h2
		l-3.6,11l7-2.6l-2.4,7.3l10.6,0l3.8-11.8l4.4-1.6l-4.4,13.4h45.6l2.6-7.9h8.3l2.6-7.9h6.2l-5.1,15.7l8.3,0H196l2.6-7.9h8.3l2.6-7.9
		h6.2l-5.1,15.7l10.6,0l8.4-25.8H221z M163.7,129.1h-14.5l1.9-5.7h14.5L163.7,129.1z M184.3,129.1h-10.1l1.9-5.7h10.1L184.3,129.1z"
		/>
	<path class="st4" d="M60.6,121.4h-4.4l-5.1,15.7h-6.4l5.1-15.7h-6l-2.6,7.9H35l5.2-15.9h6.4l-0.7,2h16.8L60.6,121.4z M80.7,123.2
		l-7,2.6L70,137.1l-6.4,0l2.8-8.6l-7,2.6l2.6-7.9l21.3-7.9L80.7,123.2z M105.7,123.2l-4.5,13.9H78l2-6h16.8l2.6-7.9H105.7z
		 M93,129.3H80.6l2-6H95L93,129.3z M95.6,121.4H83.2l2-6h12.4L95.6,121.4z M119.5,137.1h-16.4l1.3-3.9h10l0.4-1.2h-9l1.3-3.9h9
		l0.4-1.2h-10l1.3-3.9H124L119.5,137.1z M144.5,137.1l-6.4,0l5.1-15.7h-10.4l-2.6,7.9h-6.4l4.5-13.9l8.4,0l0.7-2h6.4l-0.7,2h8.4
		L144.5,137.1z M169.5,137.1L169.5,137.1h-23.1l2-6h16.8l3.2-9.7h-16.8l2-6h23.1L169.5,137.1z M192.2,131.1h4.4l-2,6h-23.1l2-6h12.4
		l3.2-9.7h-11.4l2-6h17.8L192.2,131.1z M219.6,137.1l-6.4,0l5.1-15.7h-10.4l-2.6,7.9H199l4.5-13.9l8.4,0l0.7-2h6.4l-0.7,2h8.4
		L219.6,137.1z"/>
	
		<linearGradient id="SVGID_00000167397885983007649500000015869932686457647006_" gradientUnits="userSpaceOnUse" x1="36.0496" y1="-12.8271" x2="235.9121" y2="101.666">
		<stop  offset="0" style="stop-color:#CCE0FC"/>
		<stop  offset="0.1014" style="stop-color:#E1BFFD"/>
		<stop  offset="0.2355" style="stop-color:#F9ADE8"/>
		<stop  offset="0.3616" style="stop-color:#EDB07B"/>
		<stop  offset="0.4978" style="stop-color:#FDD195"/>
		<stop  offset="0.6564" style="stop-color:#FCE175"/>
		<stop  offset="0.8209" style="stop-color:#FAEC65"/>
		<stop  offset="0.988" style="stop-color:#DAF958"/>
		<stop  offset="1" style="stop-color:#000000"/>
	</linearGradient>
	<path style="fill:url(#SVGID_00000167397885983007649500000015869932686457647006_);" d="M108,24.1L86.7,82.3H70.2l15.7-42.9H48.6
		l7.6-20.7h18.5L70.1,2h16.4l4.6,16.7h11.5L108,24.1z M128.6,70.5L119,97l4.2,4.3l-3.8,10.5l-24.9-25h14.3l6.2,6.2l3.9-10.7H92.3
		L98,66.7h26.7L128.6,70.5z M145.2,71.9l10,10v7.3l-12-11.9l-1.8,5h-11.3L135,69L123,57.1l4.8-12.9h-21.4l5.6-15.5h21.5l3.7-10.1
		h5.2l-3.7,10.1h16.5v15.5L145.2,71.9z M133,44.3l-4.2,11.3l8.1,8l7-19.3H133z M179.8,83.9L190.6,95l-14.8,14.8l-15.4-15.7V18.7
		h15.6L180.3,2h15.7l-4.3,16.7h17.4l8.7,8.3l-13.6,38.1H176v22.6L179.8,83.9z M176,28.8v13.1h14.6l-1.9,5.2H176v7.6h15.5l9.3-25.9
		H176z M214.7,82.3l11.2,11.3l-14.5,14.5l-27.9-27.8l10.8-11l16.7,16.7L214.7,82.3z M204.3,71.9L222,54.3l7.4,7.2l-17.7,17.6
		L204.3,71.9z"/>
</g>
</svg>
