<?xml version="1.0" encoding="utf-8"?>
<!-- Generator: Adobe Illustrator 27.2.0, SVG Export Plug-In . SVG Version: 6.00 Build 0)  -->
<svg version="1.1" id="mileage" xmlns="http://www.w3.org/2000/svg" xmlns:xlink="http://www.w3.org/1999/xlink" x="0px" y="0px"
	 viewBox="0 0 115.8 115.8" style="enable-background:new 0 0 115.8 115.8;" xml:space="preserve">
<style type="text/css">
	.st0{clip-path:url(#SVGID_00000025426099368292428380000013245655196921160622_);}
	.st1{fill:#DDA463;}
	.st2{fill:#919191;}
	.st3{fill:#FF0000;}
	.st4{fill:url(#SVGID_00000129919521219473099410000000201021141817720242_);}
	.st5{opacity:0.62;clip-path:url(#SVGID_00000128455273005977313500000016115060851282621584_);fill:#FFFFFF;}
	.st6{clip-path:url(#SVGID_00000170254462145567915660000000824259811905210246_);}
	.st7{clip-path:url(#SVGID_00000049201009630709377020000006532658273823529135_);}
	.st8{fill:url(#SVGID_00000159457137675004714650000002759614345764940959_);}
</style>
<g>
	<g>
		<defs>
			<path id="SVGID_1_" d="M101.2,6.8H14.6c-4.3,0-7.9,3.5-7.9,7.9v86.5c0,4.3,3.5,7.9,7.9,7.9h86.5c4.3,0,7.9-3.5,7.9-7.9V14.6
				C109,10.3,105.5,6.8,101.2,6.8z"/>
		</defs>
		<clipPath id="SVGID_00000051367725491117748390000009722858245968551567_">
			<use xlink:href="#SVGID_1_"  style="overflow:visible;"/>
		</clipPath>
		<g transform="matrix(1 0 0 1 0 0)" style="clip-path:url(#SVGID_00000051367725491117748390000009722858245968551567_);">
			
				<image style="overflow:visible;" width="2280" height="3000" xlink:href="19E696A4.jpg"  transform="matrix(5.080971e-02 0 0 5.080971e-02 -2.310166e-02 -2.304677e-02)">
			</image>
		</g>
	</g>
	<g>
		<defs>
			<path id="SVGID_00000030458987664434285810000009786525000930109074_" d="M95.5,109H20.3c-7.5,0-13.6-6.1-13.6-13.6V20.3
				c0-7.5,6.1-13.6,13.6-13.6h75.1c7.5,0,13.6,6.1,13.6,13.6v75.1C109,103,103,109,95.5,109z"/>
		</defs>
		<clipPath id="SVGID_00000165944536571936694280000001219710954044485565_">
			<use xlink:href="#SVGID_00000030458987664434285810000009786525000930109074_"  style="overflow:visible;"/>
		</clipPath>
		<g style="clip-path:url(#SVGID_00000165944536571936694280000001219710954044485565_);">
			<g>
				<path class="st1" d="M101.1,56.9c-0.5-3.5-2-6.4-4.3-9c-3.7-4.2-8.2-6.8-14-6.8c-15.9,0-31.8,0-47.7,0c-4.3,0-8,1.2-11.4,3.7
					c-2.6,1.9-4.7,4.3-6.1,7.1c-1.1,2-1.6,4.3-1.7,6.7c-0.1,3.5,0,6.8,1.6,9.9c1,1.9,2.1,3.8,3.8,5.3c1.5,1.4,3,2.7,4.8,3.7
					c1.9,1,3.9,1.8,6,2.1l0.2,0H82c0,0,3-0.2,4.5-0.6c1.3-0.4,2.6-0.7,3.9-1.3c3.7-1.7,6.4-4.5,8.3-8
					C101,65.8,101.7,61.5,101.1,56.9z M86.1,74.7c-0.9,0.3-1.9,0.4-2.8,0.4c-0.3,0.3-0.6,0.2-0.9,0.2v0h0c-0.1,0-0.1,0-0.2,0
					c-0.6,0-1.3,0-1.9,0h-5.8c-0.7,0-1.4,0-2.1,0c-0.2,0-0.3,0-0.4,0h-1.2c-0.2-0.1-0.5,0-0.7,0h-6.2v0c-4,0-8,0-12,0
					c-3.2,0-6.3,0-9.5,0c-0.4,0-0.8,0.1-1.1-0.2c-2.4,0-4.8,0-7.2,0c-3-0.1-5.7-1.1-8-3c-0.1-0.1-0.1-0.1-0.2-0.2l0,0
					c-0.2,0-0.3-0.1-0.4-0.2c-0.1-0.1-0.1-0.1-0.2-0.2l0,0c-0.1-0.1-0.1-0.1-0.2-0.2c-0.1-0.1-0.1-0.1-0.2-0.2l0,0
					c-0.1-0.1-0.1-0.1-0.2-0.2l0,0c-0.1-0.1-0.1-0.1-0.2-0.2c-0.2-0.1-0.2-0.2-0.2-0.4l0,0c-0.1-0.1-0.1-0.1-0.2-0.2l0,0
					c-0.1-0.1-0.1-0.2-0.2-0.2c-1.7-2.1-2.6-4.7-3.1-7.4c-0.3-1.4-0.3-2.7,0-4.1c0.7-3.5,2.3-6.6,4.9-9c2.7-2.4,5.9-3.8,9.5-3.8
					c15.5,0,31.1,0,46.6,0c2.8,0,5.5,0.4,7.9,1.9c3.8,2.5,6.7,5.7,7.4,10.3C97.8,65.2,93.8,72.6,86.1,74.7z"/>
				<path class="st2" d="M101.7,45.2c-2.4-2.6-4.9-5.2-7.5-7.5c-4.3-3.8-8.7-7.5-13.5-10.6c-2.5-1.6-5.3-2.9-7.9-4.4
					c-3.2-1.8-6.6-3.3-10.1-4.3c-2.4-0.7-4.8-1.5-7.4-1.8c-3.1-0.4-6.1-1.1-9.2-1.3c-1.8-0.1-3.6-0.2-5.3-0.5
					c-3.5-0.4-6.9-0.3-10.2,1c-3.2,1.3-5.8,3.6-8,6.3c-3.8,4.6-6.2,10-8,15.6c-0.2,0.5-0.3,0.8-0.8,1.1c-1.8,1.2-3.6,1.9-5.8,1.6
					c-0.6-0.1-1.3,0-1.9,0c-0.2,0-0.4,0-0.6,0.2c-0.2,0.2-0.1,2.5,0.1,2.6C7,44,8.1,45.5,10,45.4c0.4,0,0.7-0.1,1,0.3
					c0.9,1.5,2,3,1.2,4.8c-0.3,0.7,0,1.5-0.6,2.1c-2.6,2.7-5.2,5.3-7.7,8c-1.6,1.8-3.4,3.4-5.2,5.1c-0.6,0.6-0.8,2.6-0.2,3
					c0.7,0.5,1.5,0.9,2.3,1.4c0.2,0.1,0.4,0.2,0.6,0c0.4-0.6,1.5-1,0.7-2.1c-0.3-0.4,0.1-0.6,0.3-0.8c1-1.1,2.1-2.1,3.1-3.1
					c1.4-1.4,2.8-2.8,4.3-4.3c0.1,0,0.2,0.1,0.3,0.1c0,0.3,0,0.6-0.1,0.9c-0.9,4.4-1.9,8.8-2.8,13.2c-0.1,0.6,0,0.9,0.5,1.1
					c5.9,2.6,11.7,5.7,17.7,7.9c3.8,1.4,7.6,2.3,11.8,2.1c4.5-0.2,9-0.1,13.5-0.1c16.1,0,32.2,0,48.4,0c0.2,0,0.4,0,0.5,0
					c0.5,0.1,0.8-0.2,0.8-0.7c0-1.4,0-2.9,0-4.3c0-0.6-0.3-0.7-0.8-0.7c-0.6,0-1.2,0.1-1.8-0.1c0.2-0.3,0.3-0.5,0.5-0.7
					c1.9-1.4,3.3-3.2,4.8-5c2.5-3,4-6.5,4.4-10.3C108.1,56.5,106.4,50.3,101.7,45.2z M10.2,59.6L10.2,59.6L10.2,59.6L10.2,59.6z
					 M17.9,39.9c0.3-2.1,1.1-4.1,1.9-6c1.2-3.3,2.9-6.3,5.3-8.8c3.1-3.3,6.8-5.7,11.5-5.9c1.9-0.1,3.8,0.3,5.8,0.6
					c5.6,0.6,11.1,1.6,16.6,2.9c6,1.5,12,2.8,17.5,5.6c2.5,1.2,4.5,3.1,6.5,4.9c1.5,1.4,3.1,2.7,4.4,4.2c-15.9-0.3-31.9,0-47.8-0.1
					c-2.1,0-4.3,0-6.4,0.1c-3,0.2-5.8,1.1-8.4,2.6c-1,0.6-2,0.8-3.2,0.7c-1-0.1-1.9,0-2.9,0C18,40.7,17.8,40.5,17.9,39.9z
					 M98.7,69.8c-2,3.5-4.6,6.3-8.3,8c-1.2,0.6-2.6,0.9-3.9,1.3c-1.7,0.5-3.3,0.7-5.1,0.7c-12.1-0.1-24.2,0-36.3-0.1
					c-0.1,0-0.1,0-0.2,0H32c-2.1-0.3-4.1-1.1-6-2.1c-1.8-1-3.3-2.3-4.8-3.7c-1.6-1.5-2.8-3.3-3.8-5.3c-1.6-3.1-1.8-6.5-1.6-9.9
					c0.1-2.4,0.6-4.6,1.7-6.7c1.5-2.8,3.5-5.2,6.1-7.1c3.4-2.5,7.1-3.8,11.4-3.7c15.9,0.1,31.8,0,47.7,0c5.8,0,10.3,2.6,14,6.8
					c2.2,2.6,3.8,5.6,4.3,9C101.7,61.5,101,65.8,98.7,69.8z"/>
			</g>
			<path class="st3" d="M96,85.2c-1.6-2.6-3.2-5.2-4.8-7.8c0,0,0,0,0,0c-0.3,0.1-0.6,0.3-0.9,0.4c-1.2,0.6-2.6,0.9-3.9,1.3
				c-1.7,0.5-3.3,0.7-5.1,0.7c-12.1-0.1-24.2,0-36.3-0.1c-0.1,0-0.1,0-0.2,0h-1.7v5.6c1.2,0,2.5,0,3.7,0c1.2,0,2.6,0,3.7,0L96,85.2z
				"/>
			<path class="st3" d="M87.3,71.1L80.4,66c-0.3-0.2-0.2-0.6,0-0.7l5.2-3.2c0.3-0.2,0.6,0,0.7,0.3l1.3,8.5
				C87.6,71.1,87.4,71.2,87.3,71.1z"/>
			<path class="st3" d="M43.1,72.7l-3.3-7.9c-0.1-0.3,0.1-0.6,0.4-0.6h6.1c0.3,0,0.5,0.3,0.4,0.6l-3.3,7.9
				C43.4,72.9,43.1,72.9,43.1,72.7z"/>
		</g>
	</g>
	
		<linearGradient id="SVGID_00000014605046959242514790000009949617571158273181_" gradientUnits="userSpaceOnUse" x1="372.1634" y1="858.7731" x2="488.0096" y2="858.7731" gradientTransform="matrix(0 -1 1 0 -800.8732 487.9865)">
		<stop  offset="8.790836e-02" style="stop-color:#FFC546"/>
		<stop  offset="0.9071" style="stop-color:#FBF499"/>
	</linearGradient>
	<path style="fill:url(#SVGID_00000014605046959242514790000009949617571158273181_);" d="M0,11v93.8c0,6.1,4.9,11,11,11h93.8
		c6.1,0,11-4.9,11-11V11c0-6.1-4.9-11-11-11H11C4.9,0,0,4.9,0,11z M101.2,6.8c4.3,0,7.9,3.5,7.9,7.9v86.5c0,4.3-3.5,7.9-7.9,7.9
		H14.6c-4.3,0-7.9-3.5-7.9-7.9V14.6c0-4.3,3.5-7.9,7.9-7.9H101.2z"/>
</g>
<g>
	<defs>
		<path id="SVGID_00000026851329130518775920000001261844810378295225_" d="M0,11v93.8c0,6.1,4.9,11,11,11h93.8c6.1,0,11-4.9,11-11
			V11c0-6.1-4.9-11-11-11H11C4.9,0,0,4.9,0,11z"/>
	</defs>
	<clipPath id="SVGID_00000172436394765072813300000012604565001644722367_">
		<use xlink:href="#SVGID_00000026851329130518775920000001261844810378295225_"  style="overflow:visible;"/>
	</clipPath>
	
		<rect x="0" style="opacity:0.62;clip-path:url(#SVGID_00000172436394765072813300000012604565001644722367_);fill:#FFFFFF;" width="115.8" height="115.8"/>
</g>
<g>
	<defs>
		<polygon id="SVGID_00000101791617526826531860000013482689011927739322_" points="116,0 -0.2,0 -0.2,80.4 37.8,67.1 39.2,62.5 
			49.2,63.1 116,39.7 		"/>
	</defs>
	<clipPath id="SVGID_00000011003905208441128130000000385966413860358548_">
		<use xlink:href="#SVGID_00000101791617526826531860000013482689011927739322_"  style="overflow:visible;"/>
	</clipPath>
	<g style="clip-path:url(#SVGID_00000011003905208441128130000000385966413860358548_);">
		<g>
			<defs>
				<path id="SVGID_00000071530947923774072960000005205597074156831415_" d="M101.2,6.8H14.6c-4.3,0-7.9,3.5-7.9,7.9v86.5
					c0,4.3,3.5,7.9,7.9,7.9h86.5c4.3,0,7.9-3.5,7.9-7.9V14.6C109,10.3,105.5,6.8,101.2,6.8z"/>
			</defs>
			<clipPath id="SVGID_00000000933251417714475790000016032077886125884326_">
				<use xlink:href="#SVGID_00000071530947923774072960000005205597074156831415_"  style="overflow:visible;"/>
			</clipPath>
			<g transform="matrix(1 0 0 1 0 0)" style="clip-path:url(#SVGID_00000000933251417714475790000016032077886125884326_);">
				
					<image style="overflow:visible;" width="2280" height="3000" xlink:href="19E696AB.jpg"  transform="matrix(5.080971e-02 0 0 5.080971e-02 -2.310166e-02 -2.304677e-02)">
				</image>
			</g>
		</g>
		<g>
			<defs>
				<path id="SVGID_00000021841251653284929610000006501968446809488548_" d="M95.5,109H20.3c-7.5,0-13.6-6.1-13.6-13.6V20.3
					c0-7.5,6.1-13.6,13.6-13.6h75.1c7.5,0,13.6,6.1,13.6,13.6v75.1C109,103,103,109,95.5,109z"/>
			</defs>
			<clipPath id="SVGID_00000007427308663479099810000013269329199923955360_">
				<use xlink:href="#SVGID_00000021841251653284929610000006501968446809488548_"  style="overflow:visible;"/>
			</clipPath>
			<g style="clip-path:url(#SVGID_00000007427308663479099810000013269329199923955360_);">
				<g>
					<path class="st1" d="M101.1,56.9c-0.5-3.5-2-6.4-4.3-9c-3.7-4.2-8.2-6.8-14-6.8c-15.9,0-31.8,0-47.7,0c-4.3,0-8,1.2-11.4,3.7
						c-2.6,1.9-4.7,4.3-6.1,7.1c-1.1,2-1.6,4.3-1.7,6.7c-0.1,3.5,0,6.8,1.6,9.9c1,1.9,2.1,3.8,3.8,5.3c1.5,1.4,3,2.7,4.8,3.7
						c1.9,1,3.9,1.8,6,2.1l0.2,0H82c0,0,3-0.2,4.5-0.6c1.3-0.4,2.6-0.7,3.9-1.3c3.7-1.7,6.4-4.5,8.3-8
						C101,65.8,101.7,61.5,101.1,56.9z M86.1,74.7c-0.9,0.3-1.9,0.4-2.8,0.4c-0.3,0.3-0.6,0.2-0.9,0.2v0h0c-0.1,0-0.1,0-0.2,0
						c-0.6,0-1.3,0-1.9,0h-5.8c-0.7,0-1.4,0-2.1,0c-0.2,0-0.3,0-0.4,0h-1.2c-0.2-0.1-0.5,0-0.7,0h-6.2v0c-4,0-8,0-12,0
						c-3.2,0-6.3,0-9.5,0c-0.4,0-0.8,0.1-1.1-0.2c-2.4,0-4.8,0-7.2,0c-3-0.1-5.7-1.1-8-3c-0.1-0.1-0.1-0.1-0.2-0.2l0,0
						c-0.2,0-0.3-0.1-0.4-0.2c-0.1-0.1-0.1-0.1-0.2-0.2l0,0c-0.1-0.1-0.1-0.1-0.2-0.2c-0.1-0.1-0.1-0.1-0.2-0.2l0,0
						c-0.1-0.1-0.1-0.1-0.2-0.2l0,0c-0.1-0.1-0.1-0.1-0.2-0.2c-0.2-0.1-0.2-0.2-0.2-0.4l0,0c-0.1-0.1-0.1-0.1-0.2-0.2l0,0
						c-0.1-0.1-0.1-0.2-0.2-0.2c-1.7-2.1-2.6-4.7-3.1-7.4c-0.3-1.4-0.3-2.7,0-4.1c0.7-3.5,2.3-6.6,4.9-9c2.7-2.4,5.9-3.8,9.5-3.8
						c15.5,0,31.1,0,46.6,0c2.8,0,5.5,0.4,7.9,1.9c3.8,2.5,6.7,5.7,7.4,10.3C97.8,65.2,93.8,72.6,86.1,74.7z"/>
					<path class="st2" d="M101.7,45.2c-2.4-2.6-4.9-5.2-7.5-7.5c-4.3-3.8-8.7-7.5-13.5-10.6c-2.5-1.6-5.3-2.9-7.9-4.4
						c-3.2-1.8-6.6-3.3-10.1-4.3c-2.4-0.7-4.8-1.5-7.4-1.8c-3.1-0.4-6.1-1.1-9.2-1.3c-1.8-0.1-3.6-0.2-5.3-0.5
						c-3.5-0.4-6.9-0.3-10.2,1c-3.2,1.3-5.8,3.6-8,6.3c-3.8,4.6-6.2,10-8,15.6c-0.2,0.5-0.3,0.8-0.8,1.1c-1.8,1.2-3.6,1.9-5.8,1.6
						c-0.6-0.1-1.3,0-1.9,0c-0.2,0-0.4,0-0.6,0.2c-0.2,0.2-0.1,2.5,0.1,2.6C7,44,8.1,45.5,10,45.4c0.4,0,0.7-0.1,1,0.3
						c0.9,1.5,2,3,1.2,4.8c-0.3,0.7,0,1.5-0.6,2.1c-2.6,2.7-5.2,5.3-7.7,8c-1.6,1.8-3.4,3.4-5.2,5.1c-0.6,0.6-0.8,2.6-0.2,3
						c0.7,0.5,1.5,0.9,2.3,1.4c0.2,0.1,0.4,0.2,0.6,0c0.4-0.6,1.5-1,0.7-2.1c-0.3-0.4,0.1-0.6,0.3-0.8c1-1.1,2.1-2.1,3.1-3.1
						c1.4-1.4,2.8-2.8,4.3-4.3c0.1,0,0.2,0.1,0.3,0.1c0,0.3,0,0.6-0.1,0.9c-0.9,4.4-1.9,8.8-2.8,13.2c-0.1,0.6,0,0.9,0.5,1.1
						c5.9,2.6,11.7,5.7,17.7,7.9c3.8,1.4,7.6,2.3,11.8,2.1c4.5-0.2,9-0.1,13.5-0.1c16.1,0,32.2,0,48.4,0c0.2,0,0.4,0,0.5,0
						c0.5,0.1,0.8-0.2,0.8-0.7c0-1.4,0-2.9,0-4.3c0-0.6-0.3-0.7-0.8-0.7c-0.6,0-1.2,0.1-1.8-0.1c0.2-0.3,0.3-0.5,0.5-0.7
						c1.9-1.4,3.3-3.2,4.8-5c2.5-3,4-6.5,4.4-10.3C108.1,56.5,106.4,50.3,101.7,45.2z M10.2,59.6L10.2,59.6L10.2,59.6L10.2,59.6z
						 M17.9,39.9c0.3-2.1,1.1-4.1,1.9-6c1.2-3.3,2.9-6.3,5.3-8.8c3.1-3.3,6.8-5.7,11.5-5.9c1.9-0.1,3.8,0.3,5.8,0.6
						c5.6,0.6,11.1,1.6,16.6,2.9c6,1.5,12,2.8,17.5,5.6c2.5,1.2,4.5,3.1,6.5,4.9c1.5,1.4,3.1,2.7,4.4,4.2c-15.9-0.3-31.9,0-47.8-0.1
						c-2.1,0-4.3,0-6.4,0.1c-3,0.2-5.8,1.1-8.4,2.6c-1,0.6-2,0.8-3.2,0.7c-1-0.1-1.9,0-2.9,0C18,40.7,17.8,40.5,17.9,39.9z
						 M98.7,69.8c-2,3.5-4.6,6.3-8.3,8c-1.2,0.6-2.6,0.9-3.9,1.3c-1.7,0.5-3.3,0.7-5.1,0.7c-12.1-0.1-24.2,0-36.3-0.1
						c-0.1,0-0.1,0-0.2,0H32c-2.1-0.3-4.1-1.1-6-2.1c-1.8-1-3.3-2.3-4.8-3.7c-1.6-1.5-2.8-3.3-3.8-5.3c-1.6-3.1-1.8-6.5-1.6-9.9
						c0.1-2.4,0.6-4.6,1.7-6.7c1.5-2.8,3.5-5.2,6.1-7.1c3.4-2.5,7.1-3.8,11.4-3.7c15.9,0.1,31.8,0,47.7,0c5.8,0,10.3,2.6,14,6.8
						c2.2,2.6,3.8,5.6,4.3,9C101.7,61.5,101,65.8,98.7,69.8z"/>
				</g>
				<path class="st3" d="M101.7,45.2c-2.4-2.6-4.9-5.2-7.5-7.5c-0.1-0.1-0.3-0.2-0.4-0.4h-6.7c0,0,0.1,0.1,0.1,0.1
					c-1.7,0-53,0-54.1,0c-2.7,0.3-5.3,1-7.7,2.1c-0.3,0.1-0.5,0.3-0.8,0.4c-0.2,0.1-0.3,0.2-0.5,0.2c-1.8,1-3.4,2.1-4.8,3.5l2.5,2.6
					c0.6-0.5,1.2-1.1,1.8-1.5c3.4-2.5,7.1-3.8,11.4-3.7c28,0.1,47.2,0,47.7,0c5.8,0,10.3,2.6,14,6.8c2.2,2.6,3.8,5.6,4.3,9
					c0.7,4.6,0,8.9-2.3,12.9c-0.5,0.9-1.1,1.8-1.8,2.7c-0.2,0.3-0.5,0.6-0.7,0.9c0,0,0,0,0,0c-1,1.1-1.9,1.9-2.8,2.6
					c-0.3,0.2-0.5,0.4-0.8,0.6c0,0,0,0,0,0c-0.9,0.6-1.6,1-2.2,1.2c-1.6,0.7-3.2,1.1-3.9,1.3c-1.7,0.5-3.3,0.7-5.1,0.7
					c-12.1-0.1-24.2,0-36.3-0.1c-0.1,0-0.1,0-0.2,0h-1v5.2h13.8c12.3-0.5,25.1-0.3,33.1,0h9.4c0-0.1,0-0.3,0-0.4c0-0.7,0-3.6,0-4.3
					c0-0.1,0-0.4-0.2-0.6c-0.2-0.2-0.4-0.2-0.6-0.2c-1.7,0-1.8-0.1-1.8-0.1c-0.1-0.2,0.4-0.6,0.5-0.7c0.6-0.5,1.3-1.1,2.3-2.1
					c0,0,0,0,0,0c0.1-0.2,0.3-0.3,0.4-0.5c0.1-0.1,0.2-0.2,0.3-0.3c0,0,0,0,0,0c0.6-0.7,1.1-1.3,1.7-2c2.5-3,4-6.5,4.4-10.3
					C108.1,56.5,106.4,50.3,101.7,45.2z"/>
				<path class="st3" d="M43.7,71.7l-3.3-7.9c-0.1-0.3,0.1-0.6,0.4-0.6h6.1c0.3,0,0.5,0.3,0.4,0.6L44,71.7
					C44,71.8,43.8,71.8,43.7,71.7z"/>
				<path class="st3" d="M15.5,40.7l-7.7-3.8c-0.3-0.1-0.3-0.5-0.1-0.7l4.6-4c0.2-0.2,0.6-0.1,0.7,0.2l2.8,8.1
					C15.8,40.6,15.7,40.8,15.5,40.7z"/>
			</g>
		</g>
		
			<linearGradient id="SVGID_00000023255698694956615980000000766269503356713878_" gradientUnits="userSpaceOnUse" x1="665.8114" y1="567.1993" x2="781.6575" y2="567.1993" gradientTransform="matrix(0 -1 1 0 -509.2993 781.6345)">
			<stop  offset="8.790836e-02" style="stop-color:#FFC546"/>
			<stop  offset="0.9071" style="stop-color:#FBF499"/>
		</linearGradient>
		<path style="fill:url(#SVGID_00000023255698694956615980000000766269503356713878_);" d="M0,11v93.8c0,6.1,4.9,11,11,11h93.8
			c6.1,0,11-4.9,11-11V11c0-6.1-4.9-11-11-11H11C4.9,0,0,4.9,0,11z M101.2,6.8c4.3,0,7.9,3.5,7.9,7.9v86.5c0,4.3-3.5,7.9-7.9,7.9
			H14.6c-4.3,0-7.9-3.5-7.9-7.9V14.6c0-4.3,3.5-7.9,7.9-7.9H101.2z"/>
	</g>
</g>
</svg>
