<?xml version="1.0" encoding="utf-8"?>
<!-- Generator: Adobe Illustrator 27.2.0, SVG Export Plug-In . SVG Version: 6.00 Build 0)  -->
<svg version="1.1" xmlns="http://www.w3.org/2000/svg" xmlns:xlink="http://www.w3.org/1999/xlink" x="0px" y="0px"
	 viewBox="0 0 440.9 117.5" style="enable-background:new 0 0 440.9 117.5;" xml:space="preserve">
<style type="text/css">
	.st0{fill:#FFFFFF;stroke:#625D7C;stroke-width:3;stroke-miterlimit:10;}
	.st1{fill:url(#SVGID_1_);stroke:#625D7C;stroke-width:3;stroke-miterlimit:10;}
	
		.st2{clip-path:url(#SVGID_00000069384706133603696730000007447259617846037424_);fill:url(#SVGID_00000003101555946346872500000001006374954169967759_);}
	.st3{fill:url(#SVGID_00000090978789105526110700000000207859805402978956_);}
	.st4{fill:url(#SVGID_00000136390264592986208320000006170423995609275537_);}
	.st5{fill:#794015;}
</style>
<g id="レイヤー_1">
</g>
<g id="レイヤー_6">
	<path class="st0" d="M417.9,116H23c-11.9,0-21.5-9.6-21.5-21.5V23C1.5,11.1,11.1,1.5,23,1.5h394.9c11.9,0,21.5,9.6,21.5,21.5v71.5
		C439.4,106.4,429.8,116,417.9,116z"/>
	<linearGradient id="SVGID_1_" gradientUnits="userSpaceOnUse" x1="220.463" y1="5.202" x2="220.463" y2="112.7182">
		<stop  offset="1.855066e-02" style="stop-color:#FFFFFF"/>
		<stop  offset="0.7384" style="stop-color:#FDFDFE"/>
		<stop  offset="0.9748" style="stop-color:#F7F7F9"/>
	</linearGradient>
	<path class="st1" d="M417.9,116H23c-11.9,0-21.5-9.6-21.5-21.5V23C1.5,11.1,11.1,1.5,23,1.5h394.9c11.9,0,21.5,9.6,21.5,21.5v71.5
		C439.4,106.4,429.8,116,417.9,116z"/>
	<path class="st0" d="M417.9,116H23c-11.9,0-21.5-9.6-21.5-21.5V23C1.5,11.1,11.1,1.5,23,1.5h394.9c11.9,0,21.5,9.6,21.5,21.5v71.5
		C439.4,106.4,429.8,116,417.9,116z"/>
	<g>
		<defs>
			<path id="SVGID_00000016056625180744855090000009777647885412256690_" d="M23,112c-9.7,0-17.5-7.9-17.5-17.5V23
				c0-9.7,7.9-17.5,17.5-17.5h394.9c9.7,0,17.5,7.9,17.5,17.5v71.5c0,9.7-7.9,17.5-17.5,17.5H23z"/>
		</defs>
		<clipPath id="SVGID_00000013887680041333760500000001199589678746897056_">
			<use xlink:href="#SVGID_00000016056625180744855090000009777647885412256690_"  style="overflow:visible;"/>
		</clipPath>
		
			<linearGradient id="SVGID_00000005957628672601251470000011385543794044719550_" gradientUnits="userSpaceOnUse" x1="220.463" y1="8.9798" x2="220.463" y2="105.4022">
			<stop  offset="0" style="stop-color:#FFFFFF"/>
			<stop  offset="0.4123" style="stop-color:#FCFCFD"/>
			<stop  offset="0.7114" style="stop-color:#F4F3F7"/>
			<stop  offset="0.9745" style="stop-color:#E5E3EC"/>
			<stop  offset="1" style="stop-color:#E3E1EB"/>
		</linearGradient>
		
			<path style="clip-path:url(#SVGID_00000013887680041333760500000001199589678746897056_);fill:url(#SVGID_00000005957628672601251470000011385543794044719550_);" d="
			M417.9,116H23c-11.9,0-21.5-9.6-21.5-21.5V23C1.5,11.1,11.1,1.5,23,1.5h394.9c11.9,0,21.5,9.6,21.5,21.5v71.5
			C439.4,106.4,429.8,116,417.9,116z"/>
	</g>
	
		<linearGradient id="SVGID_00000079484716918644078300000005093756244726128793_" gradientUnits="userSpaceOnUse" x1="261.7521" y1="58.7576" x2="435.4259" y2="58.7576">
		<stop  offset="7.148230e-02" style="stop-color:#E9E9EE"/>
		<stop  offset="0.5692" style="stop-color:#FFFFFF"/>
	</linearGradient>
	<path style="fill:url(#SVGID_00000079484716918644078300000005093756244726128793_);" d="M328.3,112L261.8,5.5h156.2
		c9.7,0,17.5,7.9,17.5,17.5v71.5c0,9.7-7.9,17.5-17.5,17.5H328.3z"/>
	
		<linearGradient id="SVGID_00000040565324303115056260000001713174155709725862_" gradientUnits="userSpaceOnUse" x1="261.7521" y1="58.7576" x2="435.4259" y2="58.7576">
		<stop  offset="0.3875" style="stop-color:#E9E9EE"/>
		<stop  offset="0.9736" style="stop-color:#FFFFFF"/>
	</linearGradient>
	<path style="fill:url(#SVGID_00000040565324303115056260000001713174155709725862_);" d="M261.8,112L368.3,5.5h49.6
		c9.7,0,17.5,7.9,17.5,17.5v71.5c0,9.7-7.9,17.5-17.5,17.5H261.8z"/>
	<path class="st5" d="M113.2,64.4c-0.6-5.7-0.8-11.3-0.8-16.5c0-3.1,0-6,0.2-8.7l8.9,0.4c-0.2,3.5-0.3,6.9-0.3,10.4
		c0,4.6,0.2,9.2,0.7,13.7L113.2,64.4z M126.1,76.4c7.8-11.1,11.3-22.1,12.4-37.9l9,0.7c-1.4,16.2-5.9,29.5-13.1,40.5L126.1,76.4z
		 M204.9,77.7c-5.4,0.4-13.1,0.6-18.3,0.6c-8.6,0-13.1-1.3-13.1-9.8V54.6l-7.8,0.5l-0.6-8.3l8.4-0.6V38h8.3v7.6l25.5-1.8
		c-1.8,7.5-4.8,15.5-7.7,21.5l-8.3-2.1c1.8-3,3.6-7,4.8-10.3L181.9,54v12.5c0,3.3,1.3,3.7,5,3.7c2.8,0,10.6-0.2,17.6-0.6L204.9,77.7
		z M230.9,62.7c-1.5-5.7-2.9-10.6-4.7-15.5l7.4-2.2c1.8,4.6,3.4,9.7,4.9,15.6L230.9,62.7z M242.1,61c-1.2-5.8-2.5-10.8-4.3-15.7
		l7.6-1.9c1.8,4.8,3.2,9.8,4.3,15.6L242.1,61z M237.9,74.8c8.9-8.2,13.9-16.2,16.5-29.8l8.5,1.7c-3.2,13.7-8.8,23.9-17.5,32.5
		L237.9,74.8z M318.2,66.4c-6.9-2.7-14.7-5.6-20.7-7.5v20.5H289V37.7h8.5v12.4c8.8,2.6,16.3,5.2,24.3,8.5L318.2,66.4z"/>
</g>
</svg>
