<?xml version="1.0" encoding="utf-8"?>
<!-- Generator: Adobe Illustrator 26.5.1, SVG Export Plug-In . SVG Version: 6.00 Build 0)  -->
<svg version="1.1" xmlns="http://www.w3.org/2000/svg" xmlns:xlink="http://www.w3.org/1999/xlink" x="0px" y="0px"
	 viewBox="0 0 115.8 115.8" style="enable-background:new 0 0 115.8 115.8;" xml:space="preserve">
<style type="text/css">
	.st0{fill:url(#SVGID_1_);}
	.st1{fill:#ACACAC;}
	.st2{fill:#9E9E9E;}
	.st3{fill:#B4B4B4;}
	.st4{fill:#A0A0A0;}
	.st5{fill:#9F9F9F;}
	.st6{fill:#F5F5F5;}
	.st7{fill:#B0B0B0;}
	.st8{fill:#DBDBDB;}
	.st9{fill:#D9D9D9;}
	.st10{fill:#E6E6E6;}
	.st11{fill:#A8A8A8;}
	.st12{fill:#A9A9A9;}
	.st13{fill:#D6D6D6;}
	.st14{fill:#DADADA;}
	.st15{fill:#BEBEBE;}
	.st16{fill:#B7B7B7;}
	.st17{fill:#B9B9B9;}
	.st18{fill:#CBCBCB;}
	.st19{fill:#BDBDBD;}
	.st20{fill:#C5C5C5;}
	.st21{fill:#E0E0E0;}
	.st22{fill:#DCDCDC;}
	.st23{fill:#E1E1E1;}
	.st24{fill:#F3F3F3;}
</style>
<g id="レイヤー_1">
</g>
<g id="レイヤー_15">
	<g>
		<linearGradient id="SVGID_1_" gradientUnits="userSpaceOnUse" x1="57.925" y1="109.8234" x2="57.925" y2="6.7375">
			<stop  offset="8.790836e-02" style="stop-color:#CACACA"/>
			<stop  offset="0.9071" style="stop-color:#EFEFEF"/>
		</linearGradient>
		<path class="st0" d="M104.8,0H11C4.9,0,0,4.9,0,11v93.8c0,6.1,4.9,11,11,11h93.8c6.1,0,11-4.9,11-11V11C115.8,4.9,110.9,0,104.8,0
			z"/>
		<g>
			<path class="st1" d="M6.5,80c-0.4-15.7-0.4-31.5,0-47.2c0.6-5.5,3.5-9.8,7.2-13.7C19,13.3,25,8.9,32,5.9
				c16.8-0.4,33.6-0.4,50.5,0c4.5,1.9,9.1,3.6,12.2,7.9c-1.5,1.6-3,3.1-3.8,5.2c-1.7,1.1-3.7,1-5.6,1c-1.6-2.3-3.5-1.6-5.5-0.5
				c-4.5,2.4-13.1-0.3-15.1-5.2c-0.9-2.2-2.2-3.1-4.3-3.2C56.9,8.4,53.4,9,49.5,10c-7.2,2.1-13.9,6.2-21.7,6.4c-2,0-3.3,1.1-4.3,2.8
				c-1.2,1.6-2.7,3-4.2,4.3c-1.5,2.1-4.8,2.9-4.4,6.3c0.6,2.8,0.4,5.6-0.7,8.3c-5.1,13.1-5,26.1-0.1,39.2c0.3,0.8,0.4,1.6,0.5,2.4
				c-0.6,3,1.4,5.1,2.8,7.4c1.1,1.8,2.1,3.6,2.6,5.7c0.2,1.3,0.1,2.5-0.6,3.6c-0.9,0.9-2,0.5-2.6-0.2C12.6,91.5,7.7,86.9,6.5,80z"/>
			<path class="st2" d="M32,5.9c-0.8,1.7-2.3,2.7-4,3.5C17.9,14.4,11.2,22.6,6.6,32.8c-0.1-6.3-0.3-12.6-0.4-18.8
				c-0.6-4.4,2.6-8,7.7-8.2C19.9,5.6,26,5.8,32,5.9z"/>
			<path class="st2" d="M94.3,13.9c-3.9-2.7-8.4-4.7-11.9-8c6-0.1,12.1-0.1,18.1-0.2c3.4-0.1,6,1.2,7.6,4.3
				c1.8,5.1,0.8,10.3,0.9,15.4c-2.1,4.1-3.9,0.7-4.9-0.6c-2.7-3.2-5.6-6.2-8.9-8.9C94.7,15.4,94.4,14.7,94.3,13.9z"/>
			<path class="st3" d="M108.2,26.9c0-5.6,0-11.3,0-16.9c0.4,0.6,0.7,1.3,1.1,1.9c0.6,1.1,0.4,2.3,0.4,3.4c0,28.4,0,56.7,0,85.1
				c0,1.1,0.2,2.3-0.5,3.4c-0.3,0.3-0.7,0.6-1,0.9c-2.6-3.5-1.2-7.6-1.6-11.4c-0.2-2.1,0.2-4.3,0.1-6.4c-0.5-7.3,0.2-14.6-0.1-21.9
				c-0.2-5.4-0.2-10.8,0-16.2c0.3-5.3-0.3-10.6-0.1-15.8C106.7,30.8,106.4,28.6,108.2,26.9z"/>
			<path class="st4" d="M6.5,80c3.7,6,7,12.3,12.6,16.9c4.6,1.9,7.8,5.9,11.9,8.6c0.9,0.6,1.8,1.6,1.2,2.9c-0.5,1.2-1.6,1-2.5,0.9
				c-2.6-0.1-5.2,0.5-7.8-0.4c-14.3,0.9-15.6-0.3-15.6-14.6C6.3,89.5,6.5,84.7,6.5,80z"/>
			<path class="st1" d="M21.9,108.9c3.1,0,6.2,0,10.3,0c-4.2-5.3-10-7.3-13.1-12.1c0-1.3,0-2.6,0-4c1.5-0.6,1.8,0.7,2.5,1.5
				c0.7,1.1,1.4,2.2,2.3,3.1c1.6,1.8,3.4,3.1,5.6,3.9c15.2,4.4,30.5,4.7,46,2.2c2.3-0.4,4.5-1.2,6.8-0.6c1,2.1,1,2.1-2.3,4.4
				c1.7,0.5,3.6-0.1,5,1.1c0.1,0.2,0.2,0.4,0.3,0.6c-5.4,1-10.8,0.4-16.2,0.5c-14,0.1-28,0-42,0C25.4,109.5,23.6,110,21.9,108.9z"/>
			<path class="st5" d="M85.4,109.1l0-0.3c-0.5-2.1,1.1-3,2.4-3.9c6.3-4.3,11.5-9.9,16.2-15.9c1-1.3,1.9-3.4,4.3-2.1
				c0,5.9,0,11.9,0,17.8c-1.7,3.1-4.2,4.7-7.9,4.5C95.3,109,90.4,109.1,85.4,109.1z"/>
			<path class="st6" d="M60.8,11.2c2.6-3.1,4.2-1.2,4.4,1.4c0.2,4.6,3.9,4.1,6.4,5.4c2.7,1.4,5,3.5,8,0.1c1.1-1.3,3.4-2.4,5.3-1.4
				c1.2,0.6,0.2,2.1,0,3.2c0.1,0.3,0.4,0.7,0.2,0.9c-3.8,4.6-4.2,10.4-5.3,16c-0.7,3.5-3.5,5.9-6.6,7.3c0.4,1.8,1.8,1.9,2.7,2.4
				c3.1,1.7,5.3,1.6,6.7-2.5c1.5-4.3,6-5.4,9.2-2.7c2.6,2.2,3.3,4.8,1.3,7.9c-0.8,1.2-1.9,2.3-2.8,3.5c-6,7.5-7.2,7.8-15.9,4.2
				c-1.8-0.8-3.3-2.1-5.4-2c-0.7,0-1.3,0.3-1.5,1c-0.3,0.7,0.1,1.4,0.7,1.6c5.9,1.5,6.3,6.6,7.1,11.3c0.5,3,1,4.9,4.9,3.2
				c4.9-2.1,7.3,0.5,7.3,7.3c-2.6,6.2-8.3,8.6-13.7,11.3c-2,1-3.7-0.7-4.9-2.4c-1.8-4.1-2.6-8.5-3.8-12.7c-0.7-2.4-1.1-5.2-4.4-4.9
				c-3.1,0.3-6.8,0-8,4.2c-0.4,1.3-0.7,2.5-1.4,3.7c-2,2.9-4.9,3-7.9,2.9c-4.3-0.2-7.4,0.9-9.2,5.5c-1.6,4-4.5,4.6-8.8,3
				c-1.9-1.9-2.7-4.1-2.7-6.7c0.8-4.3,1-8.9,4.7-11.2c-3.3,0.2-6.9-0.5-8.8-4.9c0.2-2.1,0.1-4.2,0.4-6.3c0.4-4.3,3.5-6.4,7.4-5.4
				c0.7,6.6,1.2,6.9,7.4,4.3c1.6-0.7,3.3-1.3,5-1.7c6.2,0.1,6.1-5.2,7.5-9.1c-3.3-1-5,0.2-5.3,3.6c-0.2,3-1.7,5-4.7,5.5
				c-2.6,0.5-5-0.1-6.5-2.5c-1.6-2.6-1-5.1,0.7-7.4c2.5-3.2,4.2-7.2,8.1-9.1c4.7-0.9,9.4-0.5,14.1-0.1c0-0.8,1.8,2.2,0.7-0.2
				c-2.5-5.4-2.8-10.6,0.4-15.8c2.4-2.5,4.8-5,5-8.8C58.9,12.7,59.6,11.7,60.8,11.2z"/>
			<path class="st7" d="M69.7,87.5c2.1,2.4,4.2,2.4,6.8,0.3c3.7-3,8.3-4.7,10.5-9.3c-0.1-5.3,4.1-6.7,7.8-8.5
				c2.3-1.1,4.8-1.5,5.1-4.6c0.4-3.6-2.5-6-3.6-9.1c-0.3-0.9-1.5,0-2.2,0.3c-2.6,1.1-5,2.5-7.4,4c-3.8,2.3-10,0.8-12.4-2.8
				c-0.5-0.8-0.4-1.6,0.2-2.3c3.1,0.6,6.1,3.9,9.2,1.8c3.8-2.6,6.9-6.3,9.2-10.3c1.5-2.7-0.7-4.8-3.2-5.7c-2.6-0.9-5.1-0.2-6.2,2.5
				c-2.6,6.3-2.6,6.3-8.8,3.5c-1.6-0.7-3.2-1.5-5.7-2.7c8.5-3.4,11.5-9.2,10.7-17.5c-0.3-3.3,4.4-4.2,5.1-7.4
				c1.6-1.7,3.6-0.9,5.4-0.9c2.5,2.1,0.4,5.8,2.6,8.3c2.2-3.3-0.2-7.4,2.3-10.4c2.3-0.2,2.4,1.8,2.3,3c-0.6,5.7,2.3,9.7,6,13.5
				c-0.1,1.2-1.1,1.4-1.9,1.8c-1.3,0.7-2.3,1.7-1.4,3c1.1,1.6,2.1-0.3,3.3-0.5c2.9,1,2.6,3.8,3.3,6.1c0.5,1.7,0.5,3.6,1.4,5.2
				c0,5.3,0,10.7,0,16c-1.1,3.6-1,7.7-4.5,10.2c-0.8,0.3-0.6-1.5-1.1-0.8c-5,6.3-11.2,11.5-16.7,17.4c-1.7,1.2-3.4,2.7-4.4-0.6
				c-0.5-1.8-1.4-1.4-2.5-0.6c-1.8,1.2-3.3,2.7-4.9,4.1c-2.7,2.4-4.7,2-5.7-1.7C68.3,90.9,68,88.9,69.7,87.5z"/>
			<path class="st7" d="M19.2,66.8c2.2,3,5.2,4.3,9.6,4c-3,3.8-3.9,7.9-4.9,12c-0.9,5.1-1.6,5.5-5.7,2.5c-1.6-1.2-3.7-2.1-4-4.5
				c-6.3-14.1-7.1-28.4-1-42.7c1.3-3.2-0.4-6.4,1.3-9.3c2.6-1,3.6,2.1,5.8,2.4c2.9,0.7,5.1,1.8,5.1,5.4c0,4.6-3,6.1-6.5,7.3
				c-2.1,1.7-1.1,3.5-0.3,5.4C21.6,54.9,19.2,60.9,19.2,66.8z"/>
			<path class="st7" d="M60.8,11.2c-1,4.4-1.5,9.1-6.1,11.7c-3.9-1.4-7.7,1.7-11.6,0.1c-1-0.3-2-0.8-3,0.2c-2.7,4-6.1,7.2-11.2,8
				c-1.2,0.1-2.4,0-3.6-0.4c-1.4-0.6-2.1-1.9-3.4-2.6c-1.6-1.3-4.2-2.1-2.9-5c0.9-1.8,2.3-3.1,4-4.1c1.6-0.7,4.8,0.8,4.1-3.1
				c9.3-1.5,17.6-6.4,26.8-8.2C57.3,7.1,59.5,8,60.8,11.2z"/>
			<path class="st8" d="M14.2,80.7c2.6,1.9,5.2,3.8,8.1,6c0.6-1.5,1.2-2.7,1.7-3.9c-0.3,2.4,0.9,4.3,1.9,6.3c0,1.6,1.5,1.4,2.4,1.9
				c1.3,0.7,2.6,1.5,1.7,3.4c-2.8,2.7-5.9,2.5-9,0.6c-0.6-0.7-1.2-1.4-1.8-2.1c-1.5-2.7-3-5.3-4.6-8C13.8,83.5,12.3,82.3,14.2,80.7z
				"/>
			<path class="st9" d="M95.5,17c-0.1,3.1-0.1,6.3-0.2,9.4c0,1.6-0.4,3.1-2.3,3.2c-2.2,0.1-2.6-1.5-2.7-3.3c0-2.5-0.1-4.9-0.1-7.4
				c-0.1-2.8,0.3-5.3,4-5c0.4,0.3,0.8,0.7,1.1,1C95.9,15.6,96,16.3,95.5,17z"/>
			<path class="st6" d="M19,23.1c0.3,2.3,1.5,3.7,3.9,3.9c0.2,2.8-2.2,3.5-3.9,4.8c-2.3,0.2-2.2-3.2-4.5-3.1
				C13.9,25.1,17.2,24.7,19,23.1z"/>
			<path class="st10" d="M27,15.9c0,1.1,2.3,1.7,0.4,3.5c-2.1,2-3-0.2-4.4-0.5C23.6,16.9,24.1,14.7,27,15.9z"/>
			<path class="st11" d="M95.5,17c0-0.7,0-1.4-0.1-2.1c5.7,2.4,7.9,8.6,12.7,11.9c0,7.3,0,14.6,0,22c-3.3-2.9-2.4-7.7-4.8-11
				c-1.3-1.3-1.1-2.6-0.1-3.9c-4.7-2.7-7.6-6.4-6.9-12.2C96.5,20.2,96.8,18.4,95.5,17z"/>
			<path class="st12" d="M103.3,74.8c1.6-3.3,3.2-6.6,4.9-10c0,7.3,0,14.6,0,21.9c-4.1,1.9-5.6,6.3-8.5,9.3
				c-4.4,4.7-9.8,8.1-14.4,12.7c-2.6,0-5.2,0-8.1,0c0.8-3.7,4.5-3.1,6.2-4.9c0.5-1.8,2.3-2.1,3.5-2.9c4-2,6.3-5.4,7.6-9.6
				c1.7-4,3.3-8.1,5.1-12.1C100.5,77.5,101.1,75.4,103.3,74.8z"/>
			<path class="st9" d="M95.4,91.8c-0.8,4.9-3.6,8-8,10c-8.8,0.8-17.7,1.1-26.5,0c-4.3-0.6-8.5,0.8-12.8,0.7
				c-6.7-0.2-13.4,0.3-20.1-0.6c-2.5-0.3-3.8-2.1-5.1-3.9c2.6-2.4,5.9-1.5,8.8-1.6c7.8-0.3,15.6,0.4,23.4-0.5
				c2.1-0.1,3.6-1.1,4.8-2.9c1.3-2,2.3-4.8,5.3-4.4c3,0.4,3.4,3.2,4.4,5.4c0.9,2.2,1.9,1.6,3.2,0.3c2-1.9,4.2-3.7,6.3-5.4
				c1.8-1.5,3.5-2.4,3.4,1.4c-0.1,4.2,1.9,0.5,2.9,0.7C88.5,93.5,92,91.8,95.4,91.8z"/>
			<path class="st13" d="M28,101.8c2.5-0.8,5.1-1,7.8-1c14.6,0.1,29.2,0.1,43.8,0c2.7,0,5.2,0.3,7.8,1c-1.3,0.7-2.6,1.4-3.9,2
				c-6.6,0.8-13.2,1.9-19.9,2.5C51.5,107.2,39.5,106.6,28,101.8z"/>
			<path class="st14" d="M56.8,96.8c-2.8,1.6-5.8,1-8.7,1c-8.4,0.1-16.8,0.1-25.2,0.1c-1.1-0.7-1.8-1.7-2-3c3-0.8,6.7,1.5,9-2
				c3.1,0.3,2.3-4.2,5.2-4.1c2.9,5,3.8,5.2,8.6,1.9c2.2,0.8,3.9,1.2,5.3-1.7c1.8-3.6,4-3.4,6,0.2C56.4,91.4,58.7,93.7,56.8,96.8z"/>
			<path class="st15" d="M56.8,96.8c-0.6-3.7-1.7-8.3-4.7-9.2c-2.7-0.7-2.5,5-5.2,6.8c-1.8-0.4-1.6-2.8-3.1-3.5
				c-2.7-1.5-3.7-4-3.7-7c1.1-2.7,3.6-2.9,6-3c2.2-0.1,4.3-0.2,4.3-3.2c1.4-2.9-0.2-7.5,5.4-8.1c8.7-1,8.7-1.3,11,7.4
				c0.9,3.5,1.9,7.1,2.8,10.6c0,2.1-0.1,4.2-0.1,6.3c-0.7-0.9-1.5-1.7-2.2-2.6c-2.1-2.7-3.6-2.4-5.4,0.5
				C60.7,93.7,60.5,97.2,56.8,96.8z"/>
			<path class="st16" d="M19,31.8c-0.1-2.8,2.7-3.1,3.9-4.8c1.3,0.6,1.6,1.9,2.2,3.1c2.3,2.3,0.5,5.8,2.3,8.6
				c2.5-2.7,0.1-6.1,1.6-8.7c5.1-0.7,7.8-4.7,10.9-8c2.7,5.6,1.8,13.8-1.9,18c-2.4,3.3-4.8,6.6-7.2,10c-1.3,1.8-1.4,3.7,0.2,5.4
				c1.6,1.8,3.7,2,5.9,1.4c1.9-0.5,2.9-1.8,3-4c0.2-6,3.2-7.6,9-4.9c-2.8,2.3-6.2,4-6.3,8.6c0,1.7-2.2,1.7-3.5,2.3
				c-2.2,1-4.5,2.1-6.7,3.1c-2,0.9-4.1,1.5-5.9-0.2c-1.9-1.8-1.4-3.8,0-5.8c-1.7-2.7-5.6-3.6-6.3-7.3c0.1-2.5-1.2-4.2-3-5.8
				c1.7-1.7,4.6-0.3,6.1-2.6C25.3,37,23.8,33.9,19,31.8z"/>
			<path class="st15" d="M74.6,55.6c2.9,5.1,8.1,6.6,12.4,3.2c2.8-2.2,6.5-2.4,9-5c1.2-1.2,2.5-0.4,2.1,1.1
				c-0.7,2.6,0.9,3.9,1.9,5.7c2.8,4.7,1.2,8.8-4,10.3C92,72.1,89,74.7,87,78.5c-1.2-7.6-2.7-8-11.2-3.1c-1.7-3.7-1.8-7.7-2.8-11.5
				c-0.8-2.9-2-5.2-5.5-5.2c-1.2,0-3.2,0.5-2.4-1.8c0.6-1.8,0.6-4.9,3.8-4.1C70.9,53.4,72.7,54.7,74.6,55.6z"/>
			<path class="st17" d="M42.9,21.9c2.6,0.3,5.1,0.3,7.6-0.7c1.5-0.6,3.7-1.2,4.2,1.6c-2.3,5-3,10,0,15c0.7,1.1,1,2.2-1,2.1
				c-2.1-1.7-6.1,1.1-7.2-2.7C45,32.3,40.7,27.9,42.9,21.9z"/>
			<path class="st18" d="M42.9,21.9c0.5,5.4,3.4,10,4.8,15c1,3.5,4.7,0.6,6.1,3c-5.3,0-10.5,0-15.8,0c2.2-5.8,2-11.9,1.9-18
				C40.9,18.2,41.9,21.7,42.9,21.9z"/>
			<path class="st7" d="M50.5,77.7c2.1,3.6-1,3.7-2.9,4.1c-2.4,0.4-4.9,0.4-6.8,2.3c-3.3-0.2-4.2,2.9-6,4.6
				c-0.3,0.7-0.9,1.5-0.8,2.2c0.5,4.5-1.8,3.2-4.1,2.1c-1.7-1.2-3.9-1.5-5.2-3.2c-0.4-0.5-0.2-1,0.1-0.5c0,0.1,0.6-0.1,0.9-0.1
				c4.2,1.9,6.9-0.2,7.8-3.9c1-4.3,3.7-4.9,7.2-5.2C44.1,79.7,47.9,81,50.5,77.7z"/>
			<path class="st19" d="M31.7,71c2.8-2.6,5.1-4.9,7.5-7.1c1.2-1,2.7-1.7,4.1-0.9c1.3,0.9,0.6,2.4,0.3,3.7
				C42.6,72.2,40.9,72.9,31.7,71z"/>
			<path class="st20" d="M21,48.8c1.5,2.1,3,4.1,5.6,5.1c1.6,0.6,0.4,1.4-0.3,2c-4.3-0.1-6.8,2.3-6.1,6.4c0.3,1.8,0.9,3.4-1,4.6
				c-0.9-5,0.9-10.2-1.1-15.1c-0.4-0.9-0.7-1.8-1-2.7C18.4,47.7,19.7,47.8,21,48.8z"/>
			<path class="st20" d="M39,58.8c0.9-1.2,3.1-1.6,2.8-3.3c-1.1-5.9,3-6.7,7.1-7.6c-1.1,3.2-3.3,5.9-4.1,9.3
				C43.9,60.5,40.9,58.4,39,58.8z"/>
			<path class="st21" d="M95.4,91.8c-5,3.1-7.8,2.8-9.9-1c5.2-5.4,10.4-10.8,15.7-16.1c0.7-0.7,1.7-2.2,2.2,0.2
				C100.7,80.5,98,86.2,95.4,91.8z"/>
			<path class="st14" d="M103.2,34c0,1.3,0.1,2.6,0.1,3.9c-0.1,1.9-0.6,3.2-2.9,3c-1.7-0.1-2.3-1.2-2.1-2.7c0.1-1.6-0.9-3.9,1.9-4.3
				C101.2,33.8,102.3,33.9,103.2,34z"/>
			<path class="st22" d="M21,48.8c-1.3,0-2.6,0.1-4,0.1c-1.5-2.1-1.5-4.1,0-6.1C22.1,42.3,21,46,21,48.8z"/>
			<path class="st14" d="M29,29.9c1.7,2.7,0.9,5.8,1,8.7c0,1.7-1,2.3-2.5,2.3c-1.6,0-2.3-0.9-2.3-2.5c0-2.8,0-5.6,0-8.4
				C26.4,30,27.7,30,29,29.9z"/>
			<path class="st23" d="M34.8,88.7c1.3-6.5,1.5-6.7,6-4.6c1,2.3,2,4.6,3,6.9c-0.1,4.5-3.4,2.9-5.7,3C34.1,94.1,35.2,90.9,34.8,88.7
				z"/>
			<path class="st24" d="M95.9,69.6c-0.5-2.4-2.3-3.3-4.1-4.2c0.9-2.4,3.8-2.6,4-5.4C99.3,63.2,100.6,66.1,95.9,69.6z"/>
		</g>
	</g>
</g>
</svg>
