<?xml version="1.0" encoding="utf-8"?>
<!-- Generator: Adobe Illustrator 26.5.1, SVG Export Plug-In . SVG Version: 6.00 Build 0)  -->
<svg version="1.1" xmlns="http://www.w3.org/2000/svg" xmlns:xlink="http://www.w3.org/1999/xlink" x="0px" y="0px"
	 viewBox="0 0 115.8 115.8" style="enable-background:new 0 0 115.8 115.8;" xml:space="preserve">
<style type="text/css">
	.st0{fill:url(#SVGID_1_);}
	.st1{fill:#F2943B;}
	.st2{fill:#EF8045;}
	.st3{fill:#E69F6E;}
	.st4{fill:#EF8043;}
	.st5{fill:#F1953E;}
	.st6{fill:#F7F1D2;}
	.st7{fill:#F39D30;}
	.st8{fill:#F39D31;}
	.st9{fill:#F6D28D;}
	.st10{fill:#F6D959;}
	.st11{fill:#F7EFDB;}
	.st12{fill:#F6DDB3;}
	.st13{fill:#F28D3A;}
	.st14{fill:#F28F39;}
	.st15{fill:#F6D37A;}
	.st16{fill:#F6D167;}
	.st17{fill:#F6D47C;}
	.st18{fill:#F5B42A;}
	.st19{fill:#F5A92A;}
	.st20{fill:#F5B529;}
	.st21{fill:#F4AC29;}
	.st22{fill:#F6C836;}
	.st23{fill:#F39C37;}
	.st24{fill:#F5B133;}
	.st25{fill:#F5BB44;}
	.st26{fill:#F6BF2F;}
	.st27{fill:#F6D89B;}
	.st28{fill:#F6DB56;}
	.st29{fill:#F6DE57;}
	.st30{fill:#F6DD4B;}
	.st31{fill:#F6DB92;}
	.st32{fill:#F7EDCF;}
</style>
<g id="レイヤー_1">
</g>
<g id="レイヤー_15">
	<g>
		<linearGradient id="SVGID_1_" gradientUnits="userSpaceOnUse" x1="57.925" y1="109.8234" x2="57.925" y2="6.7375">
			<stop  offset="8.790836e-02" style="stop-color:#FFC546"/>
			<stop  offset="0.9071" style="stop-color:#FBF499"/>
		</linearGradient>
		<path class="st0" d="M104.8,0H11C4.9,0,0,4.9,0,11v93.8c0,6.1,4.9,11,11,11h93.8c6.1,0,11-4.9,11-11V11C115.8,4.9,110.9,0,104.8,0
			z"/>
		<g>
			<path class="st1" d="M6.5,80.2C6.1,64.5,6.2,48.8,6.6,33c0.6-5.5,3.5-9.8,7.2-13.7C19,13.6,25,9.2,32,6.2
				c16.8-0.4,33.6-0.4,50.5,0C87,8.1,91.6,9.8,94.6,14c-1.5,1.6-3,3.1-3.8,5.2c-1.7,1.1-3.7,1-5.6,1c-1.6-2.3-3.5-1.6-5.5-0.5
				c-4.5,2.4-13.1-0.3-15.1-5.2c-0.9-2.2-2.2-3.1-4.3-3.2c-3.4-2.7-6.9-2.1-10.7-1.1c-7.2,2.1-13.9,6.2-21.7,6.4
				c-2,0-3.3,1.1-4.3,2.8c-1.2,1.6-2.7,3-4.2,4.3C18,26,14.6,26.7,15,30.2c0.6,2.8,0.4,5.6-0.7,8.3c-5.1,13.1-5,26.1-0.1,39.2
				c0.3,0.8,0.4,1.6,0.5,2.4c-0.6,3,1.4,5.1,2.8,7.4c1.1,1.8,2.1,3.6,2.6,5.7c0.2,1.3,0.1,2.5-0.6,3.6c-0.9,0.9-2,0.5-2.6-0.2
				C12.6,91.8,7.7,87.2,6.5,80.2z"/>
			<path class="st2" d="M32,6.2c-0.8,1.7-2.3,2.7-4,3.5C17.9,14.7,11.2,22.9,6.6,33c-0.1-6.3-0.3-12.6-0.4-18.8
				c-0.6-4.4,2.6-8,7.7-8.2C19.9,5.9,26,6.1,32,6.2z"/>
			<path class="st2" d="M94.3,14.2c-3.9-2.7-8.4-4.7-11.9-8c6-0.1,12.1-0.1,18.1-0.2c3.4-0.1,6,1.2,7.6,4.3
				c1.8,5.1,0.8,10.3,0.9,15.4c-2.1,4.1-3.9,0.7-4.9-0.6c-2.7-3.2-5.6-6.2-8.9-8.9C94.7,15.6,94.4,15,94.3,14.2z"/>
			<path class="st3" d="M108.2,27.2c0-5.6,0-11.3,0-16.9c0.4,0.6,0.7,1.3,1.1,1.9c0.6,1.1,0.4,2.3,0.4,3.4c0,28.4,0,56.7,0,85.1
				c0,1.1,0.2,2.3-0.5,3.4c-0.3,0.3-0.7,0.6-1,0.9c-2.6-3.5-1.2-7.6-1.6-11.4c-0.2-2.1,0.2-4.3,0.1-6.4c-0.5-7.3,0.2-14.6-0.1-21.9
				c-0.2-5.4-0.2-10.8,0-16.2c0.3-5.3-0.3-10.6-0.1-15.8C106.7,31.1,106.4,28.9,108.2,27.2z"/>
			<path class="st4" d="M6.5,80.2c3.7,6,7,12.3,12.6,16.9c4.6,1.9,7.8,5.9,11.9,8.6c0.9,0.6,1.8,1.6,1.2,2.9c-0.5,1.2-1.6,1-2.5,0.9
				c-2.6-0.1-5.2,0.5-7.8-0.4c-14.3,0.9-15.6-0.3-15.6-14.6C6.3,89.8,6.5,85,6.5,80.2z"/>
			<path class="st5" d="M21.9,109.2c3.1,0,6.2,0,10.3,0c-4.2-5.3-10-7.3-13.1-12.1c0-1.3,0-2.6,0-4c1.5-0.6,1.8,0.7,2.5,1.5
				c0.7,1.1,1.4,2.2,2.3,3.1c1.6,1.8,3.4,3.1,5.6,3.9c15.2,4.4,30.5,4.7,46,2.2c2.3-0.4,4.5-1.2,6.8-0.6c1,2.1,1,2.1-2.3,4.4
				c1.7,0.5,3.6-0.1,5,1.1c0.1,0.2,0.2,0.4,0.3,0.6c-5.4,1-10.8,0.4-16.2,0.5c-14,0.1-28,0-42,0C25.4,109.8,23.6,110.2,21.9,109.2z"
				/>
			<path class="st4" d="M85.4,109.4l0-0.3c-0.5-2.1,1.1-3,2.4-3.9c6.3-4.3,11.5-9.9,16.2-15.9c1-1.3,1.9-3.4,4.3-2.1
				c0,5.9,0,11.9,0,17.8c-1.7,3.1-4.2,4.7-7.9,4.5C95.3,109.3,90.4,109.4,85.4,109.4z"/>
			<path class="st6" d="M60.8,11.5c2.6-3.1,4.2-1.2,4.4,1.4c0.2,4.6,3.9,4.1,6.4,5.4c2.7,1.4,5,3.5,8,0.1c1.1-1.3,3.4-2.4,5.3-1.4
				c1.2,0.6,0.2,2.1,0,3.2c0.1,0.3,0.4,0.7,0.2,0.9c-3.8,4.6-4.2,10.4-5.3,16c-0.7,3.5-3.5,5.9-6.6,7.3c0.4,1.8,1.8,1.9,2.7,2.4
				c3.1,1.7,5.3,1.6,6.7-2.5c1.5-4.3,6-5.4,9.2-2.7c2.6,2.2,3.3,4.8,1.3,7.9c-0.8,1.2-1.9,2.3-2.8,3.5c-6,7.5-7.2,7.8-15.9,4.2
				c-1.8-0.8-3.3-2.1-5.4-2c-0.7,0-1.3,0.3-1.5,1c-0.3,0.7,0.1,1.4,0.7,1.6c5.9,1.5,6.3,6.6,7.1,11.3c0.5,3,1,4.9,4.9,3.2
				c4.9-2.1,7.3,0.5,7.3,7.3C85,85.6,79.2,88,73.9,90.7c-2,1-3.7-0.7-4.9-2.4c-1.8-4.1-2.6-8.5-3.8-12.7c-0.7-2.4-1.1-5.2-4.4-4.9
				c-3.1,0.3-6.8,0-8,4.2c-0.4,1.3-0.7,2.5-1.4,3.7c-2,2.9-4.9,3-7.9,2.9c-4.3-0.2-7.4,0.9-9.2,5.5c-1.6,4-4.5,4.6-8.8,3
				c-1.9-1.9-2.7-4.1-2.7-6.7c0.8-4.3,1-8.9,4.7-11.2c-3.3,0.2-6.9-0.5-8.8-4.9c0.2-2.1,0.1-4.2,0.4-6.3c0.4-4.3,3.5-6.4,7.4-5.4
				c0.7,6.6,1.2,6.9,7.4,4.3c1.6-0.7,3.3-1.3,5-1.7c6.2,0.1,6.1-5.2,7.5-9.1c-3.3-1-5,0.2-5.3,3.6c-0.2,3-1.7,5-4.7,5.5
				c-2.6,0.5-5-0.1-6.5-2.5c-1.6-2.6-1-5.1,0.7-7.4c2.5-3.2,4.2-7.2,8.1-9.1c4.7-0.9,9.4-0.5,14.1-0.1c0-0.8,1.8,2.2,0.7-0.2
				c-2.5-5.4-2.8-10.6,0.4-15.8c2.4-2.5,4.8-5,5-8.8C58.9,13,59.6,11.9,60.8,11.5z"/>
			<path class="st7" d="M69.7,87.8c2.1,2.4,4.2,2.4,6.8,0.3c3.7-3,8.3-4.7,10.5-9.3c-0.1-5.3,4.1-6.7,7.8-8.5
				c2.3-1.1,4.8-1.5,5.1-4.6c0.4-3.6-2.5-6-3.6-9.1c-0.3-0.9-1.5,0-2.2,0.3c-2.6,1.1-5,2.5-7.4,4c-3.8,2.3-10,0.8-12.4-2.8
				c-0.5-0.8-0.4-1.6,0.2-2.3c3.1,0.6,6.1,3.9,9.2,1.8c3.8-2.6,6.9-6.3,9.2-10.3c1.5-2.7-0.7-4.8-3.2-5.7c-2.6-0.9-5.1-0.2-6.2,2.5
				c-2.6,6.3-2.6,6.3-8.8,3.5c-1.6-0.7-3.2-1.5-5.7-2.7c8.5-3.4,11.5-9.2,10.7-17.5c-0.3-3.3,4.4-4.2,5.1-7.4
				c1.6-1.7,3.6-0.9,5.4-0.9c2.5,2.1,0.4,5.8,2.6,8.3c2.2-3.3-0.2-7.4,2.3-10.4c2.3-0.2,2.4,1.8,2.3,3c-0.6,5.7,2.3,9.7,6,13.5
				c-0.1,1.2-1.1,1.4-1.9,1.8c-1.3,0.7-2.3,1.7-1.4,3c1.1,1.6,2.1-0.3,3.3-0.5c2.9,1,2.6,3.8,3.3,6.1c0.5,1.7,0.5,3.6,1.4,5.2
				c0,5.3,0,10.7,0,16c-1.1,3.6-1,7.7-4.5,10.2c-0.8,0.3-0.6-1.5-1.1-0.8c-5,6.3-11.2,11.5-16.7,17.4c-1.7,1.2-3.4,2.7-4.4-0.6
				c-0.5-1.8-1.4-1.4-2.5-0.6c-1.8,1.2-3.3,2.7-4.9,4.1c-2.7,2.4-4.7,2-5.7-1.7C68.3,91.1,68,89.2,69.7,87.8z"/>
			<path class="st8" d="M19.2,67.1c2.2,3,5.2,4.3,9.6,4c-3,3.8-3.9,7.9-4.9,12c-0.9,5.1-1.6,5.5-5.7,2.5c-1.6-1.2-3.7-2.1-4-4.5
				c-6.3-14.1-7.1-28.4-1-42.7c1.3-3.2-0.4-6.4,1.3-9.3c2.6-1,3.6,2.1,5.8,2.4c2.9,0.7,5.1,1.8,5.1,5.4c0,4.6-3,6.1-6.5,7.3
				c-2.1,1.7-1.1,3.5-0.3,5.4C21.6,55.2,19.2,61.2,19.2,67.1z"/>
			<path class="st8" d="M60.8,11.5c-1,4.4-1.5,9.1-6.1,11.7c-3.9-1.4-7.7,1.7-11.6,0.1c-1-0.3-2-0.8-3,0.2c-2.7,4-6.1,7.2-11.2,8
				c-1.2,0.1-2.4,0-3.6-0.4c-1.4-0.6-2.1-1.9-3.4-2.6c-1.6-1.3-4.2-2.1-2.9-5c0.9-1.8,2.3-3.1,4-4.1c1.6-0.7,4.8,0.8,4.1-3.1
				c9.3-1.5,17.6-6.4,26.8-8.2C57.3,7.3,59.5,8.3,60.8,11.5z"/>
			<path class="st9" d="M14.2,81c2.6,1.9,5.2,3.8,8.1,6c0.6-1.5,1.2-2.7,1.7-3.9c-0.3,2.4,0.9,4.3,1.9,6.3c0,1.6,1.5,1.4,2.4,1.9
				c1.3,0.7,2.6,1.5,1.7,3.4c-2.8,2.7-5.9,2.5-9,0.6c-0.6-0.7-1.2-1.4-1.8-2.1c-1.5-2.7-3-5.3-4.6-8C13.8,83.8,12.3,82.6,14.2,81z"
				/>
			<path class="st10" d="M95.5,17.3c-0.1,3.1-0.1,6.3-0.2,9.4c0,1.6-0.4,3.1-2.3,3.2c-2.2,0.1-2.6-1.5-2.7-3.3
				c0-2.5-0.1-4.9-0.1-7.4c-0.1-2.8,0.3-5.3,4-5c0.4,0.3,0.8,0.7,1.1,1C95.9,15.9,96,16.6,95.5,17.3z"/>
			<path class="st11" d="M19,23.3c0.3,2.3,1.5,3.7,3.9,3.9c0.2,2.8-2.2,3.5-3.9,4.8c-2.3,0.2-2.2-3.2-4.5-3.1
				C13.9,25.4,17.2,25,19,23.3z"/>
			<path class="st12" d="M27,16.2c0,1.1,2.3,1.7,0.4,3.5c-2.1,2-3-0.2-4.4-0.5C23.6,17.2,24.1,15,27,16.2z"/>
			<path class="st13" d="M95.5,17.3c0-0.7,0-1.4-0.1-2.1c5.7,2.4,7.9,8.6,12.7,11.9c0,7.3,0,14.6,0,22c-3.3-2.9-2.4-7.7-4.8-11
				c-1.3-1.3-1.1-2.6-0.1-3.9c-4.7-2.7-7.6-6.4-6.9-12.2C96.5,20.5,96.8,18.7,95.5,17.3z"/>
			<path class="st14" d="M103.3,75.1c1.6-3.3,3.2-6.6,4.9-10c0,7.3,0,14.6,0,21.9c-4.1,1.9-5.6,6.3-8.5,9.3
				c-4.4,4.7-9.8,8.1-14.4,12.7c-2.6,0-5.2,0-8.1,0c0.8-3.7,4.5-3.1,6.2-4.9c0.5-1.8,2.3-2.1,3.5-2.9c4-2,6.3-5.4,7.6-9.6
				c1.7-4,3.3-8.1,5.1-12.1C100.5,77.7,101.1,75.7,103.3,75.1z"/>
			<path class="st15" d="M95.4,92.1c-0.8,4.9-3.6,8-8,10c-8.8,0.8-17.7,1.1-26.5,0c-4.3-0.6-8.5,0.8-12.8,0.7
				c-6.7-0.2-13.4,0.3-20.1-0.6c-2.5-0.3-3.8-2.1-5.1-3.9c2.6-2.4,5.9-1.5,8.8-1.6c7.8-0.3,15.6,0.4,23.4-0.5
				c2.1-0.1,3.6-1.1,4.8-2.9c1.3-2,2.3-4.8,5.3-4.4c3,0.4,3.4,3.2,4.4,5.4c0.9,2.2,1.9,1.6,3.2,0.3c2-1.9,4.2-3.7,6.3-5.4
				c1.8-1.5,3.5-2.4,3.4,1.4c-0.1,4.2,1.9,0.5,2.9,0.7C88.5,93.8,92,92,95.4,92.1z"/>
			<path class="st16" d="M28,102.1c2.5-0.8,5.1-1,7.8-1c14.6,0.1,29.2,0.1,43.8,0c2.7,0,5.2,0.3,7.8,1c-1.3,0.7-2.6,1.4-3.9,2
				c-6.6,0.8-13.2,1.9-19.9,2.5C51.5,107.5,39.5,106.9,28,102.1z"/>
			<path class="st17" d="M56.8,97.1c-2.8,1.6-5.8,1-8.7,1c-8.4,0.1-16.8,0.1-25.2,0.1c-1.1-0.7-1.8-1.7-2-3c3-0.8,6.7,1.5,9-2
				c3.1,0.3,2.3-4.2,5.2-4.1c2.9,5,3.8,5.2,8.6,1.9c2.2,0.8,3.9,1.2,5.3-1.7c1.8-3.6,4-3.4,6,0.2C56.4,91.7,58.7,94,56.8,97.1z"/>
			<path class="st18" d="M56.8,97.1c-0.6-3.7-1.7-8.3-4.7-9.2c-2.7-0.7-2.5,5-5.2,6.8c-1.8-0.4-1.6-2.8-3.1-3.5
				c-2.7-1.5-3.7-4-3.7-7c1.1-2.7,3.6-2.9,6-3c2.2-0.1,4.3-0.2,4.3-3.2c1.4-2.9-0.2-7.5,5.4-8.1c8.7-1,8.7-1.3,11,7.4
				c0.9,3.5,1.9,7.1,2.8,10.6c0,2.1-0.1,4.2-0.1,6.3c-0.7-0.9-1.5-1.7-2.2-2.6c-2.1-2.7-3.6-2.4-5.4,0.5
				C60.7,94,60.5,97.5,56.8,97.1z"/>
			<path class="st19" d="M19,32.1c-0.1-2.8,2.7-3.1,3.9-4.8c1.3,0.6,1.6,1.9,2.2,3.1c2.3,2.3,0.5,5.8,2.3,8.6
				c2.5-2.7,0.1-6.1,1.6-8.7c5.1-0.7,7.8-4.7,10.9-8c2.7,5.6,1.8,13.8-1.9,18c-2.4,3.3-4.8,6.6-7.2,10c-1.3,1.8-1.4,3.7,0.2,5.4
				c1.6,1.8,3.7,2,5.9,1.4c1.9-0.5,2.9-1.8,3-4c0.2-6,3.2-7.6,9-4.9c-2.8,2.3-6.2,4-6.3,8.6c0,1.7-2.2,1.7-3.5,2.3
				c-2.2,1-4.5,2.1-6.7,3.1c-2,0.9-4.1,1.5-5.9-0.2c-1.9-1.8-1.4-3.8,0-5.8c-1.7-2.7-5.6-3.6-6.3-7.3c0.1-2.5-1.2-4.2-3-5.8
				c1.7-1.7,4.6-0.3,6.1-2.6C25.3,37.3,23.8,34.2,19,32.1z"/>
			<path class="st20" d="M74.6,55.9c2.9,5.1,8.1,6.6,12.4,3.2c2.8-2.2,6.5-2.4,9-5c1.2-1.2,2.5-0.4,2.1,1.1
				c-0.7,2.6,0.9,3.9,1.9,5.7c2.8,4.7,1.2,8.8-4,10.3C92,72.4,89,75,87,78.8c-1.2-7.6-2.7-8-11.2-3.1C74.1,72,74,68,73,64.2
				c-0.8-2.9-2-5.2-5.5-5.2c-1.2,0-3.2,0.5-2.4-1.8c0.6-1.8,0.6-4.9,3.8-4.1C70.9,53.7,72.7,54.9,74.6,55.9z"/>
			<path class="st21" d="M42.9,22.2c2.6,0.3,5.1,0.3,7.6-0.7c1.5-0.6,3.7-1.2,4.2,1.6c-2.3,5-3,10,0,15c0.7,1.1,1,2.2-1,2.1
				c-2.1-1.7-6.1,1.1-7.2-2.7C45,32.5,40.7,28.1,42.9,22.2z"/>
			<path class="st22" d="M42.9,22.2c0.5,5.4,3.4,10,4.8,15c1,3.5,4.7,0.6,6.1,3c-5.3,0-10.5,0-15.8,0c2.2-5.8,2-11.9,1.9-18
				C40.9,18.5,41.9,22,42.9,22.2z"/>
			<path class="st23" d="M50.5,78c2.1,3.6-1,3.7-2.9,4.1c-2.4,0.4-4.9,0.4-6.8,2.3c-3.3-0.2-4.2,2.9-6,4.6c-0.3,0.7-0.9,1.5-0.8,2.2
				c0.5,4.5-1.8,3.2-4.1,2.1c-1.7-1.2-3.9-1.5-5.2-3.2c-0.4-0.5-0.2-1,0.1-0.5c0,0.1,0.6-0.1,0.9-0.1c4.2,1.9,6.9-0.2,7.8-3.9
				c1-4.3,3.7-4.9,7.2-5.2C44.1,80,47.9,81.2,50.5,78z"/>
			<path class="st24" d="M31.7,71.3c2.8-2.6,5.1-4.9,7.5-7.1c1.2-1,2.7-1.7,4.1-0.9c1.3,0.9,0.6,2.4,0.3,3.7
				C42.6,72.5,40.9,73.2,31.7,71.3z"/>
			<path class="st25" d="M21,49.1c1.5,2.1,3,4.1,5.6,5.1c1.6,0.6,0.4,1.4-0.3,2c-4.3-0.1-6.8,2.3-6.1,6.4c0.3,1.8,0.9,3.4-1,4.6
				c-0.9-5,0.9-10.2-1.1-15.1c-0.4-0.9-0.7-1.8-1-2.7C18.4,48,19.7,48.1,21,49.1z"/>
			<path class="st26" d="M39,59.1c0.9-1.2,3.1-1.6,2.8-3.3c-1.1-5.9,3-6.7,7.1-7.6c-1.1,3.2-3.3,5.9-4.1,9.3
				C43.9,60.8,40.9,58.7,39,59.1z"/>
			<path class="st27" d="M95.4,92.1c-5,3.1-7.8,2.8-9.9-1c5.2-5.4,10.4-10.8,15.7-16.1c0.7-0.7,1.7-2.2,2.2,0.2
				C100.7,80.8,98,86.5,95.4,92.1z"/>
			<path class="st28" d="M103.2,34.2c0,1.3,0.1,2.6,0.1,3.9c-0.1,1.9-0.6,3.2-2.9,3c-1.7-0.1-2.3-1.2-2.1-2.7
				c0.1-1.6-0.9-3.9,1.9-4.3C101.2,34.1,102.3,34.2,103.2,34.2z"/>
			<path class="st29" d="M21,49.1c-1.3,0-2.6,0.1-4,0.1c-1.5-2.1-1.5-4.1,0-6.1C22.1,42.6,21,46.3,21,49.1z"/>
			<path class="st30" d="M29,30.2c1.7,2.7,0.9,5.8,1,8.7c0,1.7-1,2.3-2.5,2.3c-1.6,0-2.3-0.9-2.3-2.5c0-2.8,0-5.6,0-8.4
				C26.4,30.3,27.7,30.2,29,30.2z"/>
			<path class="st31" d="M34.8,88.9c1.3-6.5,1.5-6.7,6-4.6c1,2.3,2,4.6,3,6.9c-0.1,4.5-3.4,2.9-5.7,3C34.1,94.4,35.2,91.2,34.8,88.9
				z"/>
			<path class="st32" d="M95.9,69.9c-0.5-2.4-2.3-3.3-4.1-4.2c0.9-2.4,3.8-2.6,4-5.4C99.3,63.5,100.6,66.4,95.9,69.9z"/>
		</g>
	</g>
</g>
</svg>
