<?xml version="1.0" encoding="utf-8"?>
<!-- Generator: Adobe Illustrator 26.5.1, SVG Export Plug-In . SVG Version: 6.00 Build 0)  -->
<svg version="1.1" xmlns="http://www.w3.org/2000/svg" xmlns:xlink="http://www.w3.org/1999/xlink" x="0px" y="0px"
	 viewBox="0 0 115.8 115.8" style="enable-background:new 0 0 115.8 115.8;" xml:space="preserve">
<style type="text/css">
	.st0{fill:url(#SVGID_1_);}
	.st1{fill:#179DEF;}
	.st2{fill:#0F7FE2;}
	.st3{fill:#1585E5;}
	.st4{fill:#1CB1EB;}
	.st5{fill:#179EEF;}
	.st6{fill:#1180E2;}
	.st7{fill:#22C6F0;}
	.st8{fill:#0D7DE1;}
	.st9{fill:#1BD0F5;}
	.st10{fill:#23D9F6;}
	.st11{fill:#2BF2F6;}
	.st12{fill:#D1F1F3;}
	.st13{fill:#2AEEF6;}
	.st14{fill:#DAF5F3;}
	.st15{fill:#30EFF6;}
	.st16{fill:#29E2F6;}
	.st17{fill:#D9F5F3;}
	.st18{fill:#D5F3F3;}
</style>
<g id="レイヤー_1">
</g>
<g id="レイヤー_15">
	<g>
		<linearGradient id="SVGID_1_" gradientUnits="userSpaceOnUse" x1="57.925" y1="109.8234" x2="57.925" y2="6.7375">
			<stop  offset="8.790836e-02" style="stop-color:#FFC546"/>
			<stop  offset="0.9071" style="stop-color:#FBF499"/>
		</linearGradient>
		<path class="st0" d="M104.8,0H11C4.9,0,0,4.9,0,11v93.8c0,6.1,4.9,11,11,11h93.8c6.1,0,11-4.9,11-11V11C115.8,4.9,110.9,0,104.8,0
			z"/>
		<g>
			<path class="st1" d="M108.8,11.4c0,29.4,0.1,58.8,0.1,88.2c0,1.6,0.4,3.3-0.8,4.8c-2.3-2.1-1.6-4.9-1.7-7.5c-0.1-2,0.3-4-0.3-5.9
				c-1-3.7,0.1-7.8-1.6-11.4c-2.1-3.2-4.8-5.6-7.8-7.9c-0.7-0.7-1.2-1.6-1.2-2.6c0-1,0.4-2,0.8-2.9c0.8-4.4,0.7-8.9,0-13.3
				c-2.3-13.5-9.9-23-21.9-29.2c-3.4,0.6-4.4-3.9-7.6-3.8c-1.5,0.4-2.9,0.2-4.4,0.1c-14.9-1.1-27.1,3.8-36,16.2
				c-5.5,7.6-8.9,7.5-14.1-0.4c-0.5-0.7-0.9-1.4-1.1-2.2c-0.1-0.8,0-1.5,0.3-2.2c5.1-4.4,8.5-10.4,14-14.5c6.8-5,14.6-7.4,22.1-10.6
				c18.1-0.1,36.3-1.3,54.4,0c-1,1.4-2.6,1.4-4,1.4C91,7.8,84.1,7.6,77,9.1c6.8,2.4,12.4,6.6,17.5,11.4c5.1,4.8,8.7,10.8,12.1,18.1
				c0-7.8-0.1-14.6,0-21.4c0-2.1-0.5-4.4,1.5-6C108.3,11.3,108.6,11.3,108.8,11.4z"/>
			<path class="st2" d="M108.1,11.2c0,10.1,0,20.1,0,30.2c-0.5,0.2-0.9,0.4-1.4,0.6c-6.6-16.2-17.5-27.7-35.2-33.8
				C82.7,6,92.4,6.6,102,6.3C105.2,6.5,107.2,8.2,108.1,11.2z"/>
			<path class="st3" d="M47.6,6.4c-1.3,2.4-3.8,3.1-6.1,3.9c-10.3,3.3-18.8,9-25.1,18c-1.1,1.5-2,3.6-4.5,3.1c-2.6-4-1.4-8,0.3-11.8
				c1-2.5,0.9-3.8-2-3.9c-3.4-0.1-4-2.2-3.7-5c1.7-2.8,4.1-4.6,7.4-4.6C25.1,6.1,36.3,6.3,47.6,6.4z"/>
			<path class="st4" d="M6.4,10.7c0.3,3,1.9,4,4.9,3.8c3.4-0.2,5.9,0.3,2.6,4.6c-2.8,3.6-2,8.1-2,12.3c0,0.7,0,1.4,0,2.1
				c-1.2,1.2-2.5,2.3-3.3,3.9c-0.6,0.8-1.3,1.3-2.3,1c-0.1-9-0.2-17.9-0.3-26.9C6.1,11.1,6.2,10.9,6.4,10.7z"/>
			<path class="st5" d="M6.3,38.2c0.5-0.3,1.1-0.6,1.6-0.9c4.5,1.9,8.3,4.8,12.2,7.6c0.3,0.4,0.4,0.9,0.5,1.4
				c-0.6,6.6-2,12.9-0.8,19.7c4.6,26.5,35.2,40.5,57.8,26.2c5.1-3.2,9.2-7.4,12.7-12.4c1.2-1.7,2.2-3.8,4.6-4.3
				c0.6,0,1.1,0.1,1.6,0.4c2.9,2.8,3.1,6.3,2.5,10c-1.5,8-7,12.4-13.9,15.5c-8.7,3.9-17.9,6.3-27.4,7.2c-0.8,0.1-1.6-0.1-2.2,0.6
				c-4.9,0-9.8,0-14.8,0c-14.6-6-25.7-15.7-32.5-31.3c0.1,2.9,0.1,5.1,0,7.2c0,2.3,0.1,4.7-0.1,7c-0.1,1.8,0.7,4.1-2,4.9
				C6.3,77.5,6.3,57.9,6.3,38.2z"/>
			<path class="st6" d="M6.2,97.1c1.5-5.4,0.3-10.8,0.7-16.2c0.1-1.9,0-3.8,0.5-5.8c3.5,4.1,4.8,9.3,8,13.5
				c5.8,7.7,13.1,13.4,21.4,17.8c1.4,0.8,3.1,1.2,3.8,3c-7.7,0.1-15.4,0.2-23.1,0.3C7.6,109.7,5.5,107.3,6.2,97.1z"/>
			<path class="st7" d="M55.4,109.4c6.8-3.3,14.5-3.4,21.5-6.1c3.5-1.4,6.9-2.7,10.4-4.3c5.6-2.6,8.7-7.1,10.8-12.6
				c2.1-1,2.5-3.3,3.7-5c0.8-1.2,1-3.3,3.2-3c3.5,3.5,1.4,8,2,12c-0.4,7.5-5.9,14.3-14,18.2c2.3-0.5,5.7-1.8,8.9,1
				c-6.8,1.4-13.6-0.2-20.5,0C72.8,109.7,64.1,109.4,55.4,109.4z"/>
			<path class="st8" d="M101.9,109.5c-3.3,0-6.5,0-9.8,0c6.4-5.6,12.5-10.9,14.9-19.2c2.1,4.6,0.3,9.5,1.2,14.1
				C106.4,106.7,105.4,109.7,101.9,109.5z"/>
			<path class="st9" d="M19.8,45.4c-4.3-2.1-8.7-4.2-11.9-8c-0.2-2.8,1.1-4.2,3.9-4c1.9,2.2,3.3,4.8,5.9,6.6
				c2.6,1.8,3.9,1.3,5.4-1.3c8.2-14.3,21-20.2,36.9-20.4c2.4,0,4.7,2,7.1,0.1c1.7,2.8-1.1,3.5-2.3,5.1c1.3,1.4,3.6,2.3,3.6,4.9
				c0.5-3.4,3.8-4,5.7-6c9.9,3.9,16.3,11.4,20.7,20.9c1.3,2.8,2.5,5.7,2.2,9c0.4,0.4,0.4,0.9,0,1.3c-2.6,0.6-3.6,2.3-3.6,5
				c0,2.9,0.5,6-0.9,8.8c-6.2,2.8-12.2-1.3-12.6-8.9C79.6,53,78.3,48.1,74.4,44c-6.6-7-14.4-9.6-23.8-7.5c-1.6,0.4-3.2,0.9-4.9,0.7
				c-4.4-2.6-5.6-5.1-4.9-11.6c-1.4,4.4-1.9,8.3-4.6,11.1c-2.9,2.9-6.7,3.9-11.4,3.8c4.9,0.6,9.1,0.8,11.3,5.5
				c-1.2,3.5-3.7,1.4-5.7,1.2C26.9,47,23.8,43.7,19.8,45.4z"/>
			<path class="st10" d="M19.8,45.4c-0.2-2.7,0.9-2.8,3.2-2c4.1,1.5,8,4,12.7,2.8c2.7,0.3,2.9,2.6,3.7,4.5c0.7,1.6,0.6,3.5,1.4,5.1
				c1.3,0.1,1.1-1.1,1.2-1.7c1-6.7,4.8-10.2,11.5-10.8c1-0.1-0.5-0.6-0.3-1.1c0.2-0.8,0.2-1.5,0-1.6c-2.9-0.7-6.6,0-7.6-4.2
				c11.4-3.8,21.6-2.4,30.1,6.9c3.6,4,5.8,8.5,5.4,13.9c-0.4,6.8,3.4,10.2,11,10.2c2-0.7,2.9,0.8,3.9,2c0.4,0.7,0.7,1.3,1.1,2
				c3.1,3,2.9,3.9-1,5.1c-0.3,0-0.6,0-1-0.1c-3.4-2.9-7.3-4.9-11.5-6.4c-0.6-0.3-1.1-0.8-1.8-0.9c-7.8-1.3-11.1-6.5-12.1-13.8
				c-2.7-4.8-6.2-7.8-12.2-7.6c-9.7,0.3-12.3,7-11.4,14.9c0.6,5.6,4.7,7.4,11.5,5.6c9.2,0.7,11.2,2.7,14,14.1
				c-0.1,0.9-0.7,1.7-1.5,1.5c-4.4-1.3-7.9,0.4-11.3,2.9c-1.2,0.9-2.7,1-4.1,0.2c1-1.5,0.7-2.2-1.1-2.8c-2.3-0.9-3.2-3.1-3.2-5.3
				c-0.6,2.6-0.8,5.9-5.1,5C40.8,78.3,35,74.1,32.9,67c-1-3.6-2-7.1-1.4-10.8c0.7-4.4-1.4-6.5-5.2-7.6C23.9,48,21.5,47.5,19.8,45.4
				L19.8,45.4z"/>
			<path class="st11" d="M96,69.3c-1.7,0.1-2.5-1.4-3.9-2c0-3.6,0-7.3,0-10.9c0-3.7,1.5-4.9,4.9-3c0.9,4.6,0.8,9.3,0,13.9
				C96.7,68,96.4,68.6,96,69.3z"/>
			<path class="st9" d="M96,76.3c2.7-1.2,2.8-2.9,1-5.1c3.7,1.1,5.6,4.3,7.9,7c-1.9,1.9-2.4,4.5-3.8,6.7c-0.7,1.1-1.2,3.1-3.1,1.3
				C98.3,82.8,97.6,79.5,96,76.3z"/>
			<path class="st12" d="M74.2,22.5c-0.1,0.6,2.5,1.2,0.2,1.7C71,25,69.6,27.3,68.8,31c-1.5-3.6-2.8-6.8-7.6-6.9
				c2.5-2.2,6.1-2.1,5.9-5.7c1.1-1.4,1.8-0.9,2.4,0.4C70.4,21,71.7,22.5,74.2,22.5z"/>
			<path class="st7" d="M97.1,67.3c0-4.6,0-9.3,0-13.9c0-0.4,0-0.7,0-1.1C98.7,57.3,98.6,62.3,97.1,67.3z"/>
			<path class="st9" d="M54.5,86.3c2,0.1,3.5-0.4,5.2-1.9c3.3-2.9,7.5-3,11.6-2.1c-1.8-9.1,4.5-15.5,12.9-13c4.4,1.2,9.1,1.8,10.9,7
				c-5.1,5.5-8.9,12-15.3,16.4c-23.2,16-57,1.5-61.2-26.8c-1.1-7.2,0.2-13.7,1.3-20.6c2.7,0.7,5.4,1.2,8,2.2c3.6,1.4,6,3.1,5.2,8.4
				c-1.5,8.9,2.5,16.4,9.1,22.3c1.6,1.4,3.4,2.6,3.5,5.1c0.1,2.9,4.1,2.6,4.1,5.5C51.5,88,52.1,85.4,54.5,86.3z"/>
			<path class="st13" d="M24.8,89c0,1.8,0.1,4-2.4,4c-2.5,0.1-2.6-2-2.6-3.9c0-1.8-0.4-3.8,2.4-3.9C24.9,85.2,24.8,87.1,24.8,89z"/>
			<path class="st14" d="M40.6,57.3c-3.1-3-1.3-8.3-4.9-11.1c-2.8-3.9-7.5-3.6-11.8-5.7c9.5-1,15-6,15.6-16.8
				c2.8,4.8,1.8,10,6.1,12.6c2.7,3.1,6.9,2.4,10.1,4.1c-0.3,1.5-2,0.8-2.6,1.7c-0.6,1.2-1.8,1.4-2.9,1.6c-4.6,1-6.8,4.3-7.7,8.6
				C42.3,54.2,41.9,56,40.6,57.3z"/>
			<path class="st15" d="M80.2,38c0-2.1,0.8-3.7,3.1-3.4c2.6,0.3,2,2.8,2.1,4.3c0.1,1.4-0.1,3.6-2.5,3.4C80.3,42.1,80.2,40,80.2,38z
				"/>
			<path class="st16" d="M57.4,69.3c-7.3,3.1-13.3-1.1-12.8-9.3c0.3-4.9,0.7-10.3,6.4-12.3c5.9-2,11.9-3,16.8,2.7
				c1.2,1.4,2.9,2.3,3.4,4.2c-0.6,1.2-0.5,2.6-0.7,3.9c-0.7,5.7-3.7,8.9-9.4,9.8C59.9,68.5,58.5,68.4,57.4,69.3z"/>
			<path class="st17" d="M57.4,69.3c0.1-0.3,0.2-0.8,0.4-0.8c8-1.2,11.5-6.7,13.4-13.9c0.6,8.2,2.6,10.6,10.4,12.8
				c1.1,0.3,2.3,0.5,2.6,1.9c-9.4,1.1-11.2,3-12.9,13c-1.3-0.5-1.3-1.8-1.6-2.9C67.4,71.5,65.9,70.2,57.4,69.3z"/>
			<path class="st18" d="M54.5,86.3c-2.5,1-3.6,3.1-4.6,5.5c-0.9-2.7-1.5-5.7-5.1-5.8c-0.8,0-1.8-0.5-1.3-1.5c0.3-0.6,1.3-0.8,2-1.2
				c3.6-0.4,3.4-3.7,4.7-6.6c1,4,2.7,6.8,6.8,7.7C56,85.2,55.2,85.8,54.5,86.3z"/>
			<path class="st9" d="M40.6,57.3c2.1-11.6,4.2-14.1,12.6-15.1c1.1,0.1,2.2,0.3,3.4,0.4c-0.3,2.1-1.9,1.6-3,1.8
				c-5.7,0.9-9.7,3.4-10.2,9.9c-0.1,1.5-0.8,3.6-1.9,4.3C39.7,59.8,40.5,58,40.6,57.3z"/>
		</g>
	</g>
</g>
</svg>
