<?xml version="1.0" encoding="utf-8"?>
<!-- Generator: Adobe Illustrator 27.2.0, SVG Export Plug-In . SVG Version: 6.00 Build 0)  -->
<svg version="1.1" id="location" xmlns="http://www.w3.org/2000/svg" xmlns:xlink="http://www.w3.org/1999/xlink" x="0px" y="0px"
	 viewBox="0 0 115.8 115.8" style="enable-background:new 0 0 115.8 115.8;" xml:space="preserve">
<style type="text/css">
	.st0{clip-path:url(#SVGID_00000152245967947131747810000009143895563292764315_);}
	.st1{fill:#DDA463;}
	.st2{fill:#919191;}
	.st3{fill:#FF0000;}
	.st4{fill:url(#SVGID_00000170983202979471836630000006259543708516951433_);}
	.st5{opacity:0.62;clip-path:url(#SVGID_00000041296012166293208430000016398967609326181796_);fill:#FFFFFF;}
	.st6{clip-path:url(#SVGID_00000177445727503942711470000005525971265684235450_);}
	.st7{clip-path:url(#SVGID_00000174562435514813456760000001254720384252836497_);}
	.st8{fill:url(#SVGID_00000167379561120826149840000017242447629727797146_);}
</style>
<g>
	<g>
		<defs>
			<path id="SVGID_1_" d="M101.2,6.8H14.6c-4.3,0-7.9,3.5-7.9,7.9v86.5c0,4.3,3.5,7.9,7.9,7.9h86.5c4.3,0,7.9-3.5,7.9-7.9V14.6
				C109,10.3,105.5,6.8,101.2,6.8z"/>
		</defs>
		<clipPath id="SVGID_00000128442886325720298130000003631420035351007155_">
			<use xlink:href="#SVGID_1_"  style="overflow:visible;"/>
		</clipPath>
		<g transform="matrix(1 0 0 1 0 0)" style="clip-path:url(#SVGID_00000128442886325720298130000003631420035351007155_);">
			
				<image style="overflow:visible;" width="2280" height="3000" xlink:href="C383B05E.jpg"  transform="matrix(5.080971e-02 0 0 5.080971e-02 -2.310166e-02 -2.304677e-02)">
			</image>
		</g>
	</g>
	<g>
		<defs>
			<path id="SVGID_00000166675782140498077920000000570669067570363066_" d="M95.5,109H20.3c-7.5,0-13.6-6.1-13.6-13.6V20.3
				c0-7.5,6.1-13.6,13.6-13.6h75.1c7.5,0,13.6,6.1,13.6,13.6v75.1C109,103,103,109,95.5,109z"/>
		</defs>
		<clipPath id="SVGID_00000131365519472827213110000012332976841231639172_">
			<use xlink:href="#SVGID_00000166675782140498077920000000570669067570363066_"  style="overflow:visible;"/>
		</clipPath>
		<g style="clip-path:url(#SVGID_00000131365519472827213110000012332976841231639172_);">
			<g>
				<path class="st1" d="M101.1,56.9c-0.5-3.5-2-6.4-4.3-9c-3.7-4.2-8.2-6.8-14-6.8c-15.9,0-31.8,0-47.7,0c-4.3,0-8,1.2-11.4,3.7
					c-2.6,1.9-4.7,4.3-6.1,7.1c-1.1,2-1.6,4.3-1.7,6.7c-0.1,3.5,0,6.8,1.6,9.9c1,1.9,2.1,3.8,3.8,5.3c1.5,1.4,3,2.7,4.8,3.7
					c1.9,1,3.9,1.8,6,2.1l0.2,0H82c0,0,3-0.2,4.5-0.6c1.3-0.4,2.6-0.7,3.9-1.3c3.7-1.7,6.4-4.5,8.3-8
					C101,65.8,101.7,61.5,101.1,56.9z M86.1,74.7c-0.9,0.3-1.9,0.4-2.8,0.4c-0.3,0.3-0.6,0.2-0.9,0.2v0h0c-0.1,0-0.1,0-0.2,0
					c-0.6,0-1.3,0-1.9,0h-5.8c-0.7,0-1.4,0-2.1,0c-0.2,0-0.3,0-0.4,0h-1.2c-0.2-0.1-0.5,0-0.7,0h-6.2v0c-4,0-8,0-12,0
					c-3.2,0-6.3,0-9.5,0c-0.4,0-0.8,0.1-1.1-0.2c-2.4,0-4.8,0-7.2,0c-3-0.1-5.7-1.1-8-3c-0.1-0.1-0.1-0.1-0.2-0.2l0,0
					c-0.2,0-0.3-0.1-0.4-0.2c-0.1-0.1-0.1-0.1-0.2-0.2l0,0c-0.1-0.1-0.1-0.1-0.2-0.2c-0.1-0.1-0.1-0.1-0.2-0.2l0,0
					c-0.1-0.1-0.1-0.1-0.2-0.2l0,0c-0.1-0.1-0.1-0.1-0.2-0.2c-0.2-0.1-0.2-0.2-0.2-0.4l0,0c-0.1-0.1-0.1-0.1-0.2-0.2l0,0
					c-0.1-0.1-0.1-0.2-0.2-0.2c-1.7-2.1-2.6-4.7-3.1-7.4c-0.3-1.4-0.3-2.7,0-4.1c0.7-3.5,2.3-6.6,4.9-9c2.7-2.4,5.9-3.8,9.5-3.8
					c15.5,0,31.1,0,46.6,0c2.8,0,5.5,0.4,7.9,1.9c3.8,2.5,6.7,5.7,7.4,10.3C97.8,65.2,93.8,72.6,86.1,74.7z"/>
				<path class="st2" d="M101.7,45.2c-2.4-2.6-4.9-5.2-7.5-7.5c-4.3-3.8-8.7-7.5-13.5-10.6c-2.5-1.6-5.3-2.9-7.9-4.4
					c-3.2-1.8-6.6-3.3-10.1-4.3c-2.4-0.7-4.8-1.5-7.4-1.8c-3.1-0.4-6.1-1.1-9.2-1.3c-1.8-0.1-3.6-0.2-5.3-0.5
					c-3.5-0.4-6.9-0.3-10.2,1c-3.2,1.3-5.8,3.6-8,6.3c-3.8,4.6-6.2,10-8,15.6c-0.2,0.5-0.3,0.8-0.8,1.1c-1.8,1.2-3.6,1.9-5.8,1.6
					c-0.6-0.1-1.3,0-1.9,0c-0.2,0-0.4,0-0.6,0.2c-0.2,0.2-0.1,2.5,0.1,2.6C7,44,8.1,45.5,10,45.4c0.4,0,0.7-0.1,1,0.3
					c0.9,1.5,2,3,1.2,4.8c-0.3,0.7,0,1.5-0.6,2.1c-2.6,2.7-5.2,5.3-7.7,8c-1.6,1.8-3.4,3.4-5.2,5.1c-0.6,0.6-0.8,2.6-0.2,3
					c0.7,0.5,1.5,0.9,2.3,1.4c0.2,0.1,0.4,0.2,0.6,0c0.4-0.6,1.5-1,0.7-2.1c-0.3-0.4,0.1-0.6,0.3-0.8c1-1.1,2.1-2.1,3.1-3.1
					c1.4-1.4,2.8-2.8,4.3-4.3c0.1,0,0.2,0.1,0.3,0.1c0,0.3,0,0.6-0.1,0.9c-0.9,4.4-1.9,8.8-2.8,13.2c-0.1,0.6,0,0.9,0.5,1.1
					c5.9,2.6,11.7,5.7,17.7,7.9c3.8,1.4,7.6,2.3,11.8,2.1c4.5-0.2,9-0.1,13.5-0.1c16.1,0,32.2,0,48.4,0c0.2,0,0.4,0,0.5,0
					c0.5,0.1,0.8-0.2,0.8-0.7c0-1.4,0-2.9,0-4.3c0-0.6-0.3-0.7-0.8-0.7c-0.6,0-1.2,0.1-1.8-0.1c0.2-0.3,0.3-0.5,0.5-0.7
					c1.9-1.4,3.3-3.2,4.8-5c2.5-3,4-6.5,4.4-10.3C108.1,56.5,106.4,50.3,101.7,45.2z M10.2,59.6L10.2,59.6L10.2,59.6L10.2,59.6z
					 M17.9,39.9c0.3-2.1,1.1-4.1,1.9-6c1.2-3.3,2.9-6.3,5.3-8.8c3.1-3.3,6.8-5.7,11.5-5.9c1.9-0.1,3.8,0.3,5.8,0.6
					c5.6,0.6,11.1,1.6,16.6,2.9c6,1.5,12,2.8,17.5,5.6c2.5,1.2,4.5,3.1,6.5,4.9c1.5,1.4,3.1,2.7,4.4,4.2c-15.9-0.3-31.9,0-47.8-0.1
					c-2.1,0-4.3,0-6.4,0.1c-3,0.2-5.8,1.1-8.4,2.6c-1,0.6-2,0.8-3.2,0.7c-1-0.1-1.9,0-2.9,0C18,40.7,17.8,40.5,17.9,39.9z
					 M98.7,69.8c-2,3.5-4.6,6.3-8.3,8c-1.2,0.6-2.6,0.9-3.9,1.3c-1.7,0.5-3.3,0.7-5.1,0.7c-12.1-0.1-24.2,0-36.3-0.1
					c-0.1,0-0.1,0-0.2,0H32c-2.1-0.3-4.1-1.1-6-2.1c-1.8-1-3.3-2.3-4.8-3.7c-1.6-1.5-2.8-3.3-3.8-5.3c-1.6-3.1-1.8-6.5-1.6-9.9
					c0.1-2.4,0.6-4.6,1.7-6.7c1.5-2.8,3.5-5.2,6.1-7.1c3.4-2.5,7.1-3.8,11.4-3.7c15.9,0.1,31.8,0,47.7,0c5.8,0,10.3,2.6,14,6.8
					c2.2,2.6,3.8,5.6,4.3,9C101.7,61.5,101,65.8,98.7,69.8z"/>
			</g>
			<g>
				<path class="st3" d="M58.9,72.7l-3.3-7.9c-0.1-0.3,0.1-0.6,0.4-0.6h6.1c0.3,0,0.5,0.3,0.4,0.6l-3.3,7.9
					C59.1,72.9,58.9,72.9,58.9,72.7z"/>
				<path class="st3" d="M86.1,79.1c0,0-0.1,0-0.1,0c-1.5,0.4-3,0.5-4.6,0.5c-2.1,0-4.2,0-6.3,0H32.2l-0.1,0h0c0,0-0.1,0-0.1,0V85
					c0.6,0.1,1.1,0.2,1.7,0.2c1.1,0,2.2,0,3.3,0c0.9,0,2,0,3,0c3.1-0.1,6.3,0,9.4,0l36.7,0V79.1z"/>
				<path class="st3" d="M39.4,37.3c-2.1,0-4.3,0-6.4,0.1c-0.7,0.1-1.4,0.1-2.2,0.3v3.8c1.3-0.3,2.7-0.4,4.2-0.4
					c15.9,0.1,31.8,0,47.7,0c1.6,0,3,0.2,4.4,0.6v-4.3C71.3,37,55.4,37.3,39.4,37.3z"/>
			</g>
		</g>
	</g>
	
		<linearGradient id="SVGID_00000002343211269000188260000017275478008571079864_" gradientUnits="userSpaceOnUse" x1="372.1634" y1="858.7731" x2="488.0096" y2="858.7731" gradientTransform="matrix(0 -1 1 0 -800.8732 487.9865)">
		<stop  offset="8.790836e-02" style="stop-color:#FFC546"/>
		<stop  offset="0.9071" style="stop-color:#FBF499"/>
	</linearGradient>
	<path style="fill:url(#SVGID_00000002343211269000188260000017275478008571079864_);" d="M0,11v93.8c0,6.1,4.9,11,11,11h93.8
		c6.1,0,11-4.9,11-11V11c0-6.1-4.9-11-11-11H11C4.9,0,0,4.9,0,11z M101.2,6.8c4.3,0,7.9,3.5,7.9,7.9v86.5c0,4.3-3.5,7.9-7.9,7.9
		H14.6c-4.3,0-7.9-3.5-7.9-7.9V14.6c0-4.3,3.5-7.9,7.9-7.9H101.2z"/>
</g>
<g>
	<defs>
		<path id="SVGID_00000000198498342707287540000003594982380153237914_" d="M0,11v93.8c0,6.1,4.9,11,11,11h93.8c6.1,0,11-4.9,11-11
			V11c0-6.1-4.9-11-11-11H11C4.9,0,0,4.9,0,11z"/>
	</defs>
	<clipPath id="SVGID_00000078762770420759274730000011355803177617974207_">
		<use xlink:href="#SVGID_00000000198498342707287540000003594982380153237914_"  style="overflow:visible;"/>
	</clipPath>
	
		<rect x="0" style="opacity:0.62;clip-path:url(#SVGID_00000078762770420759274730000011355803177617974207_);fill:#FFFFFF;" width="115.8" height="115.8"/>
</g>
<g>
	<defs>
		<polygon id="SVGID_00000155128599143487377900000009641599909464390079_" points="116,0 -0.2,0 -0.2,80.4 116,39.7 		"/>
	</defs>
	<clipPath id="SVGID_00000054980261888383165250000010659902635620337805_">
		<use xlink:href="#SVGID_00000155128599143487377900000009641599909464390079_"  style="overflow:visible;"/>
	</clipPath>
	<g style="clip-path:url(#SVGID_00000054980261888383165250000010659902635620337805_);">
		<g>
			<defs>
				<path id="SVGID_00000178171632919149363810000006308955492923829409_" d="M101.2,6.8H14.6c-4.3,0-7.9,3.5-7.9,7.9v86.5
					c0,4.3,3.5,7.9,7.9,7.9h86.5c4.3,0,7.9-3.5,7.9-7.9V14.6C109,10.3,105.5,6.8,101.2,6.8z"/>
			</defs>
			<clipPath id="SVGID_00000051356516350497296370000007027740323920031920_">
				<use xlink:href="#SVGID_00000178171632919149363810000006308955492923829409_"  style="overflow:visible;"/>
			</clipPath>
			<g transform="matrix(1 0 0 1 0 0)" style="clip-path:url(#SVGID_00000051356516350497296370000007027740323920031920_);">
				
					<image style="overflow:visible;" width="2280" height="3000" xlink:href="C383B059.jpg"  transform="matrix(5.080971e-02 0 0 5.080971e-02 -2.310166e-02 -2.304677e-02)">
				</image>
			</g>
		</g>
		<g>
			<defs>
				<path id="SVGID_00000076563032754286659220000012268129340694552735_" d="M95.5,109H20.3c-7.5,0-13.6-6.1-13.6-13.6V20.3
					c0-7.5,6.1-13.6,13.6-13.6h75.1c7.5,0,13.6,6.1,13.6,13.6v75.1C109,103,103,109,95.5,109z"/>
			</defs>
			<clipPath id="SVGID_00000068660284124935244010000014780663719064546452_">
				<use xlink:href="#SVGID_00000076563032754286659220000012268129340694552735_"  style="overflow:visible;"/>
			</clipPath>
			<g style="clip-path:url(#SVGID_00000068660284124935244010000014780663719064546452_);">
				<g>
					<path class="st1" d="M101.1,56.9c-0.5-3.5-2-6.4-4.3-9c-3.7-4.2-8.2-6.8-14-6.8c-15.9,0-31.8,0-47.7,0c-4.3,0-8,1.2-11.4,3.7
						c-2.6,1.9-4.7,4.3-6.1,7.1c-1.1,2-1.6,4.3-1.7,6.7c-0.1,3.5,0,6.8,1.6,9.9c1,1.9,2.1,3.8,3.8,5.3c1.5,1.4,3,2.7,4.8,3.7
						c1.9,1,3.9,1.8,6,2.1l0.2,0H82c0,0,3-0.2,4.5-0.6c1.3-0.4,2.6-0.7,3.9-1.3c3.7-1.7,6.4-4.5,8.3-8
						C101,65.8,101.7,61.5,101.1,56.9z M86.1,74.7c-0.9,0.3-1.9,0.4-2.8,0.4c-0.3,0.3-0.6,0.2-0.9,0.2v0h0c-0.1,0-0.1,0-0.2,0
						c-0.6,0-1.3,0-1.9,0h-5.8c-0.7,0-1.4,0-2.1,0c-0.2,0-0.3,0-0.4,0h-1.2c-0.2-0.1-0.5,0-0.7,0h-6.2v0c-4,0-8,0-12,0
						c-3.2,0-6.3,0-9.5,0c-0.4,0-0.8,0.1-1.1-0.2c-2.4,0-4.8,0-7.2,0c-3-0.1-5.7-1.1-8-3c-0.1-0.1-0.1-0.1-0.2-0.2l0,0
						c-0.2,0-0.3-0.1-0.4-0.2c-0.1-0.1-0.1-0.1-0.2-0.2l0,0c-0.1-0.1-0.1-0.1-0.2-0.2c-0.1-0.1-0.1-0.1-0.2-0.2l0,0
						c-0.1-0.1-0.1-0.1-0.2-0.2l0,0c-0.1-0.1-0.1-0.1-0.2-0.2c-0.2-0.1-0.2-0.2-0.2-0.4l0,0c-0.1-0.1-0.1-0.1-0.2-0.2l0,0
						c-0.1-0.1-0.1-0.2-0.2-0.2c-1.7-2.1-2.6-4.7-3.1-7.4c-0.3-1.4-0.3-2.7,0-4.1c0.7-3.5,2.3-6.6,4.9-9c2.7-2.4,5.9-3.8,9.5-3.8
						c15.5,0,31.1,0,46.6,0c2.8,0,5.5,0.4,7.9,1.9c3.8,2.5,6.7,5.7,7.4,10.3C97.8,65.2,93.8,72.6,86.1,74.7z"/>
					<path class="st2" d="M101.7,45.2c-2.4-2.6-4.9-5.2-7.5-7.5c-4.3-3.8-8.7-7.5-13.5-10.6c-2.5-1.6-5.3-2.9-7.9-4.4
						c-3.2-1.8-6.6-3.3-10.1-4.3c-2.4-0.7-4.8-1.5-7.4-1.8c-3.1-0.4-6.1-1.1-9.2-1.3c-1.8-0.1-3.6-0.2-5.3-0.5
						c-3.5-0.4-6.9-0.3-10.2,1c-3.2,1.3-5.8,3.6-8,6.3c-3.8,4.6-6.2,10-8,15.6c-0.2,0.5-0.3,0.8-0.8,1.1c-1.8,1.2-3.6,1.9-5.8,1.6
						c-0.6-0.1-1.3,0-1.9,0c-0.2,0-0.4,0-0.6,0.2c-0.2,0.2-0.1,2.5,0.1,2.6C7,44,8.1,45.5,10,45.4c0.4,0,0.7-0.1,1,0.3
						c0.9,1.5,2,3,1.2,4.8c-0.3,0.7,0,1.5-0.6,2.1c-2.6,2.7-5.2,5.3-7.7,8c-1.6,1.8-3.4,3.4-5.2,5.1c-0.6,0.6-0.8,2.6-0.2,3
						c0.7,0.5,1.5,0.9,2.3,1.4c0.2,0.1,0.4,0.2,0.6,0c0.4-0.6,1.5-1,0.7-2.1c-0.3-0.4,0.1-0.6,0.3-0.8c1-1.1,2.1-2.1,3.1-3.1
						c1.4-1.4,2.8-2.8,4.3-4.3c0.1,0,0.2,0.1,0.3,0.1c0,0.3,0,0.6-0.1,0.9c-0.9,4.4-1.9,8.8-2.8,13.2c-0.1,0.6,0,0.9,0.5,1.1
						c5.9,2.6,11.7,5.7,17.7,7.9c3.8,1.4,7.6,2.3,11.8,2.1c4.5-0.2,9-0.1,13.5-0.1c16.1,0,32.2,0,48.4,0c0.2,0,0.4,0,0.5,0
						c0.5,0.1,0.8-0.2,0.8-0.7c0-1.4,0-2.9,0-4.3c0-0.6-0.3-0.7-0.8-0.7c-0.6,0-1.2,0.1-1.8-0.1c0.2-0.3,0.3-0.5,0.5-0.7
						c1.9-1.4,3.3-3.2,4.8-5c2.5-3,4-6.5,4.4-10.3C108.1,56.5,106.4,50.3,101.7,45.2z M10.2,59.6L10.2,59.6L10.2,59.6L10.2,59.6z
						 M17.9,39.9c0.3-2.1,1.1-4.1,1.9-6c1.2-3.3,2.9-6.3,5.3-8.8c3.1-3.3,6.8-5.7,11.5-5.9c1.9-0.1,3.8,0.3,5.8,0.6
						c5.6,0.6,11.1,1.6,16.6,2.9c6,1.5,12,2.8,17.5,5.6c2.5,1.2,4.5,3.1,6.5,4.9c1.5,1.4,3.1,2.7,4.4,4.2c-15.9-0.3-31.9,0-47.8-0.1
						c-2.1,0-4.3,0-6.4,0.1c-3,0.2-5.8,1.1-8.4,2.6c-1,0.6-2,0.8-3.2,0.7c-1-0.1-1.9,0-2.9,0C18,40.7,17.8,40.5,17.9,39.9z
						 M98.7,69.8c-2,3.5-4.6,6.3-8.3,8c-1.2,0.6-2.6,0.9-3.9,1.3c-1.7,0.5-3.3,0.7-5.1,0.7c-12.1-0.1-24.2,0-36.3-0.1
						c-0.1,0-0.1,0-0.2,0H32c-2.1-0.3-4.1-1.1-6-2.1c-1.8-1-3.3-2.3-4.8-3.7c-1.6-1.5-2.8-3.3-3.8-5.3c-1.6-3.1-1.8-6.5-1.6-9.9
						c0.1-2.4,0.6-4.6,1.7-6.7c1.5-2.8,3.5-5.2,6.1-7.1c3.4-2.5,7.1-3.8,11.4-3.7c15.9,0.1,31.8,0,47.7,0c5.8,0,10.3,2.6,14,6.8
						c2.2,2.6,3.8,5.6,4.3,9C101.7,61.5,101,65.8,98.7,69.8z"/>
				</g>
				<g>
					<path class="st3" d="M101.1,39.2l-3.3-7.9c-0.1-0.3,0.1-0.6,0.4-0.6h6.1c0.3,0,0.5,0.3,0.4,0.6l-3.3,7.9
						C101.4,39.4,101.2,39.4,101.1,39.2z"/>
					<path class="st3" d="M13.5,39.2l-3.3-7.9c-0.1-0.3,0.1-0.6,0.4-0.6h6.1c0.3,0,0.5,0.3,0.4,0.6l-3.3,7.9
						C13.8,39.4,13.5,39.4,13.5,39.2z"/>
					<path class="st3" d="M32,80.9v-1.3c-2-0.3-3.9-1-5.7-2c-0.1,0-0.1-0.1-0.2-0.1c-1.4-0.8-2.5-1.7-3.7-2.7
						c-0.4-0.3-0.8-0.7-1.1-1c-1.6-1.5-2.8-3.3-3.8-5.3c-1.4-2.7-1.7-5.6-1.7-8.6c0-0.4,0-0.9,0-1.3c0.1-1.2,0.2-2.4,0.5-3.5
						c0.3-1.1,0.7-2.2,1.2-3.2c0.4-0.7,0.8-1.4,1.2-2c0.4-0.7,0.9-1.3,1.4-1.9c0.5-0.6,1.1-1.2,1.6-1.7s1.2-1.1,1.8-1.5
						c0.5-0.4,1-0.7,1.6-1.1c0.1-0.1,0.3-0.2,0.4-0.2c0.4-0.3,0.9-0.5,1.4-0.7c0.1,0,0.2-0.1,0.3-0.1c1.2-0.5,2.4-0.9,3.6-1.2
						c0,0,0,0,0,0v-3.8c-2.2,0.4-4.3,1.2-6.2,2.3c-1,0.6-2,0.8-3.2,0.7c-0.5,0-0.9,0-1.4,0c-3.1,2.4-5.6,5.4-7.3,8.7
						c-0.2,0.5-0.4,0.9-0.6,1.4c-0.2,0.6,0,1.4-0.5,1.9c-0.1,0.1-0.2,0.2-0.3,0.3c-0.5,1.7-0.8,3.5-0.9,5.3c-0.2,3.9,0,8.4,2.2,12.7
						c1,2,2.6,4.6,4.9,6.8c1.9,1.7,3.7,3.3,6,4.5c0.2,0.1,0.4,0.2,0.6,0.3c0.4,0.2,0.8,0.3,1.2,0.5c2.2,0.8,4.3,1.4,6.6,1.8v-1.3h0
						V80.9C32,80.9,32,80.9,32,80.9L32,80.9L32,80.9C32,80.9,32,80.9,32,80.9z"/>
					<path class="st3" d="M101.7,45.2c-2.4-2.6-4.9-5.2-7.5-7.5c-0.1-0.1-0.3-0.2-0.4-0.3h-6.6v0.2v0.9v3.2h0
						c1.4,0.4,2.7,0.9,3.9,1.6c0,0,0,0,0,0c0.4,0.2,0.8,0.5,1.2,0.7c0,0,0,0,0,0c0.4,0.2,0.7,0.5,1.1,0.8c0.1,0,0.1,0.1,0.2,0.1
						c0.4,0.3,0.7,0.6,1,0.9c0,0,0,0,0,0c0.3,0.3,0.6,0.6,0.9,0.9c0.1,0.1,0.2,0.2,0.2,0.2c0.3,0.3,0.6,0.6,0.9,1
						c2.2,2.6,3.8,5.6,4.3,9c0.2,1.1,0.3,2.3,0.2,3.4c0,1.1-0.1,2.2-0.3,3.3c-0.4,2.2-1.1,4.2-2.3,6.2c-1.7,3-4,5.6-7,7.3
						c-0.4,0.2-0.9,0.5-1.3,0.7c-0.6,0.3-1.3,0.5-1.9,0.7c-0.7,0.2-1.3,0.4-2,0.6c-0.1,0-0.3,0.1-0.4,0.1v3.4v0.6v2
						c0.9-0.3,5.3-2.1,8.9-4.3c0.6-0.4,1.8-1.1,3.2-2.2c0,0,0-0.1,0.1-0.1c0.4-0.3,0.8-0.6,1.1-1c0.1-0.1,0.3-0.2,0.4-0.3
						c0.3-0.3,0.7-0.6,1-1c0,0,0.1-0.1,0.1-0.1c0.4-0.4,0.7-0.8,1.1-1.3c0,0,0,0,0,0c0.4-0.4,0.7-0.9,1.1-1.3c2.5-3,4-6.5,4.4-10.3
						C108.1,56.5,106.4,50.3,101.7,45.2z"/>
				</g>
			</g>
		</g>
		
			<linearGradient id="SVGID_00000063629954135766282540000003507440773096622240_" gradientUnits="userSpaceOnUse" x1="372.1634" y1="858.7731" x2="488.0096" y2="858.7731" gradientTransform="matrix(0 -1 1 0 -800.8732 487.9865)">
			<stop  offset="8.790836e-02" style="stop-color:#FFC546"/>
			<stop  offset="0.9071" style="stop-color:#FBF499"/>
		</linearGradient>
		<path style="fill:url(#SVGID_00000063629954135766282540000003507440773096622240_);" d="M0,11v93.8c0,6.1,4.9,11,11,11h93.8
			c6.1,0,11-4.9,11-11V11c0-6.1-4.9-11-11-11H11C4.9,0,0,4.9,0,11z M101.2,6.8c4.3,0,7.9,3.5,7.9,7.9v86.5c0,4.3-3.5,7.9-7.9,7.9
			H14.6c-4.3,0-7.9-3.5-7.9-7.9V14.6c0-4.3,3.5-7.9,7.9-7.9H101.2z"/>
	</g>
</g>
</svg>
