<?xml version="1.0" encoding="utf-8"?>
<!-- Generator: Adobe Illustrator 27.2.0, SVG Export Plug-In . SVG Version: 6.00 Build 0)  -->
<svg version="1.1" id="レイヤー_1" xmlns="http://www.w3.org/2000/svg" xmlns:xlink="http://www.w3.org/1999/xlink" x="0px"
	 y="0px" viewBox="0 0 268.9 155.1" style="enable-background:new 0 0 268.9 155.1;" xml:space="preserve">
<style type="text/css">
	.st0{fill:#B6F217;stroke:#3E700C;stroke-width:3;stroke-miterlimit:10;}
	.st1{fill:#9CDC02;}
	.st2{fill:#6EBD00;}
	.st3{fill:#5DA20A;}
	.st4{fill:#FBFFF7;}
	.st5{fill:#EBFFD6;}
	.st6{fill:#A19FA3;stroke:#3D3A50;stroke-width:3;stroke-miterlimit:10;}
	.st7{fill:#95939A;}
	.st8{fill:#A19FA3;}
	.st9{fill:#684F41;}
	.st10{fill:#4D270D;}
	.st11{fill:#E9E8EF;}
	.st12{fill:#794117;}
	.st13{fill:#FF901C;}
	.st14{fill:#FFFFFF;}
</style>
<g>
	<g>
		<path class="st0" d="M257.8,142h-43.3c-5.3,0-9.7-4.3-9.7-9.7v-30.2c0-2.5,1.1-4.9,3.1-6.5L229,78c4.1-3.4,10.1-3.4,14.2,0
			l21.2,17.6c1.9,1.6,3.1,4,3.1,6.5v30.2C267.4,137.7,263.1,142,257.8,142z"/>
		<path class="st1" d="M257.4,137.6h-42.7c-3.5,0-6.3-2.8-6.3-6.3v-28.4c0-1.6,0.7-3.1,1.9-4.1l21.5-18c2.4-2,6-2,8.5,0l21.5,18
			c1.2,1,1.9,2.5,1.9,4.1v28.4C263.7,134.7,260.9,137.6,257.4,137.6z"/>
		<path class="st2" d="M261.8,98.8l-11-9.2L210.6,136c1.1,1,2.5,1.5,4.1,1.5h42.7c3.5,0,6.3-2.8,6.3-6.3v-28.4
			C263.7,101.3,263,99.8,261.8,98.8z"/>
		<path class="st3" d="M249.2,112.7c0,1.9-1.5,3.4-3.4,3.4h-6v6c0,1.9-1.5,3.4-3.4,3.4c-1.9,0-3.4-1.5-3.4-3.4v-6h-6
			c-1.9,0-3.4-1.5-3.4-3.4c0-1.9,1.5-3.4,3.4-3.4h6v-6c0-1.9,1.5-3.4,3.4-3.4c1.9,0,3.4,1.5,3.4,3.4v6h6
			C247.7,109.3,249.2,110.8,249.2,112.7z"/>
		<path class="st4" d="M249,111.4c0,1.9-1.5,3.4-3.4,3.4h-6v6c0,1.9-1.5,3.4-3.4,3.4c-1.9,0-3.4-1.5-3.4-3.4v-6h-6
			c-1.9,0-3.4-1.5-3.4-3.4c0-1.9,1.5-3.4,3.4-3.4h6v-6c0-1.9,1.5-3.4,3.4-3.4c1.9,0,3.4,1.5,3.4,3.4v6h6
			C247.4,108,249,109.5,249,111.4z"/>
		<path class="st5" d="M236.1,124.3c1.9,0,3.4-1.5,3.4-3.4v-6h6c1.9,0,3.4-1.5,3.4-3.4c0-1.9-1.5-3.4-3.4-3.4h-6v-5.4l-10.6,12.3
			h3.7v6C232.7,122.8,234.2,124.3,236.1,124.3z"/>
	</g>
	<g>
		<path class="st6" d="M11.2,87h43.3c5.3,0,9.7,4.3,9.7,9.7v30.2c0,2.5-1.1,4.9-3.1,6.5L39.9,151c-4.1,3.4-10.1,3.4-14.2,0
			L4.6,133.4c-1.9-1.6-3.1-4-3.1-6.5V96.7C1.5,91.3,5.8,87,11.2,87z"/>
		<path class="st7" d="M11.5,91.4h42.7c3.5,0,6.3,2.8,6.3,6.3v28.4c0,1.6-0.7,3.1-1.9,4.1l-21.5,18c-2.4,2-6,2-8.5,0l-21.5-18
			c-1.2-1-1.9-2.5-1.9-4.1V97.7C5.2,94.3,8,91.4,11.5,91.4z"/>
		<path class="st8" d="M7.1,130.2l11,9.2L58.3,93c-1.1-1-2.5-1.5-4.1-1.5H11.5c-3.5,0-6.3,2.8-6.3,6.3v28.4
			C5.2,127.7,5.9,129.2,7.1,130.2z"/>
		<path class="st9" d="M45.7,113.3c0-1.7-1.5-3.1-3.4-3.1h-6h-6.9h-6c-1.9,0-3.4,1.4-3.4,3.1c0,1.7,1.5,3.1,3.4,3.1h6h6.9h6
			C44.2,116.4,45.7,115,45.7,113.3z"/>
		<path class="st10" d="M45.7,112.4c0-1.7-1.5-3.1-3.4-3.1h-6h-6.9h-6c-1.9,0-3.4,1.4-3.4,3.1c0,1.7,1.5,3.1,3.4,3.1h6h6.9h6
			C44.2,115.5,45.7,114.1,45.7,112.4z"/>
	</g>
	<path class="st11" d="M180.5,146H89.9c-5.3,0-9.6-4.3-9.6-9.6V93.6c0-5.3,4.3-9.6,9.6-9.6h90.6c5.3,0,9.6,4.3,9.6,9.6v42.9
		C190.1,141.7,185.8,146,180.5,146z"/>
	<g>
		<path class="st12" d="M107.6,131.4v-6.5H93.4v-6.3l13.1-19.3h8.2v19.4h4.4v6.2h-4.4v6.5H107.6z M107.6,108.1l-7.2,10.6h7.2V108.1z
			"/>
		<path class="st12" d="M122.1,115.3c0-9.7,3.7-16.9,12.5-16.9c8.7,0,12.5,7,12.5,16.9c0,10.4-3.8,17-12.5,17
			C125.8,132.2,122.1,126.2,122.1,115.3z M139.5,115.3c0-6.5-1.6-10.5-5-10.5s-5,3.9-5,10.5c0,7,1.6,10.7,5,10.7
			C137.8,126,139.5,122.3,139.5,115.3z"/>
		<path class="st12" d="M164.4,131.4v-6.5h-14.2v-6.3l13.1-19.3h8.2v19.4h4.4v6.2h-4.4v6.5H164.4z M164.4,108.1l-7.2,10.6h7.2V108.1
			z"/>
	</g>
	<path class="st13" d="M222.9,0H48.8c-7.4,0-13.4,6-13.4,13.4v39.8c0,7.4,6,13.4,13.4,13.4h77.6L136.8,84l9.5-17.3h76.6
		c7.4,0,13.4-6,13.4-13.4V13.4C236.4,6,230.3,0,222.9,0z"/>
	<g>
		<path class="st14" d="M105.1,45.5c-2.8-0.1-5.5-0.6-7.6-1.7c-2,1-4.8,1.5-8.2,1.6c-0.2,0-0.4,0-0.7,0L87.6,42
			c-0.9,2.2-2.6,3.5-6.3,3.5l-1.5-5c3.2,0,3.7-0.9,3.7-4.1v-0.6c-1.7,2.6-3.6,3.4-3.6,3.4l-1.1-4.8c0,0,2.5-1.4,4.3-4
			c-0.1-0.6-0.2-1.2-0.4-1.7c-0.7,0.6-1.7,1.2-2.6,1.8l-1.4-4.8c0.8-0.5,1.6-1.1,2.2-1.7c-0.5-0.9-1.2-1.7-2-2.3l3.6-3.5
			c0.6,0.5,1.2,1.2,1.6,2c0.5-0.8,0.8-1.8,0.8-1.8l2.4,2v-0.9h3v-1.3h4.9v1.3h3.2v-1.3h4.9v1.3h2.8V23h-2.8V24h-3.3l2,0.3
			c0,0-0.1,0.2-0.3,0.6h3.9v2.3h-4.6v0.8h4.1V30h-4.1v0.8h4.1v1.9h-4.1v0.8h4.9v2.3H89.4v-4.2c-0.2,0.3-0.4,0.5-0.6,0.7l-0.7-3.1
			c0.2,1.6,0.4,4.6,0.4,6.1c0,2.2-0.1,4.6-0.6,6.2c1.3,0.1,2.6,0.1,3.6,0.1h1.1c-0.9-0.4-2.1-1.6-2.4-1.9h-1.2v-3.1h16v2
			c-0.4,0.9-1.4,2.1-2.9,2.9c0.6,0.1,1.3,0.1,2.1,0.1c0.6,0,1.2,0,1.9-0.1L105.1,45.5z M90.5,23h-2.6c-0.3,0.5-0.6,0.9-1,1.5
			c0.3,0.7,0.5,2.1,0.7,2.9c2-1.7,2.4-3.9,2.4-3.9l0.5,0.1V23z M98.6,23h-3.2V24H93l1.9,0.3c0,0-0.1,0.2-0.2,0.7h2.2
			c0.6-0.8,0.9-1.4,0.9-1.4l1,0.2V23z M96.9,27.3h-2.8v0.8h2.8V27.3z M96.9,30h-2.8v0.8h2.8V30z M96.9,32.7h-2.8v0.8h2.8V32.7z
			 M95.3,39.6c0.6,0.4,1.5,0.9,2.3,1.1c0.6-0.2,1.4-0.7,1.8-1.1H95.3z"/>
		<path class="st14" d="M119,29.7v-1.2c-1.1,1.7-2.5,3.5-2.5,3.5v13.5h-4.9V36c-0.5,0.5-1.2,1.1-1.2,1.1l-1.2-5.1c0,0,4-2.6,6.3-6.4
			l3.5,2.5v-9h16.8v10.6H119z M109.4,23.7c0,0,3-2.2,5.2-5.5l4.1,2.3c-2.7,4.6-7,7.6-7,7.6L109.4,23.7z M133.5,39.2v1.4
			c0,4.4-0.9,4.9-6.1,4.9h-0.5l-2-4.7h2.5c1.1,0,1.2-0.4,1.2-1.2v-0.4h-6.1c1,1.4,2.2,3.5,2.2,3.5l-4.3,2.4c0,0-1-2.2-2.3-4.3
			l3.2-1.5h-3.4v-3.9h10.7v-0.9h-9.9v-3.7H136v3.7h-2.5v0.9h3v3.9H133.5z M130.9,22.1h-7v1h7V22.1z M130.9,25.7h-7v1h7V25.7z"/>
		<path class="st14" d="M150.6,45.5V33.1c-1.4,1.7-5.1,4.1-8.8,5.6l-2.2-5.2c7-3.1,10.4-7,12-9.6h-11.3v-4.9h25.9V24h-8.5
			c-0.9,2.5-1.9,3.5-1.9,3.5v1.4L158,27c0,0,3.3,4.4,8.9,7.2l-2.6,4.6c-4-2.1-6.9-4.9-8.5-6.9v13.5H150.6z"/>
		<path class="st14" d="M183.3,40.5h3.7c1.9,0,1.9-0.5,1.9-1.5V24h-18.5v-4.9h26.5V24h-3.1v16.6c0,4.6-0.8,4.9-8.6,4.9L183.3,40.5z
			 M176.7,38.3v2.5h-4.9V26h14.7v12.3H176.7z M181.6,30.6h-5v3.2h5V30.6z"/>
	</g>
</g>
</svg>
