<?xml version="1.0" encoding="utf-8"?>
<!-- Generator: Adobe Illustrator 27.2.0, SVG Export Plug-In . SVG Version: 6.00 Build 0)  -->
<svg version="1.1" id="レイヤー_1" xmlns="http://www.w3.org/2000/svg" xmlns:xlink="http://www.w3.org/1999/xlink" x="0px"
	 y="0px" viewBox="0 0 288 117.5" style="enable-background:new 0 0 288 117.5;" xml:space="preserve">
<style type="text/css">
	.st0{fill:#FFFFFF;stroke:#625D7C;stroke-width:3;stroke-miterlimit:10;}
	.st1{fill:url(#SVGID_1_);stroke:#625D7C;stroke-width:3;stroke-miterlimit:10;}
	
		.st2{clip-path:url(#SVGID_00000013872031872003402440000011469803988440492962_);fill:url(#SVGID_00000142890166067728611370000018363401301200274322_);}
	.st3{fill:url(#SVGID_00000171687644815244410790000013120446240769225356_);}
	.st4{fill:url(#SVGID_00000145044306858651111510000012995022224219489684_);}
	.st5{fill:#794015;}
</style>
<g>
	<path class="st0" d="M265,116H23c-11.9,0-21.5-9.6-21.5-21.5V23C1.5,11.1,11.1,1.5,23,1.5h242c11.9,0,21.5,9.6,21.5,21.5v71.5
		C286.5,106.4,276.9,116,265,116z"/>
	
		<linearGradient id="SVGID_1_" gradientUnits="userSpaceOnUse" x1="144" y1="114.798" x2="144" y2="7.2818" gradientTransform="matrix(1 0 0 -1 0 120)">
		<stop  offset="1.855066e-02" style="stop-color:#FFFFFF"/>
		<stop  offset="0.7384" style="stop-color:#FDFDFE"/>
		<stop  offset="0.9748" style="stop-color:#F7F7F9"/>
	</linearGradient>
	<path class="st1" d="M265,116H23c-11.9,0-21.5-9.6-21.5-21.5V23C1.5,11.1,11.1,1.5,23,1.5h242c11.9,0,21.5,9.6,21.5,21.5v71.5
		C286.5,106.4,276.9,116,265,116z"/>
	<path class="st0" d="M265,116H23c-11.9,0-21.5-9.6-21.5-21.5V23C1.5,11.1,11.1,1.5,23,1.5h242c11.9,0,21.5,9.6,21.5,21.5v71.5
		C286.5,106.4,276.9,116,265,116z"/>
	<g>
		<g>
			<defs>
				<path id="SVGID_00000115511868539697683500000002602395730421034686_" d="M23,112c-9.7,0-17.5-7.9-17.5-17.5V23
					c0-9.7,7.9-17.5,17.5-17.5h242c9.7,0,17.5,7.9,17.5,17.5v71.5c0,9.7-7.9,17.5-17.5,17.5H23z"/>
			</defs>
			<clipPath id="SVGID_00000178189963935199728600000005678465192908703918_">
				<use xlink:href="#SVGID_00000115511868539697683500000002602395730421034686_"  style="overflow:visible;"/>
			</clipPath>
			
				<linearGradient id="SVGID_00000031900955562880269390000011995388227268044210_" gradientUnits="userSpaceOnUse" x1="144" y1="111.0202" x2="144" y2="14.5978" gradientTransform="matrix(1 0 0 -1 0 120)">
				<stop  offset="0" style="stop-color:#FFFFFF"/>
				<stop  offset="0.4123" style="stop-color:#FCFCFD"/>
				<stop  offset="0.7114" style="stop-color:#F4F3F7"/>
				<stop  offset="0.9745" style="stop-color:#E5E3EC"/>
				<stop  offset="1" style="stop-color:#E3E1EB"/>
			</linearGradient>
			
				<path style="clip-path:url(#SVGID_00000178189963935199728600000005678465192908703918_);fill:url(#SVGID_00000031900955562880269390000011995388227268044210_);" d="
				M265,116H23c-11.9,0-21.5-9.6-21.5-21.5V23C1.5,11.1,11.1,1.5,23,1.5h242c11.9,0,21.5,9.6,21.5,21.5v71.5
				C286.5,106.4,276.9,116,265,116z"/>
		</g>
	</g>
</g>
<linearGradient id="SVGID_00000077285280442602716060000004992718143333542835_" gradientUnits="userSpaceOnUse" x1="127" y1="61.25" x2="282.5" y2="61.25" gradientTransform="matrix(1 0 0 -1 0 120)">
	<stop  offset="7.148230e-02" style="stop-color:#E9E9EE"/>
	<stop  offset="0.5692" style="stop-color:#FFFFFF"/>
</linearGradient>
<path style="fill:url(#SVGID_00000077285280442602716060000004992718143333542835_);" d="M193.6,112L127,5.5h138
	c9.7,0,17.5,7.9,17.5,17.5v71.5c0,9.7-7.9,17.5-17.5,17.5H193.6z"/>
<linearGradient id="SVGID_00000091012578135318368480000005402334010073967536_" gradientUnits="userSpaceOnUse" x1="127" y1="61.25" x2="282.5" y2="61.25" gradientTransform="matrix(1 0 0 -1 0 120)">
	<stop  offset="0.3875" style="stop-color:#E9E9EE"/>
	<stop  offset="0.9736" style="stop-color:#FFFFFF"/>
</linearGradient>
<path style="fill:url(#SVGID_00000091012578135318368480000005402334010073967536_);" d="M127,112L233.6,5.5H265
	c9.7,0,17.5,7.9,17.5,17.5v71.5c0,9.7-7.9,17.5-17.5,17.5H127z"/>
<path class="st5" d="M40.1,64.4c-0.6-5.7-0.8-11.3-0.8-16.5c0-3.1,0-6,0.2-8.7l8.9,0.4c-0.2,3.5-0.3,6.9-0.3,10.4
	c0,4.6,0.2,9.2,0.7,13.7L40.1,64.4z M53,76.4c7.8-11.1,11.3-22.1,12.4-37.9l9,0.7c-1.4,16.3-5.8,29.6-13,40.6L53,76.4z M131.9,77.7
	c-5.4,0.4-13.1,0.6-18.3,0.6c-8.6,0-13.1-1.3-13.1-9.8V54.6l-7.8,0.5l-0.6-8.3l8.4-0.6V38h8.3v7.6l25.5-1.8
	c-1.8,7.5-4.8,15.5-7.7,21.5l-8.3-2.1c1.8-3,3.6-7,4.8-10.3L108.8,54v12.5c0,3.3,1.3,3.7,5,3.7c2.8,0,10.6-0.2,17.6-0.6L131.9,77.7z
	 M157.8,62.7c-1.5-5.7-2.9-10.6-4.7-15.5l7.4-2.2c1.8,4.6,3.4,9.7,4.9,15.6L157.8,62.7z M169,61c-1.2-5.8-2.5-10.8-4.3-15.7l7.6-1.9
	c1.8,4.8,3.2,9.8,4.3,15.6L169,61z M164.8,74.8c8.9-8.2,13.9-16.2,16.5-29.8l8.5,1.7c-3.2,13.7-8.8,23.9-17.5,32.5L164.8,74.8z
	 M245.2,66.4c-6.9-2.7-14.7-5.6-20.7-7.5v20.5H216V37.7h8.5v12.4c8.8,2.6,16.3,5.2,24.3,8.5L245.2,66.4z"/>
</svg>
